# Blender v2.80 (sub 74) OBJ File: 'untitled.blend'
# www.blender.org
mtllib Double_Hammer.mtl
o Double_Hammer_Cube.029
v 0.000553 1.312637 -0.035709
v 0.032775 1.312529 -0.003487
v -0.031669 1.312756 -0.003487
v 0.000553 1.312648 0.028735
v 0.001007 1.441532 -0.035730
v 0.033229 1.441424 -0.003508
v -0.031215 1.441651 -0.003508
v 0.001007 1.441543 0.028714
v -0.053361 1.312824 -0.059083
v 0.054468 1.312444 -0.059083
v 0.054468 1.312462 0.052108
v -0.053361 1.312841 0.052108
v -0.052907 1.441736 0.052088
v -0.052907 1.441719 -0.059104
v 0.054921 1.441339 -0.059104
v 0.054921 1.441357 0.052088
v -0.035915 0.106628 -0.003293
v -0.003694 0.106509 -0.035515
v 0.028528 0.106401 -0.003293
v -0.003694 0.106520 0.028929
v 0.001069 1.459218 0.028711
v -0.031153 1.459326 -0.003511
v 0.001069 1.459208 -0.035733
v 0.033291 1.459100 -0.003511
v -0.046521 0.000268 -0.003276
v -0.004068 0.000112 -0.045729
v 0.038385 -0.000031 -0.003276
v -0.004068 0.000126 0.039177
v 0.000311 1.243926 0.021193
v 0.024980 1.243835 -0.003476
v 0.000311 1.243918 -0.028145
v -0.024358 1.244009 -0.003476
v 0.000132 1.193190 0.021201
v 0.000132 1.193183 -0.028137
v 0.024802 1.193100 -0.003468
v -0.024536 1.193273 -0.003468
v -0.000548 0.999979 0.028785
v -0.000548 0.999968 -0.035659
v 0.031674 0.999860 -0.003437
v -0.032770 1.000087 -0.003437
v 0.081166 1.324088 0.047352
v 0.102876 1.324011 0.047352
v 0.103247 1.429465 0.047335
v 0.081537 1.429541 0.047335
v 0.103247 1.429448 -0.054347
v 0.081537 1.429525 -0.054347
v 0.081166 1.324071 -0.054330
v 0.102876 1.323995 -0.054330
v -0.079605 1.430092 -0.054347
v -0.101316 1.430169 -0.054347
v -0.101316 1.430185 0.047335
v -0.079605 1.430109 0.047335
v -0.079977 1.324639 -0.054330
v -0.101687 1.324715 -0.054330
v -0.101687 1.324731 0.047351
v -0.079977 1.324655 0.047351
v -0.001227 0.807137 0.028816
v -0.001227 0.807126 -0.035628
v 0.030995 0.807018 -0.003406
v -0.033449 0.807245 -0.003406
v -0.003303 0.217360 0.028911
v -0.003303 0.217350 -0.035533
v 0.028918 0.217242 -0.003311
v -0.035525 0.217469 -0.003311
v 0.128297 1.322224 -0.072230
v 0.128193 1.292723 -0.043285
v 0.112184 1.312496 -0.060909
v 0.128193 1.292736 0.036317
v 0.128297 1.322246 0.065253
v 0.112184 1.312514 0.053935
v -0.127120 1.323145 0.065252
v -0.127224 1.293635 0.036316
v -0.111076 1.313300 0.053935
v -0.127224 1.293622 -0.043285
v -0.127120 1.323123 -0.072230
v -0.111076 1.313282 -0.060910
v -0.126737 1.431934 -0.072248
v -0.126633 1.461444 -0.043312
v -0.110624 1.441666 -0.060930
v -0.126633 1.461457 0.036290
v -0.126737 1.431957 0.065235
v -0.110624 1.441684 0.053914
v 0.128680 1.431057 0.065235
v 0.128784 1.460558 0.036290
v 0.112636 1.440898 0.053914
v 0.128784 1.460545 -0.043312
v 0.128680 1.431035 -0.072248
v 0.112636 1.440880 -0.060930
v 0.180972 1.322104 -0.072230
v 0.180868 1.292538 -0.043241
v 0.180868 1.292551 0.036273
v 0.180972 1.322127 0.065253
v -0.179795 1.323397 0.065252
v -0.179899 1.293821 0.036273
v -0.179899 1.293808 -0.043241
v -0.179795 1.323375 -0.072230
v -0.179412 1.432054 -0.072248
v -0.179308 1.461630 -0.043268
v -0.179308 1.461642 0.036246
v -0.179412 1.432076 0.065235
v 0.181355 1.430805 0.065235
v 0.181459 1.460372 0.036246
v 0.181459 1.460359 -0.043268
v 0.181355 1.430783 -0.072248
v 0.202128 1.305627 -0.032408
v 0.202232 1.335281 -0.061449
v 0.202232 1.335299 0.054467
v 0.202128 1.305637 0.025436
v -0.201066 1.307056 0.025436
v -0.200962 1.336719 0.054467
v -0.200962 1.336700 -0.061449
v -0.201066 1.307047 -0.032408
v -0.200568 1.448543 -0.032431
v -0.200672 1.418881 -0.061463
v -0.200672 1.418899 0.054454
v -0.200568 1.448553 0.025413
v 0.202626 1.447133 0.025413
v 0.202522 1.417480 0.054454
v 0.202522 1.417461 -0.061462
v 0.202626 1.447124 -0.032431
v 0.030892 0.777897 -0.003401
v -0.033551 0.778124 -0.003401
v -0.001329 0.778016 0.028821
v -0.001329 0.778005 -0.035623
v -0.003214 0.242794 0.028907
v -0.003214 0.242784 -0.035537
v 0.029008 0.242676 -0.003315
v -0.035436 0.242903 -0.003315
vt 0.212248 0.820682
vt 0.212248 0.820682
vt 0.212248 0.820682
vt 0.212248 0.820682
vt 0.842160 0.800493
vt 0.842160 0.800493
vt 0.842160 0.800493
vt 0.842160 0.800493
vt 0.212248 0.820682
vt 0.212248 0.820682
vt 0.842160 0.800493
vt 0.842160 0.800493
vt 0.842160 0.800493
vt 0.842160 0.800493
vt 0.842160 0.800493
vt 0.842160 0.800493
vt 0.842160 0.800493
vt 0.842160 0.800493
vt 0.842160 0.800493
vt 0.842160 0.800493
vt 0.842160 0.800493
vt 0.842160 0.800493
vt 0.842160 0.800493
vt 0.842160 0.800493
vt 0.842160 0.800493
vt 0.842160 0.800493
vt 0.842160 0.800493
vt 0.842160 0.800493
vt 0.842160 0.800493
vt 0.842160 0.800493
vt 0.842160 0.800493
vt 0.842160 0.800493
vt 0.212248 0.820682
vt 0.212248 0.820682
vt 0.212248 0.820682
vt 0.212248 0.820682
vt 0.212248 0.820682
vt 0.212248 0.820682
vt 0.212248 0.820682
vt 0.212248 0.820682
vt 0.212248 0.820682
vt 0.212248 0.820682
vt 0.212248 0.820682
vt 0.212248 0.820682
vt 0.212248 0.820682
vt 0.212248 0.820682
vt 0.212248 0.820682
vt 0.212248 0.820682
vt 0.212248 0.820682
vt 0.212248 0.820682
vt 0.212248 0.820682
vt 0.212248 0.820682
vt 0.212248 0.820682
vt 0.212248 0.820682
vt 0.212248 0.820682
vt 0.212248 0.820682
vt 0.212248 0.820682
vt 0.212248 0.820682
vt 0.212248 0.820682
vt 0.212248 0.820682
vt 0.212248 0.820682
vt 0.212248 0.820682
vt 0.848753 0.513549
vt 0.848753 0.513549
vt 0.848753 0.513549
vt 0.848753 0.513549
vt 0.842160 0.800493
vt 0.842160 0.800493
vt 0.842160 0.800493
vt 0.842160 0.800493
vt 0.842160 0.800493
vt 0.842160 0.800493
vt 0.842160 0.800493
vt 0.842160 0.800493
vt 0.842160 0.800493
vt 0.842160 0.800493
vt 0.842160 0.800493
vt 0.842160 0.800493
vt 0.842160 0.800493
vt 0.842160 0.800493
vt 0.842160 0.800493
vt 0.842160 0.800493
vt 0.842160 0.800493
vt 0.842160 0.800493
vt 0.842160 0.800493
vt 0.842160 0.800493
vt 0.842160 0.800493
vt 0.842160 0.800493
vt 0.842160 0.800493
vt 0.842160 0.800493
vt 0.842160 0.800493
vt 0.842160 0.800493
vt 0.842160 0.800493
vt 0.842160 0.800493
vt 0.842160 0.800493
vt 0.842160 0.800493
vt 0.842160 0.800493
vt 0.842160 0.800493
vt 0.842160 0.800493
vt 0.842160 0.800493
vt 0.842160 0.800493
vt 0.842160 0.800493
vt 0.842160 0.800493
vt 0.848753 0.513549
vt 0.848753 0.513549
vt 0.848753 0.513549
vt 0.848753 0.513549
vt 0.848753 0.513549
vt 0.848753 0.513549
vt 0.848753 0.513549
vt 0.848753 0.513549
vt 0.848753 0.513549
vt 0.848753 0.513549
vt 0.842160 0.800493
vt 0.842160 0.800493
vt 0.842160 0.800493
vt 0.842160 0.800493
vt 0.842160 0.800493
vt 0.842160 0.800493
vt 0.842160 0.800493
vt 0.848753 0.513549
vt 0.848753 0.513549
vt 0.848753 0.513549
vt 0.848753 0.513549
vt 0.848753 0.513549
vt 0.848753 0.513549
vt 0.848753 0.513549
vt 0.848753 0.513549
vt 0.848753 0.513549
vt 0.848753 0.513549
vt 0.848753 0.513549
vt 0.848753 0.513549
vt 0.848753 0.513549
vt 0.848753 0.513549
vt 0.848753 0.513549
vt 0.848753 0.513549
vt 0.848753 0.513549
vt 0.848753 0.513549
vt 0.212248 0.820682
vt 0.212248 0.820682
vt 0.212248 0.820682
vt 0.212248 0.820682
vt 0.842160 0.800493
vt 0.842160 0.800493
vt 0.842160 0.800493
vt 0.842160 0.800493
vt 0.842160 0.800493
vt 0.842160 0.800493
vt 0.842160 0.800493
vt 0.842160 0.800493
vt 0.842160 0.800493
vt 0.842160 0.800493
vt 0.842160 0.800493
vt 0.842160 0.800493
vt 0.842160 0.800493
vt 0.842160 0.800493
vt 0.842160 0.800493
vt 0.842160 0.800493
vt 0.842160 0.800493
vt 0.842160 0.800493
vt 0.848753 0.513549
vt 0.848753 0.513549
vt 0.848753 0.513549
vt 0.848753 0.513549
vt 0.848753 0.513549
vt 0.848753 0.513549
vt 0.848753 0.513549
vt 0.848753 0.513549
vn -0.7071 0.0026 0.7071
vn 0.0035 1.0000 -0.0002
vn 0.7071 -0.0024 0.7071
vn -0.7728 0.6347 -0.0001
vn -0.0000 -0.0002 -1.0000
vn 0.0000 0.0002 1.0000
vn -0.0035 -1.0000 0.0002
vn -0.7052 0.0704 0.7055
vn -0.7071 0.0024 -0.7071
vn 0.7071 -0.0026 -0.7071
vn 0.7057 0.0652 -0.7055
vn 0.7057 0.0655 0.7055
vn -0.7052 0.0702 -0.7055
vn 0.7047 -0.0801 -0.7050
vn -0.7053 -0.0749 0.7050
vn -0.7053 -0.0751 -0.7050
vn 0.7047 -0.0798 0.7050
vn 0.7069 0.0250 -0.7068
vn -0.7067 0.0302 0.7068
vn -0.7067 0.0300 -0.7068
vn 0.7069 0.0253 0.7068
vn 0.5242 -0.8516 0.0001
vn -0.5757 0.0022 0.8177
vn 0.1756 -0.0008 -0.9845
vn 0.3993 -0.9168 0.0001
vn 0.4057 0.9140 -0.0001
vn 0.1756 -0.0005 0.9845
vn -0.4057 -0.9140 0.0001
vn -0.1756 0.0008 0.9845
vn -0.3993 0.9168 -0.0001
vn -0.1756 0.0005 -0.9845
vn -0.4531 0.0015 -0.8914
vn 1.0000 -0.0035 0.0000
vn 0.5757 -0.0019 0.8177
vn 0.7728 -0.6347 0.0001
vn -0.5757 0.0019 -0.8177
vn 0.7772 0.6292 -0.0001
vn 0.5757 -0.0022 -0.8177
vn -0.7772 -0.6292 0.0001
vn -1.0000 0.0035 -0.0000
vn -0.4531 0.0017 0.8914
vn 0.4531 -0.0015 0.8914
vn 0.5302 0.8479 -0.0001
vn -0.5242 0.8516 -0.0001
vn 0.4531 -0.0017 -0.8914
vn -0.5302 -0.8479 0.0001
vn -0.0786 -0.6981 -0.7117
vn -0.0786 -0.6978 0.7119
vn 0.0737 -0.6984 0.7119
vn 0.0737 -0.6986 -0.7117
vn 0.0786 0.6978 -0.7119
vn 0.0786 0.6981 0.7117
vn -0.0737 0.6986 0.7117
vn -0.0737 0.6984 -0.7119
vn -0.0017 -0.7000 0.7141
vn 0.0032 0.7002 0.7139
vn 0.0032 0.7000 -0.7141
vn 0.0017 0.7002 0.7139
vn -0.0032 -0.7000 0.7141
vn -0.0032 -0.7002 -0.7139
vn -0.0017 -0.7002 -0.7139
vn 0.0017 0.7000 -0.7141
vn 0.6264 0.5444 0.5578
vn 0.6264 0.5442 -0.5580
vn -0.6226 0.5488 0.5578
vn -0.6264 -0.5442 0.5580
vn -0.6264 -0.5444 -0.5578
vn 0.6226 -0.5488 -0.5578
vn -0.6226 0.5486 -0.5580
vn 0.6226 -0.5486 0.5580
usemtl Low_Poly_Image_Texture.014
s off
f 7/1/1 8/2/1 21/3/1 22/4/1
f 80/5/2 78/6/2 98/7/2 99/8/2
f 8/2/3 6/9/3 24/10/3 21/3/3
f 45/11/4 43/12/4 85/13/4 84/14/4 86/15/4 88/16/4
f 9/17/5 14/18/5 15/19/5 10/20/5
f 13/21/6 12/22/6 11/23/6 16/24/6
f 1/25/7 3/26/7 9/17/7 10/20/7
f 2/27/7 1/25/7 10/20/7 11/23/7
f 4/28/7 2/27/7 11/23/7 12/22/7
f 3/26/7 4/28/7 12/22/7 9/17/7
f 8/29/2 7/30/2 14/18/2 13/21/2
f 7/30/2 5/31/2 15/19/2 14/18/2
f 6/32/2 8/29/2 13/21/2 16/24/2
f 5/31/2 6/32/2 16/24/2 15/19/2
f 20/33/8 17/34/8 25/35/8 28/36/8
f 22/4/2 21/3/2 24/10/2 23/37/2
f 63/38/3 61/39/3 20/33/3 19/40/3
f 64/41/9 62/42/9 18/43/9 17/34/9
f 6/9/10 5/44/10 23/37/10 24/10/10
f 5/44/9 7/1/9 22/4/9 23/37/9
f 61/39/1 64/41/1 17/34/1 20/33/1
f 62/42/10 63/38/10 19/40/10 18/43/10
f 26/45/7 27/46/7 28/36/7 25/35/7
f 18/43/11 19/40/11 27/46/11 26/45/11
f 19/40/12 20/33/12 28/36/12 27/46/12
f 17/34/13 18/43/13 26/45/13 25/35/13
f 1/47/14 2/48/14 30/49/14 31/50/14
f 4/51/15 3/52/15 32/53/15 29/54/15
f 3/52/16 1/47/16 31/50/16 32/53/16
f 2/48/17 4/51/17 29/54/17 30/49/17
f 31/50/10 30/49/10 35/55/10 34/56/10
f 29/54/1 32/53/1 36/57/1 33/58/1
f 32/53/9 31/50/9 34/56/9 36/57/9
f 30/49/3 29/54/3 33/58/3 35/55/3
f 34/56/18 35/55/18 39/59/18 38/60/18
f 33/58/19 36/57/19 40/61/19 37/62/19
f 36/57/20 34/56/20 38/60/20 40/61/20
f 35/55/21 33/58/21 37/62/21 39/59/21
f 91/63/22 90/64/22 105/65/22 108/66/22
f 74/67/7 72/68/7 94/69/7 95/70/7
f 83/71/6 69/72/6 92/73/6 101/74/6
f 86/15/2 84/14/2 102/75/2 103/76/2
f 77/77/5 75/78/5 96/79/5 97/80/5
f 71/81/6 81/82/6 100/83/6 93/84/6
f 65/85/5 87/86/5 104/87/5 89/88/5
f 43/12/23 42/89/23 70/90/23 69/72/23 83/71/23 85/13/23
f 10/20/24 15/19/24 46/91/24 47/92/24
f 47/92/5 46/91/5 45/11/5 48/93/5
f 11/23/25 10/20/25 47/92/25 41/94/25
f 41/94/7 47/92/7 48/93/7 42/89/7
f 15/19/26 16/24/26 44/95/26 46/91/26
f 46/91/2 44/95/2 43/12/2 45/11/2
f 16/24/27 11/23/27 41/94/27 44/95/27
f 44/95/6 41/94/6 42/89/6 43/12/6
f 9/17/28 12/22/28 56/96/28 53/97/28
f 53/97/7 56/96/7 55/98/7 54/99/7
f 12/22/29 13/21/29 52/100/29 56/96/29
f 56/96/6 52/100/6 51/101/6 55/98/6
f 13/21/30 14/18/30 49/102/30 52/100/30
f 52/100/2 49/102/2 50/103/2 51/101/2
f 14/18/31 9/17/31 53/97/31 49/102/31
f 49/102/5 53/97/5 54/99/5 50/103/5
f 97/104/32 96/105/32 111/106/32 114/107/32
f 119/108/33 120/109/33 117/110/33 118/111/33 107/112/33 108/66/33 105/65/33 106/113/33
f 55/98/34 51/101/34 82/114/34 81/82/34 71/81/34 73/115/34
f 54/99/35 55/98/35 73/115/35 72/68/35 74/67/35 76/116/35
f 48/93/36 45/11/36 88/16/36 87/86/36 65/85/36 67/117/36
f 51/101/37 50/103/37 79/118/37 78/6/37 80/5/37 82/114/37
f 50/103/38 54/99/38 76/116/38 75/78/38 77/77/38 79/118/38
f 42/89/39 48/93/39 67/117/39 66/119/39 68/120/39 70/90/39
f 111/106/40 112/121/40 109/122/40 110/123/40 115/124/40 116/125/40 113/126/40 114/107/40
f 93/127/41 100/128/41 115/124/41 110/123/41
f 101/129/42 92/130/42 107/112/42 118/111/42
f 103/131/43 102/132/43 117/110/43 120/109/43
f 99/133/44 98/134/44 113/126/44 116/125/44
f 89/135/45 104/136/45 119/108/45 106/113/45
f 95/137/46 94/138/46 109/122/46 112/121/46
f 38/60/10 39/59/10 59/139/10 58/140/10
f 37/62/1 40/61/1 60/141/1 57/142/1
f 40/61/9 38/60/9 58/140/9 60/141/9
f 39/59/3 37/62/3 57/142/3 59/139/3
f 126/143/10 127/144/10 63/145/10 62/146/10
f 125/147/1 128/148/1 64/149/1 61/150/1
f 128/148/9 126/143/9 62/146/9 64/149/9
f 127/144/3 125/147/3 61/150/3 63/145/3
f 65/85/47 66/119/47 67/117/47
f 68/120/48 69/72/48 70/90/48
f 71/81/49 72/68/49 73/115/49
f 74/67/50 75/78/50 76/116/50
f 77/77/51 78/6/51 79/118/51
f 80/5/52 81/82/52 82/114/52
f 83/71/53 84/14/53 85/13/53
f 86/15/54 87/86/54 88/16/54
f 68/120/55 91/151/55 92/73/55 69/72/55
f 102/75/56 84/14/56 83/71/56 101/74/56
f 104/87/57 87/86/57 86/15/57 103/76/57
f 80/5/58 99/8/58 100/83/58 81/82/58
f 94/69/59 72/68/59 71/81/59 93/84/59
f 96/79/60 75/78/60 74/67/60 95/70/60
f 90/152/61 66/119/61 65/85/61 89/88/61
f 77/77/62 97/80/62 98/7/62 78/6/62
f 101/129/63 118/111/63 117/110/63 102/132/63
f 119/108/64 104/136/64 103/131/64 120/109/64
f 99/133/65 116/125/65 115/124/65 100/128/65
f 109/122/66 94/138/66 93/127/66 110/123/66
f 111/106/67 96/105/67 95/137/67 112/121/67
f 105/65/68 90/64/68 89/135/68 106/113/68
f 97/104/69 114/107/69 113/126/69 98/134/69
f 107/112/70 92/130/70 91/63/70 108/66/70
f 68/120/7 66/119/7 90/152/7 91/151/7
f 59/153/3 57/154/3 123/155/3 121/156/3
f 60/157/9 58/158/9 124/159/9 122/160/9
f 57/154/1 60/157/1 122/160/1 123/155/1
f 58/158/10 59/153/10 121/156/10 124/159/10
f 121/161/3 123/162/3 125/163/3 127/164/3
f 122/165/9 124/166/9 126/167/9 128/168/9
f 123/162/1 122/165/1 128/168/1 125/163/1
f 124/166/10 121/161/10 127/164/10 126/167/10
