# Blender v2.80 (sub 74) OBJ File: 'untitled.blend'
# www.blender.org
mtllib War_Hammer.mtl
o War_Hammer_Cube.027
v 0.005352 1.125296 -0.026541
v 0.037052 1.125184 -0.000062
v -0.026349 1.125408 -0.000062
v 0.005352 1.125296 0.026417
v 0.005681 1.218903 -0.026541
v 0.037382 1.218791 -0.000062
v -0.026019 1.219014 -0.000062
v 0.005681 1.218903 0.026417
v -0.027667 1.125362 -0.031814
v 0.038998 1.125248 -0.033223
v 0.038996 1.125248 0.033098
v -0.027692 1.125366 0.031686
v -0.041175 1.218951 0.035004
v -0.041207 1.218947 -0.035123
v 0.051604 1.218786 -0.033698
v 0.051604 1.218786 0.033574
v -0.023488 0.128208 -0.000062
v 0.001841 0.128119 -0.021219
v 0.027169 0.128029 -0.000062
v 0.001841 0.128119 0.021094
v -0.035783 0.035524 -0.000062
v 0.001514 0.035393 -0.031216
v 0.038812 0.035261 -0.000062
v 0.001514 0.035393 0.031092
v 0.005086 1.049736 0.023830
v 0.033689 1.049636 -0.000062
v 0.005086 1.049736 -0.023954
v -0.023518 1.049837 -0.000062
v 0.004933 1.006305 0.020210
v 0.004933 1.006305 -0.020335
v 0.029203 1.006220 -0.000062
v -0.019337 1.006391 -0.000062
v 0.004350 0.840908 0.021094
v 0.004350 0.840908 -0.021219
v 0.029679 0.840819 -0.000062
v -0.020978 0.840997 -0.000062
v 0.073381 1.140928 0.026246
v 0.100649 1.145737 0.024714
v 0.100842 1.193043 0.024719
v 0.074957 1.198950 0.026822
v 0.100842 1.193043 -0.024833
v 0.074958 1.198950 -0.026936
v 0.073378 1.140927 -0.026359
v 0.100649 1.145738 -0.024828
v -0.114609 1.187495 -0.015491
v -0.114607 1.187496 0.015661
v -0.111756 1.154858 -0.010320
v -0.111757 1.154859 0.010479
v -0.164489 1.159921 0.000088
v 0.003108 0.488015 0.021094
v 0.003108 0.488015 -0.021219
v 0.028436 0.487926 -0.000062
v -0.022221 0.488104 -0.000062
v 0.001987 0.169771 0.021094
v 0.001987 0.169771 -0.021219
v 0.027316 0.169682 -0.000062
v -0.023341 0.169860 -0.000062
v 0.118618 1.135180 -0.040924
v 0.118306 1.119287 -0.025337
v 0.110736 1.130661 -0.033941
v 0.118306 1.119287 0.025212
v 0.118619 1.135180 0.040799
v 0.110735 1.130663 0.033821
v 0.118858 1.203139 0.040799
v 0.118678 1.219034 0.025212
v 0.110964 1.207751 0.033787
v 0.118678 1.219034 -0.025337
v 0.118858 1.203139 -0.040924
v 0.110965 1.207752 -0.033909
v 0.155645 1.135063 -0.040912
v 0.155589 1.119165 -0.025329
v 0.155589 1.119165 0.025205
v 0.155645 1.135063 0.040788
v 0.155884 1.202995 0.040788
v 0.155940 1.218893 0.025205
v 0.155940 1.218893 -0.025329
v 0.155884 1.202995 -0.040912
v 0.170379 1.126935 -0.018893
v 0.170435 1.142880 -0.034504
v 0.170435 1.142880 0.034380
v 0.170379 1.126935 0.018769
v 0.170675 1.211019 0.018769
v 0.170619 1.195074 0.034380
v 0.170619 1.195074 -0.034504
v 0.170675 1.211019 -0.018893
v -0.077624 1.202193 0.031919
v -0.058370 1.141801 0.028452
v -0.077594 1.202205 -0.031889
v -0.058395 1.141810 -0.028467
v 0.189449 1.183555 0.019264
v 0.189480 1.192502 0.010505
v 0.189480 1.192502 -0.010629
v 0.189449 1.183555 -0.019389
v 0.189346 1.154267 -0.019389
v 0.189314 1.145319 -0.010629
v 0.189314 1.145319 0.010505
v 0.189346 1.154267 0.019264
v 0.029344 1.046345 -0.000062
v -0.019196 1.046516 -0.000062
v 0.005074 1.046430 0.020210
v 0.005074 1.046430 -0.020335
v 0.005778 1.246239 0.018628
v -0.016598 1.246318 -0.000062
v 0.005778 1.246239 -0.018752
v 0.028153 1.246160 -0.000062
v 0.006146 1.350780 -0.000062
v -0.035894 0.004068 -0.000062
v 0.001403 0.003937 -0.031216
v 0.038701 0.003805 -0.000062
v 0.001403 0.003937 0.031092
v -0.026182 0.044364 -0.000062
v 0.001545 0.044267 0.023098
v 0.029273 0.044169 -0.000062
v 0.001545 0.044267 -0.023223
vt 0.842160 0.800493
vt 0.842160 0.800493
vt 0.842160 0.800493
vt 0.842160 0.800493
vt 0.842160 0.800493
vt 0.842160 0.800493
vt 0.842160 0.800493
vt 0.842160 0.800493
vt 0.842160 0.800493
vt 0.842160 0.800493
vt 0.842160 0.800493
vt 0.842160 0.800493
vt 0.842160 0.800493
vt 0.842160 0.800493
vt 0.842160 0.800493
vt 0.842160 0.800493
vt 0.842160 0.800493
vt 0.842160 0.800493
vt 0.842160 0.800493
vt 0.842160 0.800493
vt 0.842160 0.800493
vt 0.842160 0.800493
vt 0.212248 0.820682
vt 0.212248 0.820682
vt 0.212248 0.820682
vt 0.212248 0.820682
vt 0.212248 0.820682
vt 0.212248 0.820682
vt 0.212248 0.820682
vt 0.212248 0.820682
vt 0.842160 0.800493
vt 0.842160 0.800493
vt 0.842160 0.800493
vt 0.842160 0.800493
vt 0.842160 0.800493
vt 0.842160 0.800493
vt 0.842160 0.800493
vt 0.842160 0.800493
vt 0.842160 0.800493
vt 0.842160 0.800493
vt 0.212248 0.820682
vt 0.212248 0.820682
vt 0.212248 0.820682
vt 0.212248 0.820682
vt 0.212248 0.820682
vt 0.212248 0.820682
vt 0.212248 0.820682
vt 0.212248 0.820682
vt 0.212248 0.820682
vt 0.212248 0.820682
vt 0.212248 0.820682
vt 0.212248 0.820682
vt 0.848753 0.513549
vt 0.848753 0.513549
vt 0.848753 0.513549
vt 0.848753 0.513549
vt 0.842160 0.800493
vt 0.842160 0.800493
vt 0.842160 0.800493
vt 0.842160 0.800493
vt 0.842160 0.800493
vt 0.842160 0.800493
vt 0.842160 0.800493
vt 0.842160 0.800493
vt 0.842160 0.800493
vt 0.842160 0.800493
vt 0.842160 0.800493
vt 0.842160 0.800493
vt 0.842160 0.800493
vt 0.842160 0.800493
vt 0.842160 0.800493
vt 0.842160 0.800493
vt 0.842160 0.800493
vt 0.842160 0.800493
vt 0.842160 0.800493
vt 0.842160 0.800493
vt 0.842160 0.800493
vt 0.842160 0.800493
vt 0.842160 0.800493
vt 0.842160 0.800493
vt 0.842160 0.800493
vt 0.842160 0.800493
vt 0.842160 0.800493
vt 0.842160 0.800493
vt 0.842160 0.800493
vt 0.842160 0.800493
vt 0.842160 0.800493
vt 0.848753 0.513549
vt 0.848753 0.513549
vt 0.848753 0.513549
vt 0.848753 0.513549
vt 0.842160 0.800493
vt 0.842160 0.800493
vt 0.842160 0.800493
vt 0.848753 0.513549
vt 0.848753 0.513549
vt 0.848753 0.513549
vt 0.848753 0.513549
vt 0.848753 0.513549
vt 0.848753 0.513549
vt 0.848753 0.513549
vt 0.848753 0.513549
vt 0.848753 0.513549
vt 0.848753 0.513549
vt 0.212248 0.820682
vt 0.212248 0.820682
vt 0.212248 0.820682
vt 0.212248 0.820682
vt 0.504913 0.864008
vt 0.504913 0.864008
vt 0.504913 0.864008
vt 0.504913 0.864008
vt 0.504913 0.864008
vt 0.504913 0.864008
vt 0.504913 0.864008
vt 0.504913 0.864008
vt 0.842160 0.800493
vt 0.842160 0.800493
vt 0.842160 0.800493
vt 0.848753 0.513549
vt 0.848753 0.513549
vt 0.848753 0.513549
vt 0.848753 0.513549
vt 0.848753 0.513549
vt 0.848753 0.513549
vt 0.842160 0.800493
vt 0.842160 0.800493
vt 0.842160 0.800493
vt 0.842160 0.800493
vt 0.842160 0.800493
vt 0.842160 0.800493
vt 0.842160 0.800493
vt 0.842160 0.800493
vt 0.842160 0.800493
vt 0.212248 0.820682
vt 0.212248 0.820682
vt 0.212248 0.820682
vt 0.212248 0.820682
vn 0.0001 -0.0202 -0.9998
vn 0.0001 -0.0203 0.9998
vn -0.0021 -1.0000 0.0007
vn 0.0018 -1.0000 -0.0018
vn -0.0018 -1.0000 0.0020
vn 0.0003 -1.0000 -0.0013
vn -0.0009 1.0000 0.0014
vn 0.0015 1.0000 -0.0032
vn 0.0024 1.0000 0.0008
vn 0.0018 1.0000 0.0006
vn -0.5253 0.5705 0.6313
vn 0.6270 0.2114 -0.7498
vn 0.6411 -0.0023 0.7675
vn -0.6411 0.0023 -0.7675
vn -0.6411 0.0023 0.7675
vn 0.6411 -0.0023 -0.7675
vn 0.5293 0.5668 -0.6313
vn 0.5293 0.5668 0.6313
vn -0.5253 0.5705 -0.6313
vn 0.6407 -0.0285 -0.7672
vn -0.6409 -0.0240 0.7672
vn -0.6409 -0.0240 -0.7672
vn 0.6407 -0.0285 0.7672
vn 0.6411 0.0018 -0.7675
vn -0.6410 0.0064 0.7675
vn -0.6410 0.0064 -0.7675
vn 0.6411 0.0018 0.7675
vn 0.4651 -0.8853 0.0000
vn -0.8245 0.5658 -0.0000
vn 0.0003 -0.0000 1.0000
vn 0.0038 1.0000 0.0000
vn 0.0003 -0.0000 -1.0000
vn -0.6662 0.0024 0.7458
vn 0.2277 -0.0281 -0.9733
vn 0.0681 -0.0067 -0.9977
vn 0.4149 -0.9099 0.0000
vn 0.1737 -0.9848 -0.0000
vn 0.6474 0.7622 0.0000
vn 0.2225 0.9749 -0.0000
vn 0.2273 -0.0280 0.9734
vn 0.0681 -0.0067 0.9977
vn -0.2376 -0.9714 -0.0000
vn -0.3465 -0.1681 0.9229
vn -0.3693 0.9293 0.0000
vn -0.3493 -0.1679 -0.9218
vn 0.7016 0.7125 0.0000
vn -0.6665 0.0024 -0.7455
vn -0.8317 -0.5552 0.0000
vn 0.3982 -0.0014 0.9173
vn 0.3982 -0.0014 -0.9173
vn 0.4713 0.8820 0.0000
vn -0.2282 -0.6794 -0.6973
vn -0.2280 -0.6795 0.6974
vn -0.2214 0.6815 0.6975
vn -0.2216 0.6815 -0.6975
vn -0.0021 -0.7001 0.7141
vn 0.0029 0.7001 0.7141
vn 0.0029 0.7001 -0.7141
vn -0.0021 -0.7001 -0.7141
vn 0.5658 0.5760 0.5900
vn 0.5658 0.5760 -0.5900
vn 0.5618 -0.5799 -0.5900
vn 0.5618 -0.5799 0.5900
vn -0.0033 -1.0000 0.0000
vn -0.4838 0.8752 0.0000
vn -0.2066 -0.1707 -0.9634
vn -0.0956 -0.9954 0.0000
vn -0.2063 -0.1710 0.9634
vn -0.0971 -0.0641 -0.9932
vn -0.4179 0.9085 0.0001
vn -0.0932 -0.0636 0.9936
vn -0.4721 -0.8816 -0.0000
vn 1.0000 -0.0035 0.0000
vn 0.6252 -0.0022 -0.7805
vn 0.7078 0.4929 -0.5060
vn 0.7078 0.4929 0.5060
vn 0.7043 -0.4979 -0.5060
vn 0.6252 -0.0022 0.7805
vn 0.6966 -0.7175 0.0000
vn 0.7043 -0.4979 0.5060
vn 0.4885 -0.6450 0.5876
vn -0.4931 -0.6416 -0.5876
vn -0.4931 -0.6416 0.5876
vn 0.4885 -0.6450 -0.5876
vn -0.6346 0.1382 -0.7604
vn -0.6255 0.2158 -0.7498
vn 0.6270 0.2114 0.7498
vn -0.6255 0.2158 0.7498
vn 0.6356 0.1337 0.7604
vn -0.6346 0.1382 0.7604
vn 0.6356 0.1337 -0.7604
vn -0.0035 -1.0000 0.0000
vn -0.6409 0.0206 -0.7674
vn 0.6410 0.0161 0.7674
vn 0.6410 0.0161 -0.7674
vn -0.6409 0.0206 0.7674
usemtl Low_Poly_Image_Texture.034
s off
f 9/1/1 14/2/1 15/3/1 10/4/1
f 13/5/2 12/6/2 11/7/2 16/8/2
f 1/9/3 3/10/3 9/1/3 10/4/3
f 2/11/4 1/9/4 10/4/4 11/7/4
f 4/12/5 2/11/5 11/7/5 12/6/5
f 3/10/6 4/12/6 12/6/6 9/1/6
f 8/13/7 7/14/7 14/2/7 13/5/7
f 7/14/8 5/15/8 15/3/8 14/2/8
f 6/16/9 8/13/9 13/5/9 16/8/9
f 5/15/10 6/16/10 16/8/10 15/3/10
f 112/17/11 111/18/11 21/19/11 24/20/11
f 6/16/12 5/15/12 104/21/12 105/22/12
f 56/23/13 54/24/13 20/25/13 19/26/13
f 57/27/14 55/28/14 18/29/14 17/30/14
f 54/24/15 57/27/15 17/30/15 20/25/15
f 55/28/16 56/23/16 19/26/16 18/29/16
f 22/31/16 23/32/16 109/33/16 108/34/16
f 114/35/17 113/36/17 23/32/17 22/31/17
f 113/36/18 112/17/18 24/20/18 23/32/18
f 111/18/19 114/35/19 22/31/19 21/19/19
f 1/9/20 2/11/20 26/37/20 27/38/20
f 4/12/21 3/10/21 28/39/21 25/40/21
f 3/10/22 1/9/22 27/38/22 28/39/22
f 2/11/23 4/12/23 25/40/23 26/37/23
f 101/41/16 98/42/16 31/43/16 30/44/16
f 100/45/15 99/46/15 32/47/15 29/48/15
f 99/46/14 101/41/14 30/44/14 32/47/14
f 98/42/13 100/45/13 29/48/13 31/43/13
f 30/44/24 31/43/24 35/49/24 34/50/24
f 29/48/25 32/47/25 36/51/25 33/52/25
f 32/47/26 30/44/26 34/50/26 36/51/26
f 31/43/27 29/48/27 33/52/27 35/49/27
f 72/53/28 71/54/28 78/55/28 81/56/28
f 41/57/29 39/58/29 66/59/29 65/60/29 67/61/29 69/62/29
f 64/63/30 62/64/30 73/65/30 74/66/30
f 67/61/31 65/60/31 75/67/31 76/68/31
f 58/69/32 68/70/32 77/71/32 70/72/32
f 39/58/33 38/73/33 63/74/33 62/64/33 64/63/33 66/59/33
f 10/4/34 15/3/34 42/75/34 43/76/34
f 43/76/35 42/75/35 41/57/35 44/77/35
f 11/7/36 10/4/36 43/76/36 37/78/36
f 37/78/37 43/76/37 44/77/37 38/73/37
f 15/3/38 16/8/38 40/79/38 42/75/38
f 42/75/39 40/79/39 39/58/39 41/57/39
f 16/8/40 11/7/40 37/78/40 40/79/40
f 40/79/41 37/78/41 38/73/41 39/58/41
f 89/80/42 87/81/42 48/82/42 47/83/42
f 87/81/43 86/84/43 46/85/43 48/82/43
f 86/84/44 88/86/44 45/87/44 46/85/44
f 88/86/45 89/80/45 47/83/45 45/87/45
f 85/88/46 82/89/46 91/90/46 92/91/46
f 44/77/47 41/57/47 69/62/47 68/70/47 58/69/47 60/92/47
f 38/73/48 44/77/48 60/92/48 59/93/48 61/94/48 63/74/48
f 74/95/49 73/96/49 80/97/49 83/98/49
f 70/99/50 77/100/50 84/101/50 79/102/50
f 76/103/51 75/104/51 82/89/51 85/88/51
f 34/50/16 35/49/16 52/105/16 51/106/16
f 33/52/15 36/51/15 53/107/15 50/108/15
f 36/51/14 34/50/14 51/106/14 53/107/14
f 35/49/13 33/52/13 50/108/13 52/105/13
f 51/109/16 52/110/16 56/111/16 55/112/16
f 50/113/15 53/114/15 57/115/15 54/116/15
f 53/114/14 51/109/14 55/112/14 57/115/14
f 52/110/13 50/113/13 54/116/13 56/111/13
f 58/69/52 59/93/52 60/92/52
f 61/94/53 62/64/53 63/74/53
f 64/63/54 65/60/54 66/59/54
f 67/61/55 68/70/55 69/62/55
f 61/94/56 72/117/56 73/65/56 62/64/56
f 75/67/57 65/60/57 64/63/57 74/66/57
f 77/71/58 68/70/58 67/61/58 76/68/58
f 71/118/59 59/93/59 58/69/59 70/72/59
f 74/95/60 83/98/60 82/89/60 75/104/60
f 84/101/61 77/100/61 76/103/61 85/88/61
f 78/55/62 71/54/62 70/99/62 79/102/62
f 80/97/63 73/96/63 72/53/63 81/56/63
f 61/94/64 59/93/64 71/118/64 72/117/64
f 46/85/65 45/87/65 49/119/65
f 45/87/66 47/83/66 49/119/66
f 47/83/67 48/82/67 49/119/67
f 48/82/68 46/85/68 49/119/68
f 14/2/69 9/1/69 89/80/69 88/86/69
f 13/5/70 14/2/70 88/86/70 86/84/70
f 12/6/71 13/5/71 86/84/71 87/81/71
f 9/1/72 12/6/72 87/81/72 89/80/72
f 93/120/73 92/91/73 91/90/73 90/121/73 97/122/73 96/123/73 95/124/73 94/125/73
f 79/102/74 84/101/74 93/120/74 94/125/74
f 84/101/75 85/88/75 92/91/75 93/120/75
f 82/89/76 83/98/76 90/121/76 91/90/76
f 78/55/77 79/102/77 94/125/77 95/124/77
f 83/98/78 80/97/78 97/122/78 90/121/78
f 81/56/79 78/55/79 95/124/79 96/123/79
f 80/97/80 81/56/80 96/123/80 97/122/80
f 26/37/81 25/40/81 100/126/81 98/127/81
f 28/39/82 27/38/82 101/128/82 99/129/82
f 25/40/83 28/39/83 99/129/83 100/126/83
f 27/38/84 26/37/84 98/127/84 101/128/84
f 104/21/85 103/130/85 106/131/85
f 5/15/86 7/14/86 103/130/86 104/21/86
f 8/13/87 6/16/87 105/22/87 102/132/87
f 7/14/88 8/13/88 102/132/88 103/130/88
f 102/132/89 105/22/89 106/131/89
f 103/130/90 102/132/90 106/131/90
f 105/22/91 104/21/91 106/131/91
f 108/34/92 109/33/92 110/133/92 107/134/92
f 23/32/13 24/20/13 110/133/13 109/33/13
f 21/19/14 22/31/14 108/34/14 107/134/14
f 24/20/15 21/19/15 107/134/15 110/133/15
f 17/30/93 18/29/93 114/135/93 111/136/93
f 19/26/94 20/25/94 112/137/94 113/138/94
f 18/29/95 19/26/95 113/138/95 114/135/95
f 20/25/96 17/30/96 111/136/96 112/137/96
