# Blender v2.80 (sub 74) OBJ File: 'untitled.blend'
# www.blender.org
mtllib Halberd.mtl
o Halberd_Cylinder.012
v -0.002763 0.084445 0.043035
v 0.004879 2.257432 0.028977
v -0.048748 0.084599 -0.005317
v -0.002763 0.084431 -0.044435
v 0.004873 2.257485 -0.033206
v 0.043222 0.084275 -0.005317
v 0.004831 2.226967 -0.023621
v 0.006791 2.797702 -0.005753
v -0.021481 2.226186 -0.005101
v 0.004843 2.227300 0.015950
v 0.005218 2.350877 -0.026975
v 0.047997 2.384921 -0.005094
v -0.146426 2.346129 -0.004986
v 0.005218 2.350884 0.021060
v 0.030961 2.226133 -0.005250
v -0.021299 2.193928 -0.005656
v 0.004665 2.193832 -0.027743
v 0.030629 2.193745 -0.005656
v 0.004665 2.193841 0.021644
v -0.021495 2.138339 -0.005647
v 0.004469 2.138244 -0.027734
v 0.030433 2.138156 -0.005647
v 0.004469 2.138252 0.021653
v -0.028661 2.224124 -0.005565
v -0.028752 2.196359 -0.005656
v 0.004771 2.223958 0.029250
v 0.004771 2.223977 -0.033995
v 0.038201 2.223876 -0.005577
v 0.004673 2.196247 0.029489
v 0.004673 2.196236 -0.034091
v 0.038099 2.196123 -0.005656
v -0.022853 1.752556 -0.005585
v 0.003111 1.752461 -0.027672
v 0.029075 1.752374 -0.005585
v 0.003111 1.752469 0.021715
v 0.003116 1.753959 0.026760
v 0.004464 2.136765 0.026698
v 0.004464 2.136755 -0.031816
v 0.035227 2.136651 -0.005647
v -0.026299 2.136868 -0.005647
v -0.027647 1.754062 -0.005585
v 0.003116 1.753949 -0.031754
v 0.033879 1.753845 -0.005585
v -0.026925 0.596139 -0.005399
v -0.000961 0.596044 -0.027486
v 0.025003 0.595956 -0.005399
v -0.000961 0.596052 0.021901
v -0.002883 0.050443 0.043040
v -0.048868 0.050597 -0.005311
v -0.002882 0.050429 -0.044430
v 0.043102 0.050273 -0.005311
v -0.002994 0.018866 0.013276
v -0.020667 0.018925 -0.005306
v -0.002994 0.018861 -0.020340
v 0.014679 0.018801 -0.005306
v -0.003225 -0.046742 -0.005296
v -0.040715 0.160729 -0.005329
v -0.002495 0.160589 -0.037842
v 0.035726 0.160460 -0.005329
v -0.002495 0.160601 0.034858
v 0.000729 1.076040 0.021824
v -0.025235 1.076127 -0.005476
v 0.000729 1.076032 -0.027563
v 0.026693 1.075944 -0.005476
v -0.027269 1.076134 -0.005476
v -0.028959 0.596146 -0.005399
v -0.000961 0.596044 -0.029216
v 0.000729 1.076031 -0.029294
v 0.028727 1.075937 -0.005476
v 0.027037 0.595949 -0.005399
v -0.000961 0.596052 0.024040
v 0.000729 1.076040 0.023963
v 0.058188 2.317714 -0.005676
v 0.170522 2.358555 -0.005683
v -0.095794 2.220617 -0.005446
v -0.001969 0.309868 0.030417
v -0.035988 0.309982 -0.005353
v -0.001969 0.309858 -0.034292
v 0.032050 0.309743 -0.005353
v 0.052633 2.255380 -0.004259
v -0.095384 2.474204 0.000952
v -0.102401 2.348628 -0.000282
v -0.102401 2.348627 -0.009206
v -0.095384 2.474202 -0.010710
v -0.123475 2.538070 -0.005332
v -0.064237 2.350635 0.005192
v -0.064237 2.350632 -0.013212
v -0.048923 2.244081 -0.012287
v -0.048923 2.244084 0.004102
v -0.044548 2.433606 0.004006
v -0.069185 2.441341 0.002568
v -0.069184 2.441339 -0.011642
v -0.044548 2.433603 -0.012359
v -0.075545 2.247984 0.001257
v -0.075545 2.247982 -0.011763
vt 0.848753 0.513549
vt 0.848753 0.513549
vt 0.848753 0.513549
vt 0.848753 0.513549
vt 0.848753 0.513549
vt 0.848753 0.513549
vt 0.848753 0.513549
vt 0.848753 0.513549
vt 0.842160 0.800493
vt 0.842160 0.800493
vt 0.842160 0.800493
vt 0.842160 0.800493
vt 0.848753 0.513549
vt 0.848753 0.513549
vt 0.848753 0.513549
vt 0.848753 0.513549
vt 0.842160 0.800493
vt 0.842160 0.800493
vt 0.842160 0.800493
vt 0.842160 0.800493
vt 0.842160 0.800493
vt 0.842160 0.800493
vt 0.842160 0.800493
vt 0.842160 0.800493
vt 0.842160 0.800493
vt 0.842160 0.800493
vt 0.848753 0.513549
vt 0.848753 0.513549
vt 0.848753 0.513549
vt 0.848753 0.513549
vt 0.848753 0.513549
vt 0.848753 0.513549
vt 0.848753 0.513549
vt 0.848753 0.513549
vt 0.842160 0.800493
vt 0.842160 0.800493
vt 0.842160 0.800493
vt 0.842160 0.800493
vt 0.842160 0.800493
vt 0.842160 0.800493
vt 0.842160 0.800493
vt 0.842160 0.800493
vt 0.842160 0.800493
vt 0.842160 0.800493
vt 0.842160 0.800493
vt 0.842160 0.800493
vt 0.842160 0.800493
vt 0.842160 0.800493
vt 0.842160 0.800493
vt 0.842160 0.800493
vt 0.842160 0.800493
vt 0.842160 0.800493
vt 0.212248 0.820682
vt 0.212248 0.820682
vt 0.212248 0.820682
vt 0.212248 0.820682
vt 0.212248 0.820682
vt 0.212248 0.820682
vt 0.212248 0.820682
vt 0.212248 0.820682
vt 0.212248 0.820682
vt 0.212248 0.820682
vt 0.212248 0.820682
vt 0.212248 0.820682
vt 0.212248 0.820682
vt 0.212248 0.820682
vt 0.212248 0.820682
vt 0.212248 0.820682
vt 0.848753 0.513549
vt 0.848753 0.513549
vt 0.848753 0.513549
vt 0.848753 0.513549
vt 0.848753 0.513549
vt 0.848753 0.513549
vt 0.848753 0.513549
vt 0.848753 0.513549
vt 0.848753 0.513549
vt 0.842160 0.800493
vt 0.842160 0.800493
vt 0.842160 0.800493
vt 0.842160 0.800493
vt 0.842160 0.800493
vt 0.842160 0.800493
vt 0.842160 0.800493
vt 0.842160 0.800493
vt 0.504913 0.864008
vt 0.504913 0.864008
vt 0.504913 0.864008
vt 0.504913 0.864008
vt 0.504913 0.864008
vt 0.504913 0.864008
vt 0.504913 0.864008
vt 0.504913 0.864008
vt 0.504913 0.864008
vt 0.504913 0.864008
vt 0.504913 0.864008
vt 0.504913 0.864008
vt 0.504913 0.864008
vt 0.504913 0.864008
vt 0.504913 0.864008
vt 0.504913 0.864008
vt 0.842160 0.800493
vt 0.842160 0.800493
vt 0.842160 0.800493
vt 0.842160 0.800493
vt 0.848753 0.513549
vt 0.848753 0.513549
vt 0.848753 0.513549
vt 0.848753 0.513549
vt 0.848753 0.513549
vt 0.848753 0.513549
vt 0.848753 0.513549
vt 0.848753 0.513549
vt 0.848753 0.513549
vt 0.848753 0.513549
vt 0.848753 0.513549
vt 0.848753 0.513549
vt 0.848753 0.513549
vt 0.848753 0.513549
vt 0.848753 0.513549
vt 0.848753 0.513549
vt 0.848753 0.513549
vt 0.848753 0.513549
vt 0.848753 0.513549
vt 0.848753 0.513549
vt 0.848753 0.513549
vt 0.848753 0.513549
vn 0.5194 0.0315 0.8539
vn 0.6479 -0.0024 -0.7617
vn 0.2854 -0.8964 -0.3391
vn 0.4914 0.0504 0.8695
vn 0.0932 0.4528 -0.8867
vn -0.2303 0.9318 -0.2805
vn 0.2614 0.9304 0.2571
vn 0.2913 -0.9147 0.2802
vn -0.2505 0.9347 0.2521
vn -0.7246 0.0027 0.6892
vn -0.6479 0.0022 -0.7617
vn 0.7246 -0.0024 0.6892
vn -0.2766 0.9029 -0.3290
vn -0.2884 -0.9183 0.2714
vn 0.2766 -0.9030 -0.3288
vn 0.2884 0.9183 0.2711
vn 0.6478 0.0001 -0.7618
vn 0.7230 -0.0006 0.6908
vn -0.6479 0.0048 -0.7617
vn -0.7229 0.0043 0.6909
vn -0.2977 -0.9126 0.2803
vn -0.2917 -0.8944 -0.3391
vn 0.2429 0.9255 -0.2907
vn -0.2829 -0.9010 -0.3287
vn -0.2820 0.9203 0.2711
vn 0.2830 0.9009 -0.3290
vn 0.2819 -0.9203 0.2714
vn 0.6479 0.0158 -0.7616
vn 0.7245 0.0180 0.6890
vn -0.6478 0.0204 -0.7616
vn -0.7244 0.0231 0.6890
vn 0.6377 -0.1743 -0.7503
vn -0.6095 -0.5426 0.5780
vn 0.5585 -0.5045 -0.6585
vn -0.5620 -0.5005 -0.6585
vn 0.6057 -0.5469 0.5780
vn -0.6389 -0.1698 -0.7503
vn 0.7105 -0.1940 0.6764
vn -0.7119 -0.1890 0.6764
vn -0.7224 0.0763 0.6873
vn -0.6463 0.0681 -0.7600
vn 0.7229 0.0712 0.6873
vn 0.6468 0.0635 -0.7600
vn -0.0035 -1.0000 0.0002
vn 0.0035 1.0000 -0.0001
vn 0.0035 1.0000 -0.0002
vn 0.1630 -0.4482 0.8790
vn 0.1141 0.5112 0.8519
vn 0.1356 -0.3730 -0.9179
vn 0.4287 0.0414 -0.9025
vn 0.5393 -0.3751 0.7540
vn 0.5059 -0.3001 -0.8087
vn -0.3147 0.0088 0.9491
vn -0.3224 -0.4676 -0.8231
vn -0.1267 0.0062 -0.9919
vn -0.9902 0.1396 -0.0000
vn -0.1060 0.0074 0.9943
vn -0.1418 0.0106 0.9898
vn 0.9154 0.4026 -0.0001
vn -0.1280 -0.0239 0.9915
vn 0.7819 0.6234 -0.0001
vn 0.8039 -0.5948 0.0001
vn -0.0760 0.0010 -0.9971
vn -0.2086 0.0471 -0.9769
vn -0.5462 -0.8376 0.0001
vn -0.3395 -0.5477 0.7647
vn -0.2714 0.0052 -0.9625
vn -0.1450 -0.9894 0.0002
vn -0.1451 -0.0365 -0.9887
vn -0.0699 -0.0064 -0.9975
vn -0.1530 -0.0477 0.9871
vn -0.1763 0.0559 0.9827
vn -0.1484 0.0454 -0.9879
vn 0.2996 0.9541 -0.0001
vn -0.2344 0.0591 0.9704
vn 0.4493 0.0106 -0.8933
usemtl Low_Poly_Image_Texture.018
s off
f 73/1/1 14/2/1 2/3/1 80/4/1
f 4/5/2 6/6/2 51/7/2 50/8/2
f 18/9/3 17/10/3 30/11/3 31/12/3
f 14/2/4 12/13/4 8/14/4
f 11/15/5 12/13/5 74/16/5
f 9/17/6 7/18/6 27/19/6 24/20/6
f 15/21/7 10/22/7 26/23/7 28/24/7
f 19/25/8 18/9/8 31/12/8 29/26/8
f 10/22/9 9/17/9 24/20/9 26/23/9
f 23/27/10 19/28/10 16/29/10 20/30/10
f 20/30/11 16/29/11 17/31/11 21/32/11
f 22/33/12 18/34/12 19/28/12 23/27/12
f 21/32/2 17/31/2 18/34/2 22/33/2
f 20/35/13 21/36/13 38/37/13 40/38/13
f 32/39/14 35/40/14 36/41/14 41/42/14
f 34/43/15 33/44/15 42/45/15 43/46/15
f 22/47/16 23/48/16 37/49/16 39/50/16
f 30/11/17 27/19/17 28/24/17 31/12/17
f 31/12/18 28/24/18 26/23/18 29/26/18
f 25/51/19 24/20/19 27/19/19 30/11/19
f 29/26/20 26/23/20 24/20/20 25/51/20
f 16/52/21 19/25/21 29/26/21 25/51/21
f 17/10/22 16/52/22 25/51/22 30/11/22
f 7/18/23 15/21/23 28/24/23 27/19/23
f 61/53/10 35/54/10 32/55/10 62/56/10
f 62/56/11 32/55/11 33/57/11 63/58/11
f 64/59/12 34/60/12 35/54/12 61/53/12
f 63/58/2 33/57/2 34/60/2 64/59/2
f 42/45/2 38/37/2 39/50/2 43/46/2
f 43/46/12 39/50/12 37/49/12 36/41/12
f 41/42/11 40/38/11 38/37/11 42/45/11
f 36/41/10 37/49/10 40/38/10 41/42/10
f 33/44/24 32/39/24 41/42/24 42/45/24
f 23/48/25 20/35/25 40/38/25 37/49/25
f 21/36/26 22/47/26 39/50/26 38/37/26
f 35/40/27 34/43/27 43/46/27 36/41/27
f 78/61/28 45/62/28 46/63/28 79/64/28
f 79/64/29 46/63/29 47/65/29 76/66/29
f 77/67/30 44/68/30 45/62/30 78/61/30
f 76/66/31 47/65/31 44/68/31 77/67/31
f 3/69/11 4/5/11 50/8/11 49/70/11
f 6/6/12 1/71/12 48/72/12 51/7/12
f 1/71/10 3/69/10 49/70/10 48/72/10
f 54/73/32 55/74/32 56/75/32
f 48/72/33 49/70/33 53/76/33 52/77/33
f 50/8/34 51/7/34 55/74/34 54/73/34
f 49/70/35 50/8/35 54/73/35 53/76/35
f 51/7/36 48/72/36 52/77/36 55/74/36
f 53/76/37 54/73/37 56/75/37
f 55/74/38 52/77/38 56/75/38
f 52/77/39 53/76/39 56/75/39
f 1/78/40 60/79/40 57/80/40 3/81/40
f 3/81/41 57/80/41 58/82/41 4/83/41
f 6/84/42 59/85/42 60/79/42 1/78/42
f 4/83/43 58/82/43 59/85/43 6/84/43
f 46/86/44 45/87/44 67/88/44 70/89/44
f 44/90/44 47/91/44 71/92/44 66/93/44
f 62/94/45 63/95/45 68/96/45 65/97/45
f 67/88/2 68/96/2 69/98/2 70/89/2
f 70/89/12 69/98/12 72/99/12 71/92/12
f 66/93/11 65/97/11 68/96/11 67/88/11
f 71/92/10 72/99/10 65/97/10 66/93/10
f 61/100/46 62/94/46 65/97/46 72/99/46
f 63/95/46 64/101/46 69/98/46 68/96/46
f 47/91/44 46/86/44 70/89/44 71/92/44
f 64/101/45 61/100/45 72/99/45 69/98/45
f 45/87/44 44/90/44 66/93/44 67/88/44
f 73/1/47 74/16/47 14/2/47
f 12/13/48 14/2/48 74/16/48
f 60/79/31 76/102/31 77/103/31 57/80/31
f 57/80/30 77/103/30 78/104/30 58/82/30
f 59/85/29 79/105/29 76/102/29 60/79/29
f 58/82/28 78/104/28 79/105/28 59/85/28
f 73/1/49 11/15/49 74/16/49
f 8/14/50 12/13/50 11/15/50
f 15/106/51 80/4/51 2/3/51 10/107/51
f 7/108/52 5/109/52 80/4/52 15/106/52
f 2/3/53 14/2/53 86/110/53 89/111/53
f 9/112/54 88/113/54 5/109/54 7/108/54
f 13/114/55 85/115/55 84/116/55 83/117/55
f 90/118/56 8/14/56 93/119/56
f 86/110/57 91/120/57 81/121/57 82/122/57
f 85/115/58 13/114/58 82/122/58 81/121/58
f 81/121/59 84/116/59 85/115/59
f 82/122/60 94/123/60 89/111/60 86/110/60
f 81/121/61 91/120/61 92/124/61 84/116/61
f 75/125/62 95/126/62 94/123/62
f 87/127/63 83/117/63 84/116/63 92/124/63
f 11/15/64 93/119/64 8/14/64
f 88/113/65 9/112/65 89/111/65
f 10/107/66 2/3/66 89/111/66 9/112/66
f 5/109/67 88/113/67 87/127/67 11/15/67
f 88/113/68 89/111/68 94/123/68 95/126/68
f 13/114/69 83/117/69 95/126/69 75/125/69
f 88/113/70 95/126/70 83/117/70 87/127/70
f 94/123/71 82/122/71 13/114/71 75/125/71
f 90/118/72 91/120/72 86/110/72 14/2/72
f 92/124/73 93/119/73 11/15/73 87/127/73
f 92/124/74 91/120/74 90/118/74 93/119/74
f 14/2/75 8/14/75 90/118/75
f 11/15/76 73/1/76 80/4/76 5/109/76
