# Blender 3.4.1
# www.blender.org
mtllib Grass 001.mtl
o Grass_001
v 0.249061 0.001390 0.159654
v 0.100655 0.837274 -0.026159
v 0.196672 -0.010578 -0.035246
v 0.104053 0.836494 -0.034946
v 0.055798 -0.006318 -0.092975
v 0.095563 0.833262 -0.037667
v -0.014554 -0.001272 -0.010752
v -0.124280 0.940721 -0.224422
v -0.100328 0.001523 -0.186518
v -0.127273 0.940879 -0.233169
v -0.297797 0.004304 -0.153526
v -0.136078 0.940970 -0.230355
v -0.136992 0.000340 -0.013547
v -0.074474 1.113056 0.027726
v -0.010061 0.000593 0.141571
v -0.069863 1.113059 0.035812
v 0.168589 0.002518 0.072596
v -0.061777 1.113141 0.031325
v -0.102155 0.230630 0.009558
v -0.074400 0.470401 0.035744
v -0.076108 0.652437 0.047057
v -0.087031 0.787467 0.046507
v -0.089529 0.924732 0.036524
v -0.028389 0.925485 0.053741
v 0.021775 0.789239 0.076801
v 0.080122 0.655402 0.090441
v 0.130506 0.473564 0.092974
v 0.154209 0.235996 0.081925
v -0.064692 0.924666 0.069052
v -0.042984 0.786834 0.102566
v -0.012607 0.650713 0.127037
v 0.009896 0.468530 0.141018
v 0.004045 0.231113 0.140212
v 0.230818 0.195501 0.131441
v 0.194614 0.353724 0.117575
v 0.147982 0.475892 0.091486
v 0.114516 0.566936 0.053319
v 0.112492 0.668807 0.018740
v 0.082810 0.654436 -0.034511
v 0.052474 0.546201 -0.035084
v 0.043673 0.452985 -0.034366
v 0.054524 0.332805 -0.047309
v 0.059695 0.181914 -0.075210
v 0.112411 0.661291 -0.020642
v 0.104017 0.552060 -0.014699
v 0.118776 0.457838 -0.008141
v 0.153244 0.336009 -0.012070
v 0.179903 0.180815 -0.029693
v -0.033132 0.222228 -0.020688
v -0.043763 0.439429 -0.045358
v -0.055072 0.606970 -0.092440
v -0.074279 0.694904 -0.153456
v -0.099510 0.780012 -0.203173
v -0.156045 0.779577 -0.232607
v -0.174488 0.689278 -0.207651
v -0.199135 0.600091 -0.171790
v -0.233487 0.441430 -0.148250
v -0.269296 0.225965 -0.144175
v -0.115802 0.779096 -0.239830
v -0.102627 0.688140 -0.218797
v -0.095746 0.596692 -0.186681
v -0.098408 0.435177 -0.167918
v -0.102862 0.220765 -0.170274
vn -0.2932 0.9356 -0.1964
vn -0.0620 -0.9950 0.0778
vn 0.4099 -0.0500 -0.9108
vn 0.9960 0.0683 0.0568
vn -0.8868 0.0656 0.4575
vn 0.0145 0.9998 0.0131
vn -0.0155 -0.9998 -0.0083
vn -0.2000 0.0323 -0.9793
vn 0.9165 0.0853 -0.3907
vn -0.4593 0.0455 0.8871
vn -0.0079 1.0000 0.0041
vn 0.0087 -0.9999 -0.0055
vn 0.3982 0.1741 0.9006
vn -0.8065 0.0864 0.5849
vn 0.2714 -0.0665 -0.9602
vn 0.2704 0.0553 -0.9612
vn 0.2685 0.0726 -0.9605
vn 0.2669 0.0614 -0.9618
vn 0.2675 0.0181 -0.9634
vn 0.2696 -0.0642 -0.9608
vn -0.7739 0.0524 0.6312
vn -0.7778 0.0192 0.6282
vn -0.7813 -0.0474 0.6224
vn -0.7835 -0.0623 0.6183
vn -0.7890 0.0276 0.6137
vn 0.3612 -0.0158 0.9324
vn 0.3658 -0.0095 0.9306
vn 0.3618 0.1144 0.9252
vn 0.3478 0.2422 0.9058
vn 0.3542 0.2772 0.8931
vn -0.7831 -0.0124 0.6218
vn -0.7541 -0.1302 0.6437
vn -0.7471 -0.1420 0.6494
vn -0.7919 0.0228 0.6102
vn -0.8447 0.1945 0.4987
vn 0.9566 0.0703 -0.2828
vn 0.9294 0.1902 -0.3162
vn 0.9069 0.2722 -0.3216
vn 0.9478 0.1838 -0.2606
vn 0.9950 -0.0470 -0.0882
vn 0.3681 0.0694 -0.9272
vn 0.3394 0.1728 -0.9246
vn 0.3255 0.1263 -0.9371
vn 0.3472 -0.0254 -0.9375
vn 0.3996 -0.0937 -0.9119
vn -0.4560 0.0113 0.8899
vn -0.4667 0.0856 0.8802
vn -0.4701 0.2184 0.8552
vn -0.4481 0.4395 0.7785
vn -0.4537 0.3341 0.8261
vn 0.9012 0.0491 -0.4305
vn 0.9096 -0.0085 -0.4155
vn 0.9154 -0.0557 -0.3987
vn 0.9183 -0.0688 -0.3898
vn 0.9144 0.0375 -0.4030
vn -0.1585 0.0665 -0.9851
vn -0.1497 0.0101 -0.9887
vn -0.1470 -0.1128 -0.9827
vn -0.1469 -0.3357 -0.9304
vn -0.1604 -0.2384 -0.9578
vt 0.812861 0.593800
vt 0.141564 0.460197
vt 0.647351 0.005931
vt 0.160005 0.287462
vt 0.976467 0.006374
vt 0.329248 0.886698
vt 0.759152 0.723853
vt 0.647351 0.146638
vt 0.765212 0.139063
vt 0.153426 0.287462
vt 0.982833 0.282916
vt 0.969903 0.005931
vt 0.812861 0.815236
vt 0.141564 0.238762
vt 0.659214 0.139063
vt 0.153604 0.280864
vt 0.988882 0.280278
vt 0.320064 0.886304
vt 0.721917 0.183468
vt 0.335854 0.226721
vt 0.142062 0.627660
vt 0.157929 0.269002
vt 0.976112 0.827811
vt 0.128611 0.802898
vt 0.639552 0.291854
vt 0.005931 0.627660
vt 0.319935 0.590692
vt 0.153426 0.264405
vt 0.978550 0.416130
vt 0.969680 0.827603
vt 0.721917 0.404257
vt 0.335854 0.005931
vt 0.180584 0.590692
vt 0.157929 0.259810
vt 0.972117 0.416120
vt 0.137801 0.802667
vt 0.813721 0.183289
vt 0.168722 0.226900
vt 0.359265 0.238583
vt 0.157965 0.247947
vt 0.337011 0.602554
vt 0.116708 0.639522
vt 0.733779 0.297605
vt 0.498672 0.243520
vt 0.492552 0.578741
vt 0.153426 0.243325
vt 0.947073 0.556384
vt 0.330533 0.602618
vt 0.813721 0.404257
vt 0.168722 0.005931
vt 0.359265 0.578741
vt 0.157965 0.238762
vt 0.940636 0.556341
vt 0.125893 0.639573
vt 0.008394 0.198102
vt 0.347403 0.424015
vt 0.381571 0.399943
vt 0.510535 0.236503
vt 0.180584 0.397118
vt 0.486550 0.738686
vt 0.533820 0.403864
vt 0.453136 0.877437
vt 0.359640 0.735830
vt 0.722346 0.868745
vt 0.449492 0.750548
vt 0.948175 0.510404
vt 0.628235 0.874452
vt 0.812861 0.828773
vt 0.948175 0.416120
vt 0.954576 0.279089
vt 0.338234 0.734177
vt 0.106730 0.770772
vt 0.812861 0.924573
vt 0.954576 0.183289
vt 0.928005 0.689311
vt 0.150939 0.770772
vt 0.768666 0.923454
vt 0.926866 0.828389
vt 0.628439 0.795837
vt 0.734264 0.827098
vt 0.845613 0.832564
vt 0.905757 0.928500
vt 0.359265 0.622965
vt 0.722346 0.755880
vt 0.797993 0.008656
vt 0.824724 0.932458
vt 0.181393 0.249037
vt 0.486550 0.590603
vt 0.641377 0.416120
vt 0.777074 0.138313
vt 0.005931 0.012687
vt 0.347403 0.238583
vt 0.369306 0.416120
vt 0.628235 0.581938
vt 0.955432 0.689311
vt 0.309751 0.734177
vt 0.926163 0.185290
vt 0.954281 0.827603
vt 0.898650 0.419189
vt 0.905104 0.282916
vt 0.893894 0.827603
vt 0.954281 0.927474
vt 0.378407 0.750748
vt 0.877265 0.515390
vt 0.867397 0.005931
vt 0.893894 0.926152
vt 0.627690 0.404257
vt 0.359265 0.877437
vt 0.731797 0.416875
vt 0.867397 0.134058
vt 0.498672 0.404257
vt 0.627690 0.238971
vt 0.481441 0.418388
vt 0.740392 0.581938
vt 0.005931 0.440167
vt 0.616372 0.603091
vt 0.510987 0.020153
vt 0.865402 0.416120
vt 0.504415 0.585213
vt 0.094867 0.790805
vt 0.752255 0.423310
vt 0.916143 0.593800
vt 0.005931 0.764298
vt 0.893242 0.298163
vt 0.824724 0.609761
vt 0.250112 0.896409
vt 0.825583 0.271984
vt 0.702835 0.962853
vt 0.180584 0.917122
vt 0.959424 0.385280
vt 0.984738 0.127712
vt 0.329248 0.765079
vt 0.628235 0.956330
vt 0.951247 0.310842
vt 0.988882 0.155485
vt 0.285675 0.766344
vt 0.629204 0.912749
vt 0.517309 0.908979
vt 0.829237 0.195533
vt 0.702835 0.886314
vt 0.295233 0.900246
vt 0.501505 0.985599
vt 0.011000 0.649536
vt 0.893242 0.183289
vt 0.898556 0.395811
vt 0.285675 0.964707
vt 0.511035 0.434075
vt 0.094867 0.639522
vt 0.008521 0.805235
vt 0.898556 0.311348
vt 0.010751 0.253259
vt 0.616372 0.416120
vt 0.662709 0.007496
vt 0.005931 0.912060
vt 0.966439 0.161538
vt 0.956835 0.127712
vt 0.923356 0.310026
vt 0.539819 0.903176
vt 0.183684 0.966029
vt 0.910419 0.385280
vt 0.333987 0.898561
vt 0.539819 0.979534
vt 0.828208 0.683019
vt 0.250112 0.969749
vt 0.843093 0.396429
vt 0.341142 0.964707
vt 0.756211 0.518739
vt 0.916143 0.689311
vt 0.081461 0.802667
vt 0.825583 0.310026
vt 0.513849 0.138170
vt 0.865402 0.534172
vt 0.752156 0.005931
vt 0.095392 0.912060
vt 0.180584 0.209352
vt 0.499125 0.191425
vt 0.127955 0.472060
vt 0.616372 0.766279
vt 0.347716 0.174813
vt 0.747289 0.744017
vt 0.599025 0.614953
vt 0.180584 0.765079
vt 0.628235 0.720397
vt 0.894369 0.815740
vt 0.202018 0.884546
vt 0.944973 0.005931
vt 0.824724 0.786129
vt 0.425437 0.968685
vt 0.879507 0.043900
vt 0.437299 0.889300
vt 0.994069 0.940521
vt 0.107255 0.915013
vt 0.360813 0.939739
vt 0.459266 0.956617
vt 0.960037 0.528665
vt 0.151616 0.915013
vt 0.359265 0.895405
vt 0.525348 0.158769
vt 0.825529 0.706748
vt 0.425437 0.889300
vt 0.907220 0.755403
vt 0.510987 0.223651
vt 0.633776 0.605965
vt 0.894369 0.701174
vt 0.522443 0.779086
vt 0.973760 0.773911
vt 0.348235 0.024597
vt 0.747289 0.593800
vt 0.201006 0.602554
vt 0.501505 0.891313
vt 0.181215 0.023859
vt 0.499125 0.005931
vt 0.196932 0.435877
vt 0.180584 0.753216
vt 0.988495 0.528665
vt 0.966143 0.940521
vt 0.486386 0.963277
vt 0.553804 0.158500
vt 0.879259 0.093693
vt 0.486386 0.897661
vt 0.906232 0.704796
vt 0.561605 0.223652
vt 0.273812 0.884546
vt 0.944973 0.077725
vt 0.595174 0.778141
vt 0.973760 0.701174
vt 0.505609 0.617070
vt 0.273812 0.771365
vt 0.296097 0.603962
vt 0.596606 0.891313
vt 0.013121 0.474815
vt 0.501505 0.766279
vt 0.314220 0.437784
vt 0.297888 0.753216
s 0
usemtl Grass.003
f 2/4/1 4/10/1 6/16/1
f 5/13/2 3/7/2 1/1/2
f 39/135/3 6/17/3 4/11/3 44/155/3
f 44/156/4 4/12/4 2/5/4 38/131/4
f 38/132/5 2/6/5 6/18/5 39/136/5
f 8/22/6 10/28/6 12/34/6
f 11/31/7 9/25/7 7/19/7
f 54/195/8 12/35/8 10/29/8 59/215/8
f 59/216/9 10/30/9 8/23/9 53/191/9
f 53/192/10 8/24/10 12/36/10 54/196/10
f 14/40/11 16/46/11 18/52/11
f 17/49/12 15/43/12 13/37/12
f 24/75/13 18/53/13 16/47/13 29/95/13
f 29/96/14 16/48/14 14/41/14 23/71/14
f 23/72/15 14/42/15 18/54/15 24/76/15
f 13/38/16 19/55/16 28/91/16 17/50/16
f 19/56/17 20/59/17 27/87/17 28/92/17
f 20/60/18 21/63/18 26/83/18 27/88/18
f 21/64/19 22/67/19 25/79/19 26/84/19
f 22/68/20 23/73/20 24/77/20 25/80/20
f 15/44/21 33/111/21 19/57/21 13/39/21
f 33/112/22 32/107/22 20/61/22 19/58/22
f 32/108/23 31/103/23 21/65/23 20/62/23
f 31/104/24 30/99/24 22/69/24 21/66/24
f 30/100/25 29/97/25 23/74/25 22/70/25
f 17/51/26 28/93/26 33/113/26 15/45/26
f 28/94/27 27/89/27 32/109/27 33/114/27
f 27/90/28 26/85/28 31/105/28 32/110/28
f 26/86/29 25/81/29 30/101/29 31/106/29
f 25/82/30 24/78/30 29/98/30 30/102/30
f 1/2/31 34/115/31 43/151/31 5/14/31
f 34/116/32 35/119/32 42/147/32 43/152/32
f 35/120/33 36/123/33 41/143/33 42/148/33
f 36/124/34 37/127/34 40/139/34 41/144/34
f 37/128/35 38/133/35 39/137/35 40/140/35
f 3/8/36 48/171/36 34/117/36 1/3/36
f 48/172/37 47/167/37 35/121/37 34/118/37
f 47/168/38 46/163/38 36/125/38 35/122/38
f 46/164/39 45/159/39 37/129/39 36/126/39
f 45/160/40 44/157/40 38/134/40 37/130/40
f 5/15/41 43/153/41 48/173/41 3/9/41
f 43/154/42 42/149/42 47/169/42 48/174/42
f 42/150/43 41/145/43 46/165/43 47/170/43
f 41/146/44 40/141/44 45/161/44 46/166/44
f 40/142/45 39/138/45 44/158/45 45/162/45
f 7/20/46 49/175/46 58/211/46 11/32/46
f 49/176/47 50/179/47 57/207/47 58/212/47
f 50/180/48 51/183/48 56/203/48 57/208/48
f 51/184/49 52/187/49 55/199/49 56/204/49
f 52/188/50 53/193/50 54/197/50 55/200/50
f 9/26/51 63/231/51 49/177/51 7/21/51
f 63/232/52 62/227/52 50/181/52 49/178/52
f 62/228/53 61/223/53 51/185/53 50/182/53
f 61/224/54 60/219/54 52/189/54 51/186/54
f 60/220/55 59/217/55 53/194/55 52/190/55
f 11/33/56 58/213/56 63/233/56 9/27/56
f 58/214/57 57/209/57 62/229/57 63/234/57
f 57/210/58 56/205/58 61/225/58 62/230/58
f 56/206/59 55/201/59 60/221/59 61/226/59
f 55/202/60 54/198/60 59/218/60 60/222/60
