# Blender 3.4.1
# www.blender.org
mtllib Grass 002.mtl
o Grass_002
v -0.030430 0.009652 0.310720
v 0.305601 1.159136 0.220818
v 0.160520 0.001377 0.243635
v 0.314965 1.159445 0.222074
v 0.204956 0.005657 0.098034
v 0.315999 1.158322 0.212716
v -0.273095 0.001349 -0.255482
v -0.231300 1.324365 -0.016849
v -0.288465 0.004849 -0.060766
v -0.233183 1.324523 -0.007798
v -0.101914 0.007346 0.011574
v -0.224173 1.324615 -0.005732
v 0.257300 0.021850 0.167363
v 0.441811 1.215634 -0.083348
v 0.261276 0.005405 -0.032015
v 0.446195 1.214969 -0.091181
v 0.167714 0.004763 -0.135337
v 0.438085 1.214921 -0.095964
v -0.127113 -0.000003 0.055941
v -0.245990 1.198639 0.179467
v -0.243227 0.003408 0.219484
v -0.252727 1.198811 0.186086
v -0.129460 0.004653 0.373732
v -0.246069 1.198796 0.192655
v 0.099622 0.007934 -0.307252
v -0.009623 1.408361 -0.229528
v -0.049302 0.007523 -0.224598
v -0.018633 1.408331 -0.226738
v -0.054456 0.003070 -0.029954
v -0.016036 1.408156 -0.217984
v -0.170808 0.001852 0.164687
v -0.043482 1.194615 0.114403
v 0.027582 0.002105 0.136148
v -0.034177 1.194618 0.114632
v 0.060821 0.004030 -0.052448
v -0.033841 1.194700 0.105391
v -0.133213 0.231858 0.146892
v -0.102402 0.462036 0.140254
v -0.078540 0.664157 0.143122
v -0.063562 0.828211 0.144981
v -0.053981 0.992264 0.135250
v -0.007353 0.993471 0.091647
v 0.019955 0.832090 0.066752
v 0.041895 0.671114 0.030391
v 0.055304 0.469593 -0.007126
v 0.061380 0.237508 -0.035316
v -0.013137 0.992450 0.130703
v 0.008032 0.828873 0.135787
v 0.024454 0.665049 0.129192
v 0.033126 0.462974 0.121533
v 0.033668 0.232568 0.123387
v -0.141236 0.223109 0.099050
v -0.151308 0.446229 0.128344
v -0.169190 0.646668 0.138717
v -0.190475 0.818347 0.140944
v -0.218513 0.991108 0.152835
v -0.218695 0.993011 0.216582
v -0.190059 0.824643 0.255187
v -0.167710 0.659023 0.303323
v -0.149826 0.461290 0.343715
v -0.141258 0.234605 0.365709
v -0.243580 0.992196 0.185597
v -0.233437 0.821905 0.199995
v -0.229845 0.654671 0.224039
v -0.229818 0.457234 0.239992
v -0.238046 0.231656 0.236722
v 0.012483 0.240427 0.319181
v 0.047931 0.472200 0.320802
v 0.094858 0.670328 0.305759
v 0.168185 0.818780 0.272485
v 0.248993 0.965658 0.242774
v 0.298028 0.961655 0.202095
v 0.253809 0.811713 0.197132
v 0.215840 0.661890 0.194913
v 0.204232 0.466178 0.174034
v 0.206169 0.236238 0.136047
v 0.289775 0.964151 0.233865
v 0.240007 0.814893 0.251282
v 0.196610 0.665874 0.272028
v 0.178087 0.469454 0.275076
v 0.171942 0.235289 0.259806
v -0.256187 0.235251 -0.240780
v -0.250220 0.468772 -0.219337
v -0.253696 0.690218 -0.175309
v -0.255905 0.896614 -0.109582
v -0.247983 1.103313 -0.049578
v -0.214192 1.104518 0.004623
v -0.196509 0.898733 -0.011650
v -0.168848 0.693225 -0.033555
v -0.138276 0.472759 -0.034753
v -0.115186 0.240274 -0.014586
v -0.252545 1.103408 -0.009705
v -0.264079 0.895660 -0.038843
v -0.265346 0.688003 -0.073661
v -0.264266 0.466947 -0.086811
v -0.271382 0.235602 -0.077118
v 0.079631 0.235269 -0.263094
v 0.061498 0.464879 -0.239711
v 0.045955 0.697964 -0.244925
v 0.030450 0.935424 -0.262950
v 0.011931 1.173716 -0.262154
v -0.020153 1.175361 -0.207418
v -0.028939 0.942874 -0.166476
v -0.041033 0.711620 -0.106120
v -0.050642 0.478600 -0.055713
v -0.054453 0.241884 -0.032772
v -0.020700 1.174537 -0.246895
v -0.026190 0.938406 -0.236778
v -0.034866 0.703245 -0.207164
v -0.042873 0.470366 -0.188007
v -0.047306 0.238594 -0.196471
v 0.264092 0.257476 0.138859
v 0.280044 0.485754 0.083967
v 0.319136 0.678068 0.018024
v 0.372958 0.841250 -0.035004
v 0.418228 1.011971 -0.065575
v 0.401802 1.006096 -0.127528
v 0.346775 0.825323 -0.146692
v 0.284601 0.649202 -0.141815
v 0.233080 0.450824 -0.123808
v 0.197685 0.228482 -0.117008
v 0.423641 1.006733 -0.105091
v 0.381541 0.827794 -0.106221
v 0.331566 0.654769 -0.083378
v 0.293267 0.458323 -0.049248
v 0.273942 0.233458 -0.027600
vn -0.0165 0.9925 -0.1209
vn -0.0599 -0.9971 -0.0476
vn 0.9679 -0.1059 0.2279
vn 0.1519 0.0537 0.9869
vn -0.6267 0.0973 -0.7732
vn -0.0059 0.9998 -0.0187
vn 0.0062 -0.9998 0.0185
vn -0.3276 0.0250 0.9445
vn -0.9873 0.0907 -0.1305
vn 0.8472 0.0141 -0.5311
vn 0.0331 0.9973 -0.0661
vn -0.0819 -0.9934 0.0803
vn 0.6727 -0.0142 -0.7398
vn 0.9709 -0.1067 0.2142
vn -0.9599 0.1310 0.2478
vn 0.0140 0.9998 -0.0118
vn -0.0088 -0.9999 0.0146
vn -0.7650 -0.0312 0.6432
vn -0.7781 -0.0277 -0.6275
vn 0.9913 0.1316 -0.0002
vn 0.0026 0.9998 0.0192
vn -0.0101 -0.9997 -0.0231
vn -0.9978 0.0119 0.0649
vn -0.3948 0.0866 -0.9147
vn 0.8648 0.0086 0.5021
vn -0.0006 1.0000 0.0088
vn -0.0002 -0.9999 -0.0102
vn 0.9849 0.1168 0.1275
vn 0.0851 0.0928 0.9920
vn -0.6820 -0.0399 -0.7303
vn -0.6832 0.0552 -0.7281
vn -0.6829 0.0704 -0.7271
vn -0.6828 0.0902 -0.7251
vn -0.6838 0.0708 -0.7263
vn -0.6833 -0.0032 -0.7301
vn 0.1407 0.0523 0.9887
vn 0.1382 0.0092 0.9904
vn 0.1358 -0.0309 0.9903
vn 0.1315 -0.0250 0.9910
vn 0.1208 0.0491 0.9915
vn 0.9849 -0.0157 0.1725
vn 0.9852 0.0043 0.1712
vn 0.9843 0.0344 0.1734
vn 0.9799 0.0924 0.1766
vn 0.9769 0.1356 0.1653
vn 0.9984 0.0569 0.0025
vn 0.9991 0.0415 -0.0053
vn 0.9960 0.0884 -0.0141
vn 0.9919 0.1262 -0.0152
vn 0.9866 0.1632 -0.0088
vn -0.8139 0.0611 -0.5778
vn -0.8160 0.0385 -0.5768
vn -0.8179 -0.0449 -0.5736
vn -0.8123 -0.0967 -0.5752
vn -0.8022 -0.0936 -0.5897
vn -0.8021 -0.0236 0.5967
vn -0.7964 0.0244 0.6043
vn -0.7899 0.0513 0.6111
vn -0.7865 0.0717 0.6134
vn -0.7840 0.0074 0.6207
vn -0.6702 0.1376 -0.7293
vn -0.6799 0.1115 -0.7248
vn -0.6733 0.1109 -0.7310
vn -0.6532 0.1668 -0.7386
vn -0.6296 0.2027 -0.7500
vn 0.3351 -0.0889 0.9380
vn 0.3389 -0.0643 0.9386
vn 0.3238 -0.0103 0.9461
vn 0.3036 0.0536 0.9513
vn 0.2599 0.0390 0.9649
vn 0.9586 -0.0586 0.2788
vn 0.9650 -0.0385 0.2595
vn 0.9647 -0.0855 0.2492
vn 0.9382 -0.2400 0.2492
vn 0.9252 -0.2800 0.2560
vn 0.8450 -0.0197 -0.5344
vn 0.8507 0.0327 -0.5246
vn 0.8492 0.1181 -0.5146
vn 0.8428 0.1698 -0.5108
vn 0.8458 0.1163 -0.5206
vn -0.9937 0.0724 -0.0855
vn -0.9947 0.0305 -0.0981
vn -0.9940 0.0039 -0.1090
vn -0.9932 0.0254 -0.1137
vn -0.9910 0.0709 -0.1136
vn -0.3663 0.0879 0.9263
vn -0.3773 0.0465 0.9249
vn -0.3797 -0.0572 0.9234
vn -0.3688 -0.1495 0.9174
vn -0.3592 -0.1071 0.9271
vn 0.8696 -0.0065 0.4937
vn 0.8599 0.0259 0.5098
vn 0.8516 0.0728 0.5191
vn 0.8491 0.0931 0.5199
vn 0.8556 0.0615 0.5139
vn -0.4715 0.1193 -0.8737
vn -0.4535 0.0480 -0.8900
vn -0.4369 -0.0540 -0.8979
vn -0.4245 -0.0969 -0.9002
vn -0.4218 -0.0294 -0.9062
vn -0.9994 0.0061 -0.0343
vn -0.9986 0.0160 -0.0509
vn -0.9977 0.0285 -0.0616
vn -0.9979 0.0339 -0.0545
vn -0.9994 0.0281 -0.0214
vn -0.9616 0.0828 0.2617
vn -0.9661 0.1398 0.2170
vn -0.9521 0.2566 0.1665
vn -0.9272 0.3427 0.1508
vn -0.9412 0.2749 0.1964
vn 0.9983 -0.0397 0.0421
vn 0.9942 -0.0627 0.0873
vn 0.9773 -0.1582 0.1411
vn 0.9517 -0.2554 0.1702
vn 0.9608 -0.2266 0.1597
vn 0.7503 -0.0376 -0.6600
vn 0.7667 -0.1338 -0.6279
vn 0.7655 -0.2523 -0.5919
vn 0.7496 -0.2881 -0.5960
vn 0.7375 -0.1621 -0.6556
vt 0.846445 0.520454
vt 0.100767 0.275719
vt 0.522235 0.384006
vt 0.445414 0.263870
vt 0.990412 0.411900
vt 0.951887 0.662125
vt 0.815162 0.594907
vt 0.441477 0.384006
vt 0.590315 0.720935
vt 0.442709 0.261246
vt 0.671791 0.910849
vt 0.986824 0.410746
vt 0.846445 0.646944
vt 0.100767 0.149229
vt 0.529617 0.722382
vt 0.445414 0.258604
vt 0.668014 0.911017
vt 0.957153 0.662103
vt 0.748940 0.520454
vt 0.319450 0.275270
vt 0.607501 0.505294
vt 0.480913 0.263870
vt 0.507504 0.934355
vt 0.917218 0.520454
vt 0.701887 0.582519
vt 0.529617 0.505294
vt 0.523072 0.100874
vt 0.478333 0.261237
vt 0.592997 0.834402
vt 0.511190 0.934383
vt 0.748940 0.646944
vt 0.319450 0.148780
vt 0.443295 0.100874
vt 0.480913 0.258604
vt 0.589312 0.834451
vt 0.922484 0.520455
vt 0.885807 0.520454
vt 0.212462 0.133621
vt 0.522426 0.243445
vt 0.481449 0.121286
vt 0.958425 0.091598
vt 0.927915 0.493729
vt 0.861604 0.596469
vt 0.442709 0.240411
vt 0.757372 0.753182
vt 0.478885 0.118775
vt 0.205848 0.711196
vt 0.961998 0.091270
vt 0.885807 0.646495
vt 0.212462 0.007580
vt 0.701887 0.756316
vt 0.481449 0.116034
vt 0.209501 0.710330
vt 0.922663 0.493712
vt 0.749361 0.007580
vt 0.228848 0.290430
vt 0.117927 0.411967
vt 0.445965 0.121292
vt 0.959177 0.411504
vt 0.785646 0.867844
vt 0.703549 0.073135
vt 0.197733 0.417184
vt 0.606033 0.612185
vt 0.443295 0.118636
vt 0.023427 0.909875
vt 0.955488 0.410746
vt 0.749361 0.134296
vt 0.226342 0.417121
vt 0.529617 0.612185
vt 0.445965 0.116034
vt 0.019700 0.909993
vt 0.790903 0.867936
vt 0.800002 0.520454
vt 0.102767 0.134069
vt 0.537586 0.148780
vt 0.463174 0.263870
vt 0.102767 0.625367
vt 0.913861 0.290429
vt 0.764100 0.578093
vt 0.605410 0.152105
vt 0.303991 0.527442
vt 0.460574 0.261154
vt 0.501087 0.623141
vt 0.099037 0.624895
vt 0.800002 0.646944
vt 0.102767 0.007580
vt 0.226342 0.527442
vt 0.463174 0.258604
vt 0.497448 0.623267
vt 0.919123 0.290648
vt 0.480175 0.623141
vt 0.211182 0.275362
vt 0.434597 0.411875
vt 0.463725 0.121295
vt 0.985397 0.662103
vt 0.907042 0.870035
vt 0.434381 0.688627
vt 0.514457 0.414690
vt 0.083933 0.609013
vt 0.461125 0.118648
vt 0.411930 0.730758
vt 0.981687 0.662168
vt 0.480175 0.749723
vt 0.211182 0.148780
vt 0.007580 0.609013
vt 0.463725 0.116034
vt 0.408243 0.730771
vt 0.912303 0.870101
vt 0.119451 0.258946
vt 0.427549 0.255087
vt 0.447315 0.504191
vt 0.632459 0.290430
vt 0.335801 0.242369
vt 0.199043 0.609736
vt 0.645102 0.382187
vt 0.825791 0.491375
vt 0.118391 0.600750
vt 0.499730 0.830709
vt 0.815971 0.410821
vt 0.931062 0.072974
vt 0.434381 0.824103
vt 0.434381 0.911053
vt 0.924683 0.007602
vt 0.970375 0.585904
vt 0.990807 0.743132
vt 0.896785 0.950594
vt 0.442033 0.845869
vt 0.965495 0.520454
vt 0.403377 0.811729
vt 0.922241 0.950594
vt 0.467486 0.846250
vt 0.951000 0.149717
vt 0.434758 0.778456
vt 0.480029 0.911053
vt 0.713782 0.868108
vt 0.942329 0.215151
vt 0.117927 0.534925
vt 0.499730 0.764882
vt 0.713448 0.771475
vt 0.701887 0.933408
vt 0.334610 0.156268
vt 0.199043 0.523626
vt 0.016226 0.624173
vt 0.701887 0.852554
vt 0.117927 0.152650
vt 0.427549 0.148780
vt 0.013332 0.515856
vt 0.007580 0.717011
vt 0.419122 0.811729
vt 0.974422 0.743132
vt 0.949110 0.520544
vt 0.966744 0.149456
vt 0.895904 0.007580
vt 0.941596 0.585904
vt 0.741740 0.867714
vt 0.970290 0.215151
vt 0.774534 0.410746
vt 0.889625 0.072974
vt 0.753519 0.771860
vt 0.741960 0.933408
vt 0.699649 0.382494
vt 0.771244 0.491375
vt 0.068334 0.625215
vt 0.754005 0.852554
vt 0.514457 0.506744
vt 0.699649 0.290631
vt 0.077579 0.517178
vt 0.071840 0.717011
vt 0.317324 0.310713
vt 0.428135 0.113991
vt 0.130878 0.501810
vt 0.621261 0.007580
vt 0.339674 0.098492
vt 0.514457 0.607981
vt 0.633935 0.096489
vt 0.226342 0.752071
vt 0.434703 0.598331
vt 0.007580 0.800891
vt 0.239073 0.831392
vt 0.268200 0.915114
vt 0.013511 0.732171
vt 0.117927 0.888061
vt 0.257358 0.846995
vt 0.937400 0.870035
vt 0.959177 0.495638
vt 0.772532 0.950950
vt 0.126409 0.818638
vt 0.950094 0.938813
vt 0.007580 0.992420
vt 0.797959 0.950950
vt 0.151829 0.819243
vt 0.953166 0.773292
vt 0.059119 0.733039
vt 0.163543 0.888061
vt 0.899266 0.151874
vt 0.941009 0.842033
vt 0.434381 0.532518
vt 0.073393 0.800891
vt 0.784561 0.772808
vt 0.887108 0.220137
vt 0.337400 0.012445
vt 0.514457 0.521904
vt 0.125337 0.624895
vt 0.772532 0.852684
vt 0.318196 0.417121
vt 0.428135 0.007580
vt 0.534385 0.520454
vt 0.117927 0.715457
vt 0.023427 0.992330
vt 0.943075 0.492262
vt 0.966546 0.938738
vt 0.968960 0.771989
vt 0.228220 0.847765
vt 0.966546 0.870484
vt 0.927170 0.149456
vt 0.968960 0.840244
vt 0.280928 0.831836
vt 0.226342 0.915114
vt 0.824750 0.771989
vt 0.927170 0.216831
vt 0.688389 0.100377
vt 0.280928 0.752864
vt 0.177580 0.625574
vt 0.824750 0.850960
vt 0.197733 0.508466
vt 0.688389 0.010373
vt 0.598684 0.521200
vt 0.182231 0.715457
vt 0.007580 0.266471
vt 0.211033 0.396807
vt 0.510983 0.291040
vt 0.606101 0.101131
vt 0.117927 0.388436
vt 0.617299 0.375945
vt 0.595877 0.008211
vt 0.333356 0.730758
vt 0.537395 0.360425
vt 0.621192 0.739602
vt 0.345501 0.811244
vt 0.333356 0.828652
vt 0.682871 0.766608
vt 0.621192 0.895689
vt 0.345680 0.894847
vt 0.962895 0.366145
vt 0.990412 0.492745
vt 0.933811 0.740924
vt 0.641145 0.830811
vt 0.962895 0.298267
vt 0.658668 0.989310
vt 0.959262 0.740924
vt 0.666356 0.827329
vt 0.622156 0.911072
vt 0.682871 0.812169
vt 0.666356 0.889685
vt 0.118116 0.903340
vt 0.621192 0.973421
vt 0.538822 0.294936
vt 0.621651 0.805105
vt 0.016923 0.816666
vt 0.117927 0.964966
vt 0.118945 0.302927
vt 0.617299 0.290430
vt 0.713213 0.153106
vt 0.007580 0.894716
vt 0.008242 0.160187
vt 0.211033 0.290522
vt 0.539175 0.629703
vt 0.703549 0.245522
vt 0.671791 0.989496
vt 0.974337 0.488395
vt 0.948202 0.290429
vt 0.635278 0.910849
vt 0.374599 0.902427
vt 0.936338 0.352415
vt 0.140431 0.903221
vt 0.643508 0.973421
vt 0.388217 0.813493
vt 0.374599 0.839997
vt 0.048644 0.816051
vt 0.149653 0.964966
vt 0.540870 0.007580
vt 0.388217 0.734826
vt 0.754683 0.149456
vt 0.049211 0.894716
vt 0.443116 0.290430
vt 0.538232 0.101131
vt 0.590315 0.627345
vt 0.754683 0.243044
vt 0.226342 0.264936
vt 0.426317 0.396715
vt 0.600518 0.411875
vt 0.398886 0.715598
vt 0.333359 0.386449
vt 0.007580 0.500696
vt 0.390395 0.622461
vt 0.714809 0.290430
vt 0.023498 0.412088
vt 0.226342 0.736911
vt 0.727118 0.379610
vt 0.834079 0.007580
vt 0.246529 0.652941
vt 0.832956 0.746590
vt 0.846395 0.093060
vt 0.389759 0.828652
vt 0.495189 0.845869
vt 0.900967 0.608303
vt 0.853140 0.663128
vt 0.402096 0.913630
vt 0.586553 0.922344
vt 0.926436 0.608303
vt 0.878588 0.662103
vt 0.897436 0.772277
vt 0.292165 0.651148
vt 0.878588 0.744704
vt 0.842642 0.772261
vt 0.896785 0.854875
vt 0.089375 0.412061
vt 0.292165 0.734280
vt 0.771849 0.007580
vt 0.839910 0.855348
vt 0.333356 0.300367
vt 0.093661 0.500696
vt 0.629527 0.148780
vt 0.764521 0.096016
vt 0.226373 0.158651
vt 0.426317 0.290430
vt 0.450839 0.007580
vt 0.620570 0.241841
vt 0.602881 0.922344
vt 0.511190 0.845887
vt 0.417953 0.915772
vt 0.913762 0.771989
vt 0.874465 0.097329
vt 0.417953 0.832009
vt 0.871706 0.771989
vt 0.925849 0.854875
vt 0.767889 0.381157
vt 0.874465 0.013382
vt 0.813563 0.007890
vt 0.881625 0.855348
vt 0.337265 0.623322
vt 0.767889 0.292869
vt 0.683920 0.149559
vt 0.818920 0.096016
vt 0.534997 0.412972
vt 0.333356 0.715598
vt 0.517936 0.008537
vt 0.687674 0.241841
vt 0.011834 0.116201
vt 0.322241 0.113865
vt 0.548386 0.240822
vt 0.621192 0.630624
vt 0.231004 0.099904
vt 0.333356 0.506081
vt 0.631908 0.722299
vt 0.816332 0.242651
vt 0.340704 0.413214
vt 0.621192 0.615465
vt 0.807333 0.149929
vt 0.880715 0.385225
vt 0.626260 0.520454
vt 0.772532 0.756829
vt 0.872566 0.290429
vt 0.893748 0.662103
vt 0.102767 0.720206
vt 0.895875 0.383548
vt 0.782893 0.662103
vt 0.904288 0.756809
vt 0.495335 0.716165
vt 0.921178 0.383548
vt 0.808175 0.663141
vt 0.191064 0.818978
vt 0.671516 0.521277
vt 0.817796 0.756829
vt 0.843898 0.151229
vt 0.178703 0.912344
vt 0.406226 0.411875
vt 0.686728 0.615465
vt 0.715586 0.410806
vt 0.831491 0.245827
vt 0.227621 0.013889
vt 0.419438 0.506081
vt 0.629962 0.410746
vt 0.703160 0.505118
vt 0.007580 0.010000
vt 0.322241 0.007580
vt 0.229631 0.432280
vt 0.622661 0.505294
vt 0.511078 0.716165
vt 0.088593 0.717870
vt 0.918652 0.756574
vt 0.206804 0.818638
vt 0.847663 0.290702
vt 0.918652 0.662320
vt 0.871949 0.149456
vt 0.206804 0.912892
vt 0.771709 0.149456
vt 0.845087 0.385225
vt 0.756084 0.410746
vt 0.871949 0.244014
vt 0.678347 0.724442
vt 0.769843 0.242651
vt 0.682852 0.412955
vt 0.756084 0.503960
vt 0.605410 0.244913
vt 0.678347 0.631959
vt 0.294911 0.435079
vt 0.688000 0.505294
vt 0.117927 0.128661
vt 0.100921 0.396901
vt 0.522426 0.148780
vt 0.293509 0.635988
vt 0.007580 0.387419
vt 0.415347 0.607301
vt 0.284488 0.542602
vt 0.584098 0.819242
vt 0.333356 0.597798
vt 0.117927 0.803478
vt 0.572351 0.737542
vt 0.571393 0.906659
vt 0.122486 0.731929
vt 0.887112 0.411850
vt 0.562853 0.835476
vt 0.869007 0.942871
vt 0.946222 0.010464
vt 0.927915 0.411683
vt 0.887112 0.483313
vt 0.867540 0.871422
vt 0.209501 0.624895
vt 0.902272 0.410746
vt 0.861454 0.483641
vt 0.316340 0.827794
vt 0.168642 0.730617
vt 0.840951 0.410746
vt 0.291896 0.849720
vt 0.316340 0.752071
vt 0.333974 0.531597
vt 0.184131 0.803478
vt 0.072693 0.817814
vt 0.283360 0.923718
vt 0.011744 0.301459
vt 0.415347 0.521240
vt 0.791669 0.292602
vt 0.064371 0.899420
vt 0.123464 0.022783
vt 0.100921 0.290878
vt 0.710682 0.666459
vt 0.783049 0.381989
vt 0.197391 0.627935
vt 0.961998 0.007580
vt 0.851528 0.870508
vt 0.304407 0.831469
vt 0.533776 0.834402
vt 0.839910 0.942871
vt 0.313015 0.846995
vt 0.296088 0.758653
vt 0.530582 0.738301
vt 0.529617 0.906659
vt 0.102613 0.816051
vt 0.313015 0.919373
vt 0.230094 0.545672
vt 0.529617 0.819242
vt 0.829927 0.290430
vt 0.102613 0.896998
vt 0.455274 0.150204
vt 0.226342 0.635988
vt 0.757372 0.662103
vt 0.829927 0.380823
s 0
usemtl Grass.002
f 2/4/1 4/10/1 6/16/1
f 5/13/2 3/7/2 1/1/2
f 72/249/3 6/17/3 4/11/3 77/269/3
f 77/270/4 4/12/4 2/5/4 71/245/4
f 71/246/5 2/6/5 6/18/5 72/250/5
f 8/22/6 10/28/6 12/34/6
f 11/31/7 9/25/7 7/19/7
f 87/309/8 12/35/8 10/29/8 92/329/8
f 92/330/9 10/30/9 8/23/9 86/305/9
f 86/306/10 8/24/10 12/36/10 87/310/10
f 14/40/11 16/46/11 18/52/11
f 17/49/12 15/43/12 13/37/12
f 117/429/13 18/53/13 16/47/13 122/449/13
f 122/450/14 16/48/14 14/41/14 116/425/14
f 116/426/15 14/42/15 18/54/15 117/430/15
f 20/58/16 22/64/16 24/70/16
f 23/67/17 21/61/17 19/55/17
f 57/189/18 24/71/18 22/65/18 62/209/18
f 62/210/19 22/66/19 20/59/19 56/185/19
f 56/186/20 20/60/20 24/72/20 57/190/20
f 26/76/21 28/82/21 30/88/21
f 29/85/22 27/79/22 25/73/22
f 102/369/23 30/89/23 28/83/23 107/389/23
f 107/390/24 28/84/24 26/77/24 101/365/24
f 101/366/25 26/78/25 30/90/25 102/370/25
f 32/94/26 34/100/26 36/106/26
f 35/103/27 33/97/27 31/91/27
f 42/129/28 36/107/28 34/101/28 47/149/28
f 47/150/29 34/102/29 32/95/29 41/125/29
f 41/126/30 32/96/30 36/108/30 42/130/30
f 31/92/31 37/109/31 46/145/31 35/104/31
f 37/110/32 38/113/32 45/141/32 46/146/32
f 38/114/33 39/117/33 44/137/33 45/142/33
f 39/118/34 40/121/34 43/133/34 44/138/34
f 40/122/35 41/127/35 42/131/35 43/134/35
f 33/98/36 51/165/36 37/111/36 31/93/36
f 51/166/37 50/161/37 38/115/37 37/112/37
f 50/162/38 49/157/38 39/119/38 38/116/38
f 49/158/39 48/153/39 40/123/39 39/120/39
f 48/154/40 47/151/40 41/128/40 40/124/40
f 35/105/41 46/147/41 51/167/41 33/99/41
f 46/148/42 45/143/42 50/163/42 51/168/42
f 45/144/43 44/139/43 49/159/43 50/164/43
f 44/140/44 43/135/44 48/155/44 49/160/44
f 43/136/45 42/132/45 47/152/45 48/156/45
f 19/56/46 52/169/46 61/205/46 23/68/46
f 52/170/47 53/173/47 60/201/47 61/206/47
f 53/174/48 54/177/48 59/197/48 60/202/48
f 54/178/49 55/181/49 58/193/49 59/198/49
f 55/182/50 56/187/50 57/191/50 58/194/50
f 21/62/51 66/225/51 52/171/51 19/57/51
f 66/226/52 65/221/52 53/175/52 52/172/52
f 65/222/53 64/217/53 54/179/53 53/176/53
f 64/218/54 63/213/54 55/183/54 54/180/54
f 63/214/55 62/211/55 56/188/55 55/184/55
f 23/69/56 61/207/56 66/227/56 21/63/56
f 61/208/57 60/203/57 65/223/57 66/228/57
f 60/204/58 59/199/58 64/219/58 65/224/58
f 59/200/59 58/195/59 63/215/59 64/220/59
f 58/196/60 57/192/60 62/212/60 63/216/60
f 1/2/61 67/229/61 76/265/61 5/14/61
f 67/230/62 68/233/62 75/261/62 76/266/62
f 68/234/63 69/237/63 74/257/63 75/262/63
f 69/238/64 70/241/64 73/253/64 74/258/64
f 70/242/65 71/247/65 72/251/65 73/254/65
f 3/8/66 81/285/66 67/231/66 1/3/66
f 81/286/67 80/281/67 68/235/67 67/232/67
f 80/282/68 79/277/68 69/239/68 68/236/68
f 79/278/69 78/273/69 70/243/69 69/240/69
f 78/274/70 77/271/70 71/248/70 70/244/70
f 5/15/71 76/267/71 81/287/71 3/9/71
f 76/268/72 75/263/72 80/283/72 81/288/72
f 75/264/73 74/259/73 79/279/73 80/284/73
f 74/260/74 73/255/74 78/275/74 79/280/74
f 73/256/75 72/252/75 77/272/75 78/276/75
f 7/20/76 82/289/76 91/325/76 11/32/76
f 82/290/77 83/293/77 90/321/77 91/326/77
f 83/294/78 84/297/78 89/317/78 90/322/78
f 84/298/79 85/301/79 88/313/79 89/318/79
f 85/302/80 86/307/80 87/311/80 88/314/80
f 9/26/81 96/345/81 82/291/81 7/21/81
f 96/346/82 95/341/82 83/295/82 82/292/82
f 95/342/83 94/337/83 84/299/83 83/296/83
f 94/338/84 93/333/84 85/303/84 84/300/84
f 93/334/85 92/331/85 86/308/85 85/304/85
f 11/33/86 91/327/86 96/347/86 9/27/86
f 91/328/87 90/323/87 95/343/87 96/348/87
f 90/324/88 89/319/88 94/339/88 95/344/88
f 89/320/89 88/315/89 93/335/89 94/340/89
f 88/316/90 87/312/90 92/332/90 93/336/90
f 25/74/91 97/349/91 106/385/91 29/86/91
f 97/350/92 98/353/92 105/381/92 106/386/92
f 98/354/93 99/357/93 104/377/93 105/382/93
f 99/358/94 100/361/94 103/373/94 104/378/94
f 100/362/95 101/367/95 102/371/95 103/374/95
f 27/80/96 111/405/96 97/351/96 25/75/96
f 111/406/97 110/401/97 98/355/97 97/352/97
f 110/402/98 109/397/98 99/359/98 98/356/98
f 109/398/99 108/393/99 100/363/99 99/360/99
f 108/394/100 107/391/100 101/368/100 100/364/100
f 29/87/101 106/387/101 111/407/101 27/81/101
f 106/388/102 105/383/102 110/403/102 111/408/102
f 105/384/103 104/379/103 109/399/103 110/404/103
f 104/380/104 103/375/104 108/395/104 109/400/104
f 103/376/105 102/372/105 107/392/105 108/396/105
f 13/38/106 112/409/106 121/445/106 17/50/106
f 112/410/107 113/413/107 120/441/107 121/446/107
f 113/414/108 114/417/108 119/437/108 120/442/108
f 114/418/109 115/421/109 118/433/109 119/438/109
f 115/422/110 116/427/110 117/431/110 118/434/110
f 15/44/111 126/465/111 112/411/111 13/39/111
f 126/466/112 125/461/112 113/415/112 112/412/112
f 125/462/113 124/457/113 114/419/113 113/416/113
f 124/458/114 123/453/114 115/423/114 114/420/114
f 123/454/115 122/451/115 116/428/115 115/424/115
f 17/51/116 121/447/116 126/467/116 15/45/116
f 121/448/117 120/443/117 125/463/117 126/468/117
f 120/444/118 119/439/118 124/459/118 125/464/118
f 119/440/119 118/435/119 123/455/119 124/460/119
f 118/436/120 117/432/120 122/452/120 123/456/120
