# Blender 3.4.1
# www.blender.org
mtllib Grass 003.mtl
o Grass_003
v -0.025413 -0.002499 0.245201
v 0.418242 1.296274 0.137993
v 0.165537 -0.010774 0.178117
v 0.427606 1.296583 0.139249
v 0.209973 -0.006493 0.032516
v 0.428641 1.295460 0.129890
v -0.268079 -0.010802 -0.321000
v -0.278019 1.204906 -0.034407
v -0.283448 -0.007301 -0.126284
v -0.279901 1.205064 -0.025356
v -0.096897 -0.004804 -0.053944
v -0.270892 1.205156 -0.023290
v 0.262317 0.009700 0.101845
v 0.464378 1.361916 -0.241676
v 0.266294 -0.006745 -0.097533
v 0.468758 1.361206 -0.249483
v 0.172732 -0.007388 -0.200855
v 0.460652 1.361203 -0.254292
v -0.122096 -0.012153 -0.009578
v -0.277950 1.130152 0.138952
v -0.238211 -0.008742 0.153965
v -0.284688 1.130324 0.145570
v -0.124443 -0.007497 0.308214
v -0.278030 1.130309 0.152140
v 0.104639 -0.004217 -0.372771
v -0.003606 1.274886 -0.362541
v -0.044286 -0.004628 -0.290117
v -0.012616 1.274856 -0.359751
v -0.049439 -0.009080 -0.095472
v -0.010019 1.274682 -0.350996
v -0.165790 -0.010298 0.099169
v 0.019642 1.534852 -0.014950
v 0.032599 -0.010045 0.070630
v 0.028947 1.534857 -0.014705
v 0.065838 -0.008120 -0.117966
v 0.029299 1.534918 -0.023946
v -0.128196 0.219708 0.081374
v -0.097385 0.498940 0.074736
v -0.070997 0.823057 0.075008
v -0.035374 1.070888 0.054465
v -0.002011 1.295666 0.018568
v 0.044725 1.296853 -0.025015
v 0.048217 1.074087 -0.023684
v 0.049415 0.828099 -0.037613
v 0.060321 0.504348 -0.072645
v 0.066397 0.225358 -0.100834
v 0.038823 1.295776 0.014099
v 0.036174 1.071267 0.045398
v 0.031999 0.823842 0.061117
v 0.038143 0.500462 0.056015
v 0.038685 0.220417 0.057869
v -0.136219 0.210959 0.033532
v -0.149421 0.429310 0.064942
v -0.177005 0.614967 0.081875
v -0.208499 0.771092 0.091006
v -0.245582 0.930072 0.109012
v -0.245851 0.931844 0.172819
v -0.208201 0.777209 0.205328
v -0.175556 0.627276 0.246502
v -0.147919 0.444403 0.280299
v -0.136241 0.222454 0.300190
v -0.270838 0.930875 0.141901
v -0.251983 0.773855 0.150409
v -0.238397 0.621846 0.167696
v -0.228517 0.439422 0.176987
v -0.233029 0.219506 0.171204
v 0.017499 0.228277 0.253663
v 0.063888 0.475225 0.253525
v 0.140014 0.713856 0.233786
v 0.242468 0.902711 0.195828
v 0.348398 1.084437 0.162077
v 0.398026 1.081256 0.121303
v 0.331575 0.900475 0.119915
v 0.267108 0.713896 0.121957
v 0.224872 0.475696 0.106004
v 0.211186 0.224088 0.070528
v 0.389974 1.084029 0.153041
v 0.317825 0.903728 0.174057
v 0.247558 0.717435 0.199124
v 0.198588 0.478781 0.207068
v 0.176959 0.223138 0.194288
v -0.251170 0.223101 -0.306298
v -0.245544 0.455914 -0.284538
v -0.259279 0.656080 -0.231000
v -0.278707 0.826761 -0.149311
v -0.287072 0.999680 -0.074209
v -0.253496 1.000437 -0.019808
v -0.220364 0.826696 -0.050403
v -0.175916 0.656008 -0.087870
v -0.134052 0.458964 -0.099536
v -0.110169 0.228124 -0.080105
v -0.291763 0.999505 -0.034216
v -0.287632 0.824250 -0.077876
v -0.272044 0.651552 -0.128318
v -0.259961 0.453322 -0.151670
v -0.266365 0.223451 -0.142637
v 0.084647 0.223119 -0.328612
v 0.066515 0.452728 -0.305229
v 0.051106 0.669527 -0.319503
v 0.035946 0.865154 -0.360801
v 0.017783 1.060166 -0.384083
v -0.014294 1.061094 -0.329746
v -0.023433 0.871348 -0.265026
v -0.035876 0.682601 -0.181022
v -0.045626 0.466449 -0.121232
v -0.049435 0.229734 -0.098290
v -0.014843 1.060508 -0.369091
v -0.020684 0.866982 -0.335271
v -0.029706 0.673761 -0.282325
v -0.037856 0.458216 -0.253525
v -0.042289 0.226443 -0.261989
v 0.269108 0.245326 0.073341
v 0.286350 0.485250 0.011627
v 0.330072 0.719341 -0.078790
v 0.388940 0.928085 -0.158508
v 0.438577 1.138237 -0.212178
v 0.421982 1.130831 -0.273234
v 0.362224 0.907346 -0.267377
v 0.294866 0.684426 -0.235085
v 0.239062 0.447382 -0.194427
v 0.202703 0.216331 -0.182526
v 0.443929 1.132446 -0.251370
v 0.397319 0.912797 -0.228651
v 0.342308 0.694295 -0.179168
v 0.299545 0.457548 -0.121429
v 0.278959 0.221308 -0.093118
vn -0.0165 0.9925 -0.1209
vn -0.0599 -0.9971 -0.0476
vn 0.9621 -0.1511 0.2270
vn 0.1509 0.0499 0.9873
vn -0.6222 0.1186 -0.7738
vn -0.0059 0.9998 -0.0187
vn 0.0062 -0.9998 0.0185
vn -0.3287 -0.0168 0.9443
vn -0.9890 0.0661 -0.1325
vn 0.8472 0.0640 -0.5273
vn 0.0401 0.9969 -0.0682
vn -0.0819 -0.9934 0.0803
vn 0.6644 -0.0581 -0.7451
vn 0.9720 -0.0957 0.2145
vn -0.9582 0.1418 0.2487
vn 0.0139 0.9998 -0.0118
vn -0.0088 -0.9999 0.0146
vn -0.7620 -0.0606 0.6447
vn -0.7771 -0.0370 -0.6283
vn 0.9871 0.1599 0.0005
vn 0.0026 0.9998 0.0191
vn -0.0101 -0.9997 -0.0231
vn -0.9977 0.0170 0.0651
vn -0.3920 0.0486 -0.9187
vn 0.8631 0.0341 0.5039
vn -0.0007 1.0000 0.0066
vn -0.0002 -0.9999 -0.0102
vn 0.9898 0.0600 0.1294
vn 0.0830 0.1268 0.9885
vn -0.6809 -0.0408 -0.7312
vn -0.6832 0.0552 -0.7281
vn -0.6830 0.0584 -0.7281
vn -0.6830 0.0560 -0.7283
vn -0.6833 0.0379 -0.7291
vn -0.6822 -0.0153 -0.7310
vn 0.1407 0.0523 0.9887
vn 0.1382 0.0076 0.9904
vn 0.1356 -0.0125 0.9907
vn 0.1297 0.0620 0.9896
vn 0.1179 0.1376 0.9834
vn 0.9849 -0.0157 0.1725
vn 0.9852 0.0036 0.1712
vn 0.9850 0.0153 0.1721
vn 0.9850 -0.0053 0.1727
vn 0.9863 0.0138 0.1641
vn 0.9984 0.0569 0.0025
vn 0.9984 0.0566 -0.0062
vn 0.9889 0.1473 -0.0183
vn 0.9790 0.2031 -0.0195
vn 0.9728 0.2313 -0.0104
vn -0.8139 0.0611 -0.5778
vn -0.8159 0.0328 -0.5772
vn -0.8162 -0.0712 -0.5734
vn -0.8076 -0.1334 -0.5744
vn -0.7981 -0.1236 -0.5897
vn -0.8021 -0.0236 0.5967
vn -0.7949 0.0065 0.6068
vn -0.7854 -0.0076 0.6190
vn -0.7819 0.0010 0.6234
vn -0.7776 -0.0586 0.6260
vn -0.6702 0.1376 -0.7293
vn -0.6751 0.1328 -0.7257
vn -0.6608 0.1582 -0.7337
vn -0.6404 0.2059 -0.7399
vn -0.6214 0.2286 -0.7494
vn 0.3351 -0.0889 0.9380
vn 0.3374 -0.0693 0.9388
vn 0.3182 -0.0284 0.9476
vn 0.2942 0.0251 0.9554
vn 0.2546 0.0210 0.9668
vn 0.9586 -0.0586 0.2788
vn 0.9614 -0.0916 0.2596
vn 0.9499 -0.1859 0.2512
vn 0.9166 -0.3131 0.2486
vn 0.9075 -0.3346 0.2539
vn 0.8450 -0.0197 -0.5344
vn 0.8513 0.0362 -0.5234
vn 0.8416 0.2001 -0.5016
vn 0.8177 0.3200 -0.4785
vn 0.8296 0.2513 -0.4986
vn -0.9937 0.0724 -0.0855
vn -0.9947 0.0286 -0.0991
vn -0.9924 -0.0420 -0.1158
vn -0.9907 -0.0527 -0.1255
vn -0.9926 0.0057 -0.1212
vn -0.3663 0.0879 0.9263
vn -0.3775 0.0428 0.9250
vn -0.3763 -0.1326 0.9170
vn -0.3569 -0.2898 0.8881
vn -0.3525 -0.2306 0.9069
vn 0.8696 -0.0065 0.4937
vn 0.8599 0.0259 0.5098
vn 0.8503 0.0995 0.5168
vn 0.8417 0.1727 0.5116
vn 0.8488 0.1367 0.5107
vn -0.4715 0.1193 -0.8737
vn -0.4535 0.0480 -0.8900
vn -0.4348 -0.0965 -0.8953
vn -0.4129 -0.2207 -0.8836
vn -0.4119 -0.1453 -0.8996
vn -0.9994 0.0061 -0.0343
vn -0.9986 0.0160 -0.0509
vn -0.9977 0.0287 -0.0616
vn -0.9978 0.0365 -0.0547
vn -0.9992 0.0335 -0.0216
vn -0.9616 0.0828 0.2617
vn -0.9656 0.1438 0.2168
vn -0.9542 0.2481 0.1674
vn -0.9371 0.3137 0.1530
vn -0.9439 0.2651 0.1967
vn 0.9983 -0.0397 0.0421
vn 0.9942 -0.0625 0.0873
vn 0.9810 -0.1368 0.1378
vn 0.9642 -0.2070 0.1655
vn 0.9692 -0.1889 0.1581
vn 0.7503 -0.0376 -0.6600
vn 0.7634 -0.1472 -0.6290
vn 0.7571 -0.2801 -0.5903
vn 0.7399 -0.3152 -0.5943
vn 0.7234 -0.2159 -0.6558
vt 0.216764 0.635335
vt 0.327542 0.270861
vt 0.530263 0.099515
vt 0.228204 0.131003
vt 0.520035 0.841048
vt 0.418180 0.854174
vt 0.186054 0.708425
vt 0.450983 0.099515
vt 0.770039 0.607717
vt 0.224504 0.131003
vt 0.098374 0.642968
vt 0.516551 0.839803
vt 0.216764 0.759509
vt 0.327542 0.146686
vt 0.710451 0.609138
vt 0.224604 0.127293
vt 0.094669 0.643173
vt 0.423348 0.854039
vt 0.736565 0.112524
vt 0.207803 0.395717
vt 0.614169 0.497515
vt 0.453515 0.119986
vt 0.981560 0.919218
vt 0.132467 0.872303
vt 0.690374 0.173454
vt 0.537710 0.497515
vt 0.522380 0.607426
vt 0.450983 0.117401
vt 0.978172 0.258440
vt 0.985175 0.919390
vt 0.736565 0.236699
vt 0.207803 0.271543
vt 0.444063 0.607426
vt 0.453515 0.114816
vt 0.974554 0.258493
vt 0.137636 0.872273
vt 0.100095 0.749421
vt 0.209202 0.131385
vt 0.608650 0.239618
vt 0.219356 0.457113
vt 0.962089 0.007969
vt 0.931141 0.097019
vt 0.076335 0.824045
vt 0.530392 0.236641
vt 0.498532 0.821425
vt 0.216842 0.454657
vt 0.986767 0.720145
vt 0.958589 0.007651
vt 0.100095 0.873155
vt 0.209202 0.007651
vt 0.444063 0.824501
vt 0.219356 0.451957
vt 0.990390 0.719452
vt 0.925989 0.097220
vt 0.753631 0.627726
vt 0.326217 0.410560
vt 0.444063 0.405805
vt 0.247165 0.127293
vt 0.979286 0.113392
vt 0.190133 0.884621
vt 0.708657 0.692082
vt 0.522408 0.410927
vt 0.082668 0.627666
vt 0.247165 0.130990
vt 0.644188 0.914004
vt 0.975692 0.112524
vt 0.753631 0.752123
vt 0.326217 0.286163
vt 0.007651 0.627666
vt 0.243505 0.130933
vt 0.640530 0.914143
vt 0.195294 0.884700
vt 0.806774 0.258440
vt 0.101096 0.131825
vt 0.629471 0.405805
vt 0.219395 0.416188
vt 0.217015 0.612821
vt 0.942313 0.258441
vt 0.771529 0.315024
vt 0.696054 0.409068
vt 0.613910 0.609259
vt 0.216842 0.413521
vt 0.965812 0.390219
vt 0.220707 0.612820
vt 0.806774 0.382615
vt 0.101096 0.007651
vt 0.537682 0.609259
vt 0.219395 0.411019
vt 0.962240 0.390331
vt 0.947480 0.258601
vt 0.756227 0.258440
vt 0.099199 0.271392
vt 0.007651 0.429179
vt 0.219395 0.436655
vt 0.416346 0.525570
vt 0.931759 0.390219
vt 0.711271 0.322728
vt 0.086049 0.431943
vt 0.191354 0.620033
vt 0.216842 0.434056
vt 0.609022 0.931549
vt 0.412703 0.525639
vt 0.756227 0.382706
vt 0.099199 0.147127
vt 0.116398 0.620033
vt 0.219395 0.431490
vt 0.612641 0.931548
vt 0.936924 0.390289
vt 0.009147 0.255277
vt 0.116398 0.256241
vt 0.020136 0.519806
vt 0.449130 0.146686
vt 0.129289 0.147017
vt 0.007651 0.413878
vt 0.461541 0.255966
vt 0.395070 0.652314
vt 0.018299 0.287048
vt 0.631411 0.382706
vt 0.383442 0.525570
vt 0.116398 0.758592
vt 0.650044 0.286163
vt 0.708657 0.855547
vt 0.128838 0.856126
vt 0.895423 0.627726
vt 0.426449 0.619940
vt 0.914878 0.483614
vt 0.728438 0.767704
vt 0.907563 0.716946
vt 0.612641 0.838175
vt 0.939893 0.483614
vt 0.753452 0.767424
vt 0.926714 0.599995
vt 0.694848 0.286280
vt 0.753452 0.854625
vt 0.837424 0.744541
vt 0.926714 0.512794
vt 0.082857 0.286694
vt 0.695970 0.382706
vt 0.634412 0.112524
vt 0.836064 0.840964
vt 0.213798 0.146686
vt 0.092160 0.413878
vt 0.553490 0.007697
vt 0.623951 0.239618
vt 0.007651 0.150926
vt 0.220759 0.256241
vt 0.122044 0.528580
vt 0.545565 0.117186
vt 0.597155 0.837969
vt 0.410371 0.619940
vt 0.923634 0.717417
vt 0.911233 0.599518
vt 0.157053 0.856971
vt 0.923634 0.628691
vt 0.864892 0.744479
vt 0.899272 0.511602
vt 0.342766 0.525714
vt 0.157053 0.759922
vt 0.673683 0.113020
vt 0.875338 0.840964
vt 0.515090 0.256508
vt 0.341518 0.652314
vt 0.604611 0.007651
vt 0.675072 0.239618
vt 0.086049 0.522313
vt 0.515090 0.146899
vt 0.185115 0.529879
vt 0.608649 0.117186
vt 0.238983 0.392369
vt 0.428761 0.510269
vt 0.456776 0.494003
vt 0.236061 0.639719
vt 0.343752 0.494305
vt 0.697071 0.092148
vt 0.248258 0.725349
vt 0.789784 0.405805
vt 0.624231 0.080532
vt 0.403441 0.838738
vt 0.802177 0.478516
vt 0.341518 0.854039
vt 0.341518 0.830729
vt 0.236061 0.907549
vt 0.354059 0.915206
vt 0.940796 0.744479
vt 0.979286 0.193580
vt 0.176193 0.963588
vt 0.246383 0.844102
vt 0.953357 0.807520
vt 0.628625 0.992349
vt 0.201176 0.963588
vt 0.271359 0.844687
vt 0.953974 0.513040
vt 0.342391 0.785929
vt 0.280869 0.907549
vt 0.847944 0.858901
vt 0.942015 0.575482
vt 0.623951 0.015917
vt 0.403441 0.774122
vt 0.640415 0.826067
vt 0.835990 0.919923
vt 0.341518 0.409838
vt 0.697071 0.007651
vt 0.718736 0.405805
vt 0.628625 0.898703
vt 0.236061 0.287946
vt 0.428761 0.405805
vt 0.012332 0.537614
vt 0.711355 0.492828
vt 0.644188 0.992268
vt 0.963492 0.189831
vt 0.969570 0.808317
vt 0.969471 0.511601
vt 0.382893 0.915165
vt 0.969570 0.746330
vt 0.875338 0.856265
vt 0.969471 0.573588
vt 0.843502 0.480793
vt 0.382893 0.855051
vt 0.679915 0.825292
vt 0.875338 0.916379
vt 0.301897 0.729822
vt 0.843502 0.409197
vt 0.770048 0.406822
vt 0.679915 0.896888
vt 0.522408 0.500538
vt 0.301897 0.643702
vt 0.075455 0.538346
vt 0.774482 0.492828
vt 0.236061 0.261783
vt 0.323839 0.111991
vt 0.519217 0.008250
vt 0.549515 0.286163
vt 0.226195 0.100282
vt 0.116398 0.513279
vt 0.560542 0.383886
vt 0.116398 0.635335
vt 0.135537 0.416820
vt 0.444063 0.716712
vt 0.127715 0.733020
vt 0.859666 0.359519
vt 0.463660 0.633596
vt 0.216764 0.774811
vt 0.859666 0.274125
vt 0.322155 0.936011
vt 0.520035 0.928856
vt 0.398194 0.939677
vt 0.216764 0.858191
vt 0.322155 0.852631
vt 0.087283 0.727607
vt 0.423348 0.938795
vt 0.194189 0.869320
vt 0.325294 0.821019
vt 0.508177 0.622728
vt 0.176193 0.796113
vt 0.800083 0.927494
vt 0.325294 0.745633
vt 0.201540 0.411019
vt 0.508177 0.699993
vt 0.825179 0.113017
vt 0.800083 0.850228
vt 0.224504 0.014838
vt 0.201540 0.505908
vt 0.778358 0.630029
vt 0.820545 0.207793
vt 0.236710 0.157444
vt 0.323839 0.007651
vt 0.719834 0.518154
vt 0.768932 0.729177
vt 0.100145 0.727607
vt 0.504246 0.923562
vt 0.307853 0.844102
vt 0.312433 0.821040
vt 0.833272 0.258440
vt 0.296171 0.919656
vt 0.778197 0.926721
vt 0.303400 0.745124
vt 0.170752 0.743290
vt 0.822076 0.336181
vt 0.856363 0.112524
vt 0.768932 0.848727
vt 0.616109 0.388806
vt 0.170752 0.647887
vt 0.819182 0.627726
vt 0.861434 0.207793
vt 0.452592 0.007651
vt 0.616109 0.288268
vt 0.770039 0.515839
vt 0.819182 0.728264
vt 0.116398 0.385573
vt 0.433828 0.251027
vt 0.607314 0.405805
vt 0.071982 0.734119
vt 0.342844 0.240919
vt 0.315689 0.624417
vt 0.063511 0.642968
vt 0.236061 0.745124
vt 0.236061 0.608140
vt 0.628625 0.809990
vt 0.247691 0.825562
vt 0.874968 0.258440
vt 0.648474 0.738236
vt 0.444063 0.912420
vt 0.886995 0.331911
vt 0.734869 0.950956
vt 0.969422 0.838226
vt 0.116398 0.952608
vt 0.463967 0.841294
vt 0.734869 0.877097
vt 0.969563 0.338762
vt 0.141420 0.952608
vt 0.488945 0.839803
vt 0.076820 0.888727
vt 0.693355 0.735845
vt 0.488945 0.910057
vt 0.015137 0.843370
vt 0.071640 0.958790
vt 0.236790 0.543315
vt 0.693355 0.806419
vt 0.017841 0.749421
vt 0.007651 0.913546
vt 0.343196 0.156371
vt 0.315689 0.539868
vt 0.546674 0.624561
vt 0.007651 0.827735
vt 0.116429 0.281232
vt 0.433828 0.146686
vt 0.451469 0.515839
vt 0.537682 0.715265
vt 0.985571 0.338762
vt 0.985175 0.838728
vt 0.720400 0.870849
vt 0.092826 0.888457
vt 0.914261 0.339083
vt 0.708657 0.940575
vt 0.043590 0.843037
vt 0.100095 0.958790
vt 0.288098 0.828800
vt 0.914261 0.268402
vt 0.058697 0.749505
vt 0.048507 0.913546
vt 0.011205 0.644116
vt 0.288098 0.750536
vt 0.600052 0.625260
vt 0.061033 0.827735
vt 0.542992 0.406882
vt 0.007651 0.734119
vt 0.517339 0.516779
vt 0.603557 0.715265
vt 0.011827 0.114284
vt 0.434406 0.390503
vt 0.640074 0.496162
vt 0.537682 0.730566
vt 0.344839 0.376797
vt 0.449707 0.372450
vt 0.548201 0.820563
vt 0.880121 0.712809
vt 0.453467 0.287282
vt 0.776481 0.011248
vt 0.873207 0.627840
vt 0.925494 0.822924
vt 0.776481 0.089726
vt 0.537682 0.915164
vt 0.923219 0.744479
vt 0.963259 0.704761
vt 0.206656 0.528580
vt 0.929563 0.342352
vt 0.537875 0.837969
vt 0.958280 0.627726
vt 0.955195 0.474061
vt 0.954262 0.342352
vt 0.562551 0.839026
vt 0.932979 0.114942
vt 0.732456 0.086128
vt 0.581854 0.915164
vt 0.863932 0.013311
vt 0.920797 0.192538
vt 0.517666 0.286163
vt 0.712373 0.007651
vt 0.780935 0.746389
vt 0.851703 0.093389
vt 0.341518 0.292356
vt 0.534214 0.372450
vt 0.636379 0.627726
vt 0.768932 0.833425
vt 0.007651 0.010027
vt 0.434406 0.286163
vt 0.540911 0.515839
vt 0.629212 0.720544
vt 0.970597 0.474061
vt 0.220707 0.528842
vt 0.944229 0.628018
vt 0.948190 0.112524
vt 0.898899 0.744868
vt 0.938935 0.704761
vt 0.890912 0.007651
vt 0.948190 0.189450
vt 0.838352 0.627726
vt 0.890640 0.822924
vt 0.820762 0.744479
vt 0.890912 0.086143
vt 0.593790 0.822667
vt 0.834483 0.712809
vt 0.688301 0.629894
vt 0.820762 0.829650
vt 0.696054 0.500178
vt 0.593790 0.731877
vt 0.604996 0.518587
vt 0.693355 0.720544
vt 0.116398 0.126516
vt 0.435682 0.111733
vt 0.608650 0.146686
vt 0.695149 0.612424
vt 0.339141 0.100475
vt 0.236061 0.524567
vt 0.684276 0.515839
vt 0.751867 0.112524
vt 0.250090 0.425861
vt 0.341518 0.758821
vt 0.764474 0.211421
vt 0.858803 0.390219
vt 0.348897 0.668683
vt 0.791782 0.096163
vt 0.871305 0.479790
vt 0.918928 0.926243
vt 0.962089 0.096848
vt 0.931141 0.008140
vt 0.792305 0.009079
vt 0.913688 0.839315
vt 0.990390 0.627726
vt 0.906213 0.007651
vt 0.817197 0.007651
vt 0.954121 0.928798
vt 0.393504 0.667615
vt 0.836401 0.096163
vt 0.885031 0.114570
vt 0.954121 0.838226
vt 0.314227 0.428114
vt 0.405695 0.758821
vt 0.855066 0.513400
vt 0.876735 0.206211
vt 0.344456 0.016583
vt 0.320121 0.524567
vt 0.794147 0.518428
vt 0.846675 0.609667
vt 0.121834 0.022576
vt 0.435682 0.007651
vt 0.452697 0.736289
vt 0.785340 0.609667
vt 0.978560 0.630456
vt 0.946443 0.096891
vt 0.898079 0.838226
vt 0.942265 0.931415
vt 0.899576 0.480793
vt 0.890640 0.926243
vt 0.905495 0.112524
vt 0.934229 0.843450
vt 0.805243 0.212037
vt 0.899576 0.390503
vt 0.883970 0.511602
vt 0.905495 0.202814
vt 0.630924 0.518969
vt 0.805243 0.115203
vt 0.831373 0.515839
vt 0.883970 0.608435
vt 0.542727 0.148084
vt 0.629211 0.612424
vt 0.498532 0.732013
vt 0.831373 0.609311
s 0
usemtl Grass.001
f 2/4/1 4/10/1 6/16/1
f 5/13/2 3/7/2 1/1/2
f 72/249/3 6/17/3 4/11/3 77/269/3
f 77/270/4 4/12/4 2/5/4 71/245/4
f 71/246/5 2/6/5 6/18/5 72/250/5
f 8/22/6 10/28/6 12/34/6
f 11/31/7 9/25/7 7/19/7
f 87/309/8 12/35/8 10/29/8 92/329/8
f 92/330/9 10/30/9 8/23/9 86/305/9
f 86/306/10 8/24/10 12/36/10 87/310/10
f 14/40/11 16/46/11 18/52/11
f 17/49/12 15/43/12 13/37/12
f 117/429/13 18/53/13 16/47/13 122/449/13
f 122/450/14 16/48/14 14/41/14 116/425/14
f 116/426/15 14/42/15 18/54/15 117/430/15
f 20/58/16 22/64/16 24/70/16
f 23/67/17 21/61/17 19/55/17
f 57/189/18 24/71/18 22/65/18 62/209/18
f 62/210/19 22/66/19 20/59/19 56/185/19
f 56/186/20 20/60/20 24/72/20 57/190/20
f 26/76/21 28/82/21 30/88/21
f 29/85/22 27/79/22 25/73/22
f 102/369/23 30/89/23 28/83/23 107/389/23
f 107/390/24 28/84/24 26/77/24 101/365/24
f 101/366/25 26/78/25 30/90/25 102/370/25
f 32/94/26 34/100/26 36/106/26
f 35/103/27 33/97/27 31/91/27
f 42/129/28 36/107/28 34/101/28 47/149/28
f 47/150/29 34/102/29 32/95/29 41/125/29
f 41/126/30 32/96/30 36/108/30 42/130/30
f 31/92/31 37/109/31 46/145/31 35/104/31
f 37/110/32 38/113/32 45/141/32 46/146/32
f 38/114/33 39/117/33 44/137/33 45/142/33
f 39/118/34 40/121/34 43/133/34 44/138/34
f 40/122/35 41/127/35 42/131/35 43/134/35
f 33/98/36 51/165/36 37/111/36 31/93/36
f 51/166/37 50/161/37 38/115/37 37/112/37
f 50/162/38 49/157/38 39/119/38 38/116/38
f 49/158/39 48/153/39 40/123/39 39/120/39
f 48/154/40 47/151/40 41/128/40 40/124/40
f 35/105/41 46/147/41 51/167/41 33/99/41
f 46/148/42 45/143/42 50/163/42 51/168/42
f 45/144/43 44/139/43 49/159/43 50/164/43
f 44/140/44 43/135/44 48/155/44 49/160/44
f 43/136/45 42/132/45 47/152/45 48/156/45
f 19/56/46 52/169/46 61/205/46 23/68/46
f 52/170/47 53/173/47 60/201/47 61/206/47
f 53/174/48 54/177/48 59/197/48 60/202/48
f 54/178/49 55/181/49 58/193/49 59/198/49
f 55/182/50 56/187/50 57/191/50 58/194/50
f 21/62/51 66/225/51 52/171/51 19/57/51
f 66/226/52 65/221/52 53/175/52 52/172/52
f 65/222/53 64/217/53 54/179/53 53/176/53
f 64/218/54 63/213/54 55/183/54 54/180/54
f 63/214/55 62/211/55 56/188/55 55/184/55
f 23/69/56 61/207/56 66/227/56 21/63/56
f 61/208/57 60/203/57 65/223/57 66/228/57
f 60/204/58 59/199/58 64/219/58 65/224/58
f 59/200/59 58/195/59 63/215/59 64/220/59
f 58/196/60 57/192/60 62/212/60 63/216/60
f 1/2/61 67/229/61 76/265/61 5/14/61
f 67/230/62 68/233/62 75/261/62 76/266/62
f 68/234/63 69/237/63 74/257/63 75/262/63
f 69/238/64 70/241/64 73/253/64 74/258/64
f 70/242/65 71/247/65 72/251/65 73/254/65
f 3/8/66 81/285/66 67/231/66 1/3/66
f 81/286/67 80/281/67 68/235/67 67/232/67
f 80/282/68 79/277/68 69/239/68 68/236/68
f 79/278/69 78/273/69 70/243/69 69/240/69
f 78/274/70 77/271/70 71/248/70 70/244/70
f 5/15/71 76/267/71 81/287/71 3/9/71
f 76/268/72 75/263/72 80/283/72 81/288/72
f 75/264/73 74/259/73 79/279/73 80/284/73
f 74/260/74 73/255/74 78/275/74 79/280/74
f 73/256/75 72/252/75 77/272/75 78/276/75
f 7/20/76 82/289/76 91/325/76 11/32/76
f 82/290/77 83/293/77 90/321/77 91/326/77
f 83/294/78 84/297/78 89/317/78 90/322/78
f 84/298/79 85/301/79 88/313/79 89/318/79
f 85/302/80 86/307/80 87/311/80 88/314/80
f 9/26/81 96/345/81 82/291/81 7/21/81
f 96/346/82 95/341/82 83/295/82 82/292/82
f 95/342/83 94/337/83 84/299/83 83/296/83
f 94/338/84 93/333/84 85/303/84 84/300/84
f 93/334/85 92/331/85 86/308/85 85/304/85
f 11/33/86 91/327/86 96/347/86 9/27/86
f 91/328/87 90/323/87 95/343/87 96/348/87
f 90/324/88 89/319/88 94/339/88 95/344/88
f 89/320/89 88/315/89 93/335/89 94/340/89
f 88/316/90 87/312/90 92/332/90 93/336/90
f 25/74/91 97/349/91 106/385/91 29/86/91
f 97/350/92 98/353/92 105/381/92 106/386/92
f 98/354/93 99/357/93 104/377/93 105/382/93
f 99/358/94 100/361/94 103/373/94 104/378/94
f 100/362/95 101/367/95 102/371/95 103/374/95
f 27/80/96 111/405/96 97/351/96 25/75/96
f 111/406/97 110/401/97 98/355/97 97/352/97
f 110/402/98 109/397/98 99/359/98 98/356/98
f 109/398/99 108/393/99 100/363/99 99/360/99
f 108/394/100 107/391/100 101/368/100 100/364/100
f 29/87/101 106/387/101 111/407/101 27/81/101
f 106/388/102 105/383/102 110/403/102 111/408/102
f 105/384/103 104/379/103 109/399/103 110/404/103
f 104/380/104 103/375/104 108/395/104 109/400/104
f 103/376/105 102/372/105 107/392/105 108/396/105
f 13/38/106 112/409/106 121/445/106 17/50/106
f 112/410/107 113/413/107 120/441/107 121/446/107
f 113/414/108 114/417/108 119/437/108 120/442/108
f 114/418/109 115/421/109 118/433/109 119/438/109
f 115/422/110 116/427/110 117/431/110 118/434/110
f 15/44/111 126/465/111 112/411/111 13/39/111
f 126/466/112 125/461/112 113/415/112 112/412/112
f 125/462/113 124/457/113 114/419/113 113/416/113
f 124/458/114 123/453/114 115/423/114 114/420/114
f 123/454/115 122/451/115 116/428/115 115/424/115
f 17/51/116 121/447/116 126/467/116 15/45/116
f 121/448/117 120/443/117 125/463/117 126/468/117
f 120/444/118 119/439/118 124/459/118 125/464/118
f 119/440/119 118/435/119 123/455/119 124/460/119
f 118/436/120 117/432/120 122/452/120 123/456/120
