# Blender v2.80 (sub 74) OBJ File: 'untitled.blend'
# www.blender.org
mtllib Big_Rock.mtl
o Big_Rock_Sphere.002
v 0.058981 0.002967 0.082272
v 0.131065 0.079945 -0.026017
v 0.107194 0.081366 0.062194
v 0.074997 0.037011 -0.063989
v 0.110905 0.193535 -0.014155
v 0.002549 0.217612 0.070324
v 0.073134 0.168874 -0.094478
v 0.016374 0.201240 -0.035634
v -0.045374 0.178591 -0.072597
v -0.123061 0.190731 -0.010514
v 0.023833 0.070673 -0.114809
v -0.079008 0.043320 -0.040514
v -0.109769 0.114466 0.061229
v -0.037374 -0.016690 0.028962
v 0.018624 0.080105 0.118934
vt 0.234189 0.193088
vt 0.234189 0.193088
vt 0.234189 0.193088
vt 0.234189 0.193088
vt 0.234189 0.193088
vt 0.234189 0.193088
vt 0.234189 0.193088
vt 0.234189 0.193088
vt 0.234189 0.193088
vt 0.234189 0.193088
vt 0.234189 0.193088
vt 0.234189 0.193088
vt 0.234189 0.193088
vt 0.234189 0.193088
vt 0.234189 0.193088
vn 0.6483 -0.7542 -0.1046
vn 0.9560 0.1429 0.2564
vn 0.6366 -0.1652 -0.7533
vn 0.1115 0.9842 -0.1375
vn 0.1560 0.9213 -0.3562
vn -0.0206 0.8675 -0.4971
vn -0.1325 0.9283 -0.3474
vn -0.6268 -0.0288 -0.7787
vn -0.4635 -0.4444 0.7666
vn 0.5369 -0.1162 0.8356
vn 0.8533 -0.4637 0.2384
vn 0.6125 0.4309 0.6628
vn 0.8611 0.2016 -0.4668
vn 0.6384 -0.1648 -0.7519
vn -0.1529 0.2734 -0.9497
vn -0.1037 0.9808 -0.1651
vn -0.5760 -0.0503 -0.8159
vn -0.5369 0.5265 0.6592
vn -0.9585 -0.2652 -0.1043
vn -0.1993 -0.7975 -0.5694
vn -0.8629 -0.4978 0.0872
vn -0.3302 0.2801 0.9014
vn -0.0324 -0.8480 -0.5291
vn -0.3212 -0.5383 0.7791
vn 0.2942 -0.9375 -0.1860
vn 0.5039 0.3396 0.7942
usemtl Low_Poly_Image_Texture.004
s off
f 4/1/1 2/2/1 1/3/1
f 3/4/2 2/2/2 5/5/2
f 4/1/3 7/6/3 2/2/3
f 5/5/4 8/7/4 6/8/4
f 7/6/5 8/7/5 5/5/5
f 7/6/6 9/9/6 8/7/6
f 9/9/7 10/10/7 8/7/7
f 12/11/8 10/10/8 9/9/8
f 13/12/9 14/13/9 15/14/9
f 1/3/10 3/4/10 15/14/10
f 1/3/11 2/2/11 3/4/11
f 6/8/12 3/4/12 5/5/12
f 2/2/13 7/6/13 5/5/13
f 4/1/14 11/15/14 7/6/14
f 7/6/15 11/15/15 9/9/15
f 6/8/16 8/7/16 10/10/16
f 11/15/17 12/11/17 9/9/17
f 6/8/18 10/10/18 13/12/18
f 10/10/19 12/11/19 13/12/19
f 12/11/20 11/15/20 14/13/20
f 13/12/21 12/11/21 14/13/21
f 13/12/22 15/14/22 6/8/22
f 11/15/23 4/1/23 14/13/23
f 14/13/24 1/3/24 15/14/24
f 14/13/25 4/1/25 1/3/25
f 15/14/26 3/4/26 6/8/26
