# Blender v2.80 (sub 74) OBJ File: 'untitled.blend'
# www.blender.org
mtllib Dagger.mtl
o Dagger_Cube.037
v -0.000097 0.244011 -0.014626
v 0.098960 0.237351 0.004465
v 0.098960 0.237350 -0.004409
v -0.000097 0.244016 0.014678
v 0.001380 0.663264 -0.000041
v -0.099197 0.238047 -0.004409
v -0.099197 0.238049 0.004465
v -0.087019 0.245087 0.005281
v -0.000197 0.215385 -0.014738
v -0.087019 0.245085 -0.005228
v -0.000197 0.215389 0.014801
v -0.024736 0.196837 0.000034
v -0.000263 0.196574 -0.017884
v 0.024211 0.196664 0.000034
v -0.000263 0.196579 0.017953
v -0.024643 0.190272 0.000035
v -0.000281 0.191665 -0.021522
v 0.024071 0.190100 0.000035
v -0.000281 0.191672 0.021592
v -0.022163 0.074981 0.000054
v -0.000692 0.074902 -0.021418
v 0.020780 0.074830 0.000054
v -0.000692 0.074909 0.021526
v -0.018071 0.058007 0.000057
v -0.000751 0.057943 -0.017263
v 0.016568 0.057885 0.000057
v -0.000751 0.057949 0.017376
v -0.017291 0.042040 0.000059
v -0.000808 0.041980 -0.016424
v 0.015675 0.041924 0.000059
v -0.000808 0.041985 0.016542
v -0.019728 0.021719 0.000063
v -0.000879 0.021650 -0.018786
v 0.017969 0.021586 0.000063
v -0.000879 0.021656 0.018911
v 0.086831 0.244473 -0.005228
v 0.086831 0.244474 0.005281
v 0.025445 0.243615 0.004914
v 0.025445 0.243613 -0.004860
v 0.033747 0.273747 0.000023
v -0.025639 0.243793 -0.004860
v -0.025639 0.243795 0.004914
v -0.033726 0.273984 0.000023
v 0.055887 0.219214 0.005206
v 0.055887 0.219212 -0.005145
v -0.056253 0.219607 -0.005145
v -0.056253 0.219609 0.005206
v -0.025836 0.214729 0.005331
v -0.025836 0.214727 -0.005268
v 0.025437 0.214547 -0.005268
v 0.025437 0.214548 0.005331
v -0.067345 0.211578 0.004480
v -0.067345 0.211577 -0.004416
v -0.000327 0.178386 0.026716
v 0.066923 0.211104 -0.004416
v 0.066923 0.211106 0.004480
v 0.026351 0.178288 0.000037
v -0.006086 0.580073 -0.000028
v 0.001088 0.580068 -0.002927
v 0.008263 0.580023 -0.000028
v 0.001088 0.580069 0.002868
v -0.000327 0.178378 -0.026641
v -0.027006 0.178476 0.000037
v -0.016298 0.001999 0.000066
v -0.000949 0.001943 -0.015284
v 0.014401 0.001891 0.000066
v -0.000949 0.001948 0.015416
vt 0.848753 0.513549
vt 0.848753 0.513549
vt 0.848753 0.513549
vt 0.848753 0.513549
vt 0.848753 0.513549
vt 0.848753 0.513549
vt 0.848753 0.513549
vt 0.848753 0.513549
vt 0.848753 0.513549
vt 0.842160 0.800493
vt 0.842160 0.800493
vt 0.842160 0.800493
vt 0.848753 0.513549
vt 0.848753 0.513549
vt 0.848753 0.513549
vt 0.848753 0.513549
vt 0.842160 0.800493
vt 0.842160 0.800493
vt 0.842160 0.800493
vt 0.842160 0.800493
vt 0.848753 0.513549
vt 0.848753 0.513549
vt 0.848753 0.513549
vt 0.842160 0.800493
vt 0.842160 0.800493
vt 0.842160 0.800493
vt 0.842160 0.800493
vt 0.842160 0.800493
vt 0.842160 0.800493
vt 0.842160 0.800493
vt 0.842160 0.800493
vt 0.212248 0.820682
vt 0.212248 0.820682
vt 0.212248 0.820682
vt 0.212248 0.820682
vt 0.842160 0.800493
vt 0.842160 0.800493
vt 0.212248 0.820682
vt 0.212248 0.820682
vt 0.212248 0.820682
vt 0.212248 0.820682
vt 0.212248 0.820682
vt 0.212248 0.820682
vt 0.848753 0.513549
vt 0.848753 0.513549
vt 0.848753 0.513549
vt 0.848753 0.513549
vt 0.212248 0.820682
vt 0.212248 0.820682
vt 0.842160 0.800493
vt 0.842160 0.800493
vt 0.842160 0.800493
vt 0.842160 0.800493
vt 0.848753 0.513549
vt 0.848753 0.513549
vt 0.848753 0.513549
vt 0.848753 0.513549
vt 0.848753 0.513549
vt 0.848753 0.513549
vt 0.848753 0.513549
vt 0.848753 0.513549
vt 0.842160 0.800493
vt 0.842160 0.800493
vt 0.842160 0.800493
vt 0.842160 0.800493
vt 0.842160 0.800493
vt 0.842160 0.800493
vt 0.842160 0.800493
vt 0.842160 0.800493
vt 0.842160 0.800493
vt 0.842160 0.800493
vt 0.842160 0.800493
vt 0.848753 0.513549
vt 0.848753 0.513549
vt 0.842160 0.800493
vt 0.842160 0.800493
vt 0.848753 0.513549
vt 0.842160 0.800493
vt 0.842160 0.800493
vt 0.842160 0.800493
vt 0.842160 0.800493
vt 0.212248 0.820682
vt 0.212248 0.820682
vt 0.212248 0.820682
vt 0.212248 0.820682
vt 0.848753 0.513549
vt 0.848753 0.513549
vt 0.848753 0.513549
vt 0.848753 0.513549
vn -0.3730 0.0348 -0.9272
vn -0.3519 0.0106 0.9360
vn -0.2717 -0.8934 -0.3579
vn 0.3520 0.0081 0.9360
vn 0.3745 0.0308 -0.9267
vn 0.5064 0.8623 -0.0001
vn 0.3743 0.0311 0.9268
vn -0.3520 0.0103 -0.9360
vn -0.3729 0.0351 0.9272
vn -0.6144 0.2350 0.7532
vn 0.2654 -0.8951 0.3582
vn 0.1597 0.1527 -0.9753
vn 0.7065 -0.0379 0.7067
vn 0.6160 0.2304 -0.7533
vn 0.6160 0.2306 0.7532
vn -0.6144 0.2347 -0.7533
vn -0.6973 -0.1683 -0.6967
vn -0.7068 -0.0332 -0.7067
vn -0.7068 -0.0330 0.7067
vn 0.7065 -0.0382 -0.7067
vn -0.7067 -0.0344 0.7066
vn -0.6973 -0.1680 0.6968
vn 0.6961 -0.1732 -0.6967
vn 0.6961 -0.1729 0.6968
vn 0.7050 0.0796 0.7047
vn 0.7065 -0.0396 -0.7066
vn 0.7065 -0.0394 0.7066
vn -0.7067 -0.0346 -0.7066
vn -0.7020 -0.1220 0.7016
vn -0.7044 0.0844 -0.7047
vn -0.7044 0.0846 0.7047
vn 0.7050 0.0794 -0.7047
vn -0.1586 0.1541 0.9752
vn -0.1371 0.8829 0.4492
vn 0.1597 0.1530 0.9752
vn -0.1586 0.1538 -0.9753
vn 0.1433 0.8819 0.4492
vn 0.2654 -0.8952 -0.3579
vn -0.2717 -0.8932 0.3582
vn 0.9641 -0.2656 0.0000
vn -0.9660 -0.2587 0.0000
vn 0.1433 0.8817 -0.4494
vn -0.1371 0.8827 -0.4494
vn -0.1514 0.9885 -0.0002
vn 0.1584 0.9874 -0.0002
vn -0.3270 -0.9450 0.0002
vn 0.3203 -0.9473 0.0002
vn -1.0000 0.0068 -0.0000
vn 1.0000 -0.0003 -0.0000
vn -0.0368 -0.0458 -0.9983
vn 0.6337 -0.7736 0.0001
vn 0.3520 0.0078 -0.9360
vn -0.5003 0.8658 -0.0001
vn 0.0364 -0.0457 0.9983
vn -0.6324 0.7747 -0.0001
vn 0.6378 0.7702 -0.0001
vn -0.0368 -0.0455 0.9983
vn -0.6392 -0.7691 0.0001
vn 0.0364 -0.0460 -0.9983
vn 0.3732 0.0321 -0.9272
vn -0.3742 0.0337 0.9267
vn 0.3731 0.0324 0.9272
vn -0.3743 0.0335 -0.9267
vn 0.6759 0.2045 -0.7080
vn -0.6744 0.2095 0.7080
vn -0.6744 0.2092 -0.7081
vn 0.6759 0.2047 0.7080
vn -0.0035 -1.0000 0.0002
vn 0.7012 -0.1271 -0.7016
vn 0.7012 -0.1269 0.7016
vn -0.7020 -0.1222 -0.7016
usemtl Low_Poly_Image_Texture.012
s off
f 41/1/1 43/2/1 58/3/1 59/4/1 1/5/1
f 4/6/2 42/7/2 48/8/2 11/9/2
f 13/10/3 12/11/3 53/12/3
f 38/13/4 4/6/4 11/9/4 51/14/4
f 5/15/5 60/16/5 59/4/5
f 3/17/6 36/18/6 37/19/6 2/20/6
f 5/15/7 61/21/7 60/16/7
f 41/1/8 1/5/8 9/22/8 49/23/8
f 43/2/9 42/7/9 4/6/9 61/21/9 58/3/9
f 15/24/10 12/11/10 16/25/10 19/26/10
f 15/24/11 14/27/11 56/28/11
f 9/29/12 45/30/12 55/31/12 13/10/12
f 57/32/13 54/33/13 23/34/13 22/35/13
f 13/10/14 14/27/14 18/36/14 17/37/14
f 14/27/15 15/24/15 19/26/15 18/36/15
f 12/11/16 13/10/16 17/37/16 16/25/16
f 20/38/17 21/39/17 25/40/17 24/41/17
f 63/42/18 62/43/18 21/39/18 20/38/18
f 54/33/19 63/42/19 20/38/19 23/34/19
f 62/43/20 57/32/20 22/35/20 21/39/20
f 27/44/21 24/45/21 28/46/21 31/47/21
f 23/34/22 20/38/22 24/41/22 27/48/22
f 21/39/23 22/35/23 26/49/23 25/40/23
f 22/35/24 23/34/24 27/48/24 26/49/24
f 30/50/25 31/51/25 35/52/25 34/53/25
f 25/54/26 26/55/26 30/56/26 29/57/26
f 26/55/27 27/44/27 31/47/27 30/56/27
f 24/45/28 25/54/28 29/57/28 28/46/28
f 35/58/29 32/59/29 64/60/29 67/61/29
f 28/62/30 29/63/30 33/64/30 32/65/30
f 31/51/31 28/62/31 32/65/31 35/52/31
f 29/63/32 30/50/32 34/53/32 33/64/32
f 11/66/33 47/67/33 52/68/33 15/24/33
f 50/69/34 45/30/34 9/29/34
f 44/70/35 11/66/35 15/24/35 56/28/35
f 46/71/36 9/29/36 13/10/36 53/12/36
f 49/72/37 9/29/37 46/71/37
f 14/27/38 13/10/38 55/31/38
f 12/11/39 15/24/39 52/68/39
f 38/13/40 39/73/40 40/74/40
f 41/1/41 42/7/41 43/2/41
f 48/75/42 47/67/42 11/66/42
f 44/70/43 51/76/43 11/66/43
f 44/70/44 45/30/44 50/69/44 51/76/44
f 46/71/45 47/67/45 48/75/45 49/72/45
f 52/68/46 53/12/46 12/11/46
f 55/31/47 56/28/47 14/27/47
f 41/1/48 49/23/48 48/8/48 42/7/48
f 38/13/49 51/14/49 50/77/49 39/73/49
f 46/71/50 53/12/50 6/78/50 10/79/50
f 56/28/51 55/31/51 3/17/51 2/20/51
f 1/5/52 39/73/52 50/77/52 9/22/52
f 7/80/53 8/81/53 10/79/53 6/78/53
f 44/70/54 56/28/54 2/20/54 37/19/54
f 45/30/55 44/70/55 37/19/55 36/18/55
f 47/67/56 46/71/56 10/79/56 8/81/56
f 52/68/57 47/67/57 8/81/57 7/80/57
f 53/12/58 52/68/58 7/80/58 6/78/58
f 55/31/59 45/30/59 36/18/59 3/17/59
f 59/4/60 60/16/60 40/74/60 39/73/60 1/5/60
f 58/3/61 61/21/61 5/15/61
f 60/16/62 61/21/62 4/6/62 38/13/62 40/74/62
f 59/4/63 58/3/63 5/15/63
f 17/82/64 18/83/64 57/32/64 62/43/64
f 19/84/65 16/85/65 63/42/65 54/33/65
f 16/85/66 17/82/66 62/43/66 63/42/66
f 18/83/67 19/84/67 54/33/67 57/32/67
f 65/86/68 66/87/68 67/61/68 64/60/68
f 33/88/69 34/89/69 66/87/69 65/86/69
f 34/89/70 35/58/70 67/61/70 66/87/70
f 32/59/71 33/88/71 65/86/71 64/60/71
