# Blender v2.80 (sub 74) OBJ File: 'untitled.blend'
# www.blender.org
mtllib Kriegmesser.mtl
o Kriegmesser_Cube.019
v 0.028521 0.421803 -0.004341
v -0.030904 0.421844 -0.010678
v -0.030909 0.421847 0.001993
v -0.069426 1.665798 -0.004546
v 0.012032 1.295833 -0.004484
v 0.011053 1.385437 -0.004497
v 0.005418 1.455485 -0.004509
v -0.052204 1.569039 -0.003824
v -0.038174 1.449612 -0.003038
v -0.025655 1.325742 -0.002332
v -0.024225 1.225048 -0.001789
v -0.052204 1.569039 -0.005237
v -0.038122 1.449611 -0.005982
v -0.025862 1.333680 -0.006624
v -0.024232 1.225047 -0.007162
v -0.010841 1.539785 -0.004522
v -0.038079 1.619030 -0.004535
v -0.022509 0.421814 0.001351
v -0.022508 0.421812 -0.010038
v -0.030575 0.388356 -0.017343
v 0.016810 0.388190 -0.017343
v 0.016810 0.388194 0.009840
v -0.030575 0.388361 0.009840
v 0.020177 0.044590 -0.015747
v 0.020177 0.044593 0.007297
v -0.031569 0.007282 -0.016218
v -0.031569 0.007286 0.007694
v -0.038977 0.421870 -0.024007
v 0.025448 0.421643 -0.024007
v 0.028998 0.421565 0.015035
v -0.042085 0.421834 0.015154
v -0.039045 0.402380 -0.024004
v 0.025380 0.402153 -0.024004
v 0.025259 0.402186 0.014679
v -0.038925 0.402412 0.014679
v 0.087906 0.418688 -0.011100
v 0.087906 0.418690 0.002417
v -0.101454 0.419357 0.002416
v -0.101454 0.419354 -0.011100
v 0.087859 0.405209 -0.011098
v 0.087859 0.405211 0.002419
v -0.101502 0.405878 0.002419
v -0.101502 0.405875 -0.011098
v 0.147823 0.421901 -0.014536
v 0.147823 0.421905 0.005851
v -0.161346 0.422993 0.005851
v -0.161346 0.422990 -0.014536
v 0.147751 0.401572 -0.014532
v 0.147751 0.401575 0.005854
v -0.161418 0.402664 0.005854
v -0.161418 0.402661 -0.014532
v 0.155049 0.411713 -0.004341
v -0.168644 0.412852 -0.004341
v -0.030134 1.449909 -0.006037
v -0.046039 1.571612 -0.005223
v -0.030138 1.449909 -0.002988
v -0.046039 1.571612 -0.003839
v 0.002647 0.419082 0.024595
v -0.016194 0.419149 0.024595
v 0.002757 0.406063 0.022048
v -0.016396 0.406130 0.022048
v 0.005400 0.398640 0.080935
v -0.019091 0.398726 0.080935
v 0.005193 0.393223 0.074345
v -0.018922 0.393308 0.074345
v 0.003951 0.404988 0.062402
v -0.017598 0.405063 0.062402
v 0.003906 0.413195 0.064668
v -0.017495 0.413270 0.064668
v -0.037830 0.421870 0.001996
v -0.037830 0.421868 -0.010681
v -0.032273 1.325313 -0.002292
v -0.030841 1.224848 -0.001792
v -0.032439 1.333216 -0.006657
v -0.030840 1.224847 -0.007156
v -0.019536 1.224582 -0.001143
v -0.019537 1.224581 -0.007804
v -0.023082 1.225044 -0.002446
v -0.023082 1.225044 -0.006499
v -0.026973 0.421832 -0.000282
v -0.026973 0.421831 -0.008400
v -0.035038 0.067188 0.011049
v 0.019016 0.064556 0.008764
v 0.019015 0.064580 -0.017154
v -0.035038 0.067157 -0.019411
v 0.021021 -0.008550 -0.014333
v 0.021021 -0.008547 0.005830
v -0.014419 -0.010238 0.005830
v -0.014419 -0.010241 -0.014333
v 0.018902 0.077024 0.011053
v -0.034912 0.073234 -0.019819
v -0.034912 0.073240 0.011464
v 0.018902 0.077020 -0.019398
v 0.041752 0.032946 0.001880
v 0.041752 0.032944 -0.010370
vt 0.848753 0.513549
vt 0.848753 0.513549
vt 0.848753 0.513549
vt 0.848753 0.513549
vt 0.848753 0.513549
vt 0.848753 0.513549
vt 0.842160 0.800493
vt 0.842160 0.800493
vt 0.842160 0.800493
vt 0.848753 0.513549
vt 0.848753 0.513549
vt 0.848753 0.513549
vt 0.848753 0.513549
vt 0.848753 0.513549
vt 0.848753 0.513549
vt 0.848753 0.513549
vt 0.848753 0.513549
vt 0.848753 0.513549
vt 0.848753 0.513549
vt 0.848753 0.513549
vt 0.848753 0.513549
vt 0.848753 0.513549
vt 0.842160 0.800493
vt 0.842160 0.800493
vt 0.842160 0.800493
vt 0.842160 0.800493
vt 0.842160 0.800493
vt 0.842160 0.800493
vt 0.842160 0.800493
vt 0.842160 0.800493
vt 0.842160 0.800493
vt 0.842160 0.800493
vt 0.842160 0.800493
vt 0.842160 0.800493
vt 0.842160 0.800493
vt 0.842160 0.800493
vt 0.842160 0.800493
vt 0.842160 0.800493
vt 0.842160 0.800493
vt 0.842160 0.800493
vt 0.842160 0.800493
vt 0.842160 0.800493
vt 0.842160 0.800493
vt 0.842160 0.800493
vt 0.842160 0.800493
vt 0.842160 0.800493
vt 0.842160 0.800493
vt 0.842160 0.800493
vt 0.842160 0.800493
vt 0.842160 0.800493
vt 0.842160 0.800493
vt 0.842160 0.800493
vt 0.842160 0.800493
vt 0.842160 0.800493
vt 0.842160 0.800493
vt 0.842160 0.800493
vt 0.842160 0.800493
vt 0.842160 0.800493
vt 0.842160 0.800493
vt 0.842160 0.800493
vt 0.842160 0.800493
vt 0.842160 0.800493
vt 0.842160 0.800493
vt 0.842160 0.800493
vt 0.842160 0.800493
vt 0.842160 0.800493
vt 0.842160 0.800493
vt 0.848753 0.513549
vt 0.848753 0.513549
vt 0.848753 0.513549
vt 0.848753 0.513549
vt 0.848753 0.513549
vt 0.848753 0.513549
vt 0.842160 0.800493
vt 0.842160 0.800493
vt 0.842160 0.800493
vt 0.842160 0.800493
vt 0.842160 0.800493
vt 0.842160 0.800493
vt 0.842160 0.800493
vt 0.842160 0.800493
vt 0.842160 0.800493
vt 0.842160 0.800493
vt 0.842160 0.800493
vt 0.842160 0.800493
vt 0.842160 0.800493
vt 0.848753 0.513549
vt 0.848753 0.513549
vt 0.848753 0.513549
vt 0.848753 0.513549
vt 0.848753 0.513549
vt 0.848753 0.513549
vt 0.848753 0.513549
vt 0.848753 0.513549
vt 0.848753 0.513549
vt 0.848753 0.513549
vt 0.842160 0.800493
vt 0.842160 0.800493
vt 0.212248 0.820682
vt 0.212248 0.820682
vt 0.212248 0.820682
vt 0.212248 0.820682
vt 0.212248 0.820682
vt 0.212248 0.820682
vt 0.212248 0.820682
vt 0.212248 0.820682
vt 0.842160 0.800493
vt 0.842160 0.800493
vt 0.842160 0.800493
vt 0.842160 0.800493
vt 0.842160 0.800493
vt 0.842160 0.800493
vn 0.0172 0.0118 0.9998
vn -0.9845 -0.1752 0.0000
vn -0.0007 0.0070 -1.0000
vn 0.0039 1.0000 -0.0006
vn -0.0017 0.0053 -1.0000
vn -0.0040 0.0060 -1.0000
vn 0.1067 0.0024 0.9943
vn 0.0696 0.0159 0.9974
vn 0.0517 0.0044 0.9987
vn 0.0422 0.0036 0.9991
vn 0.0415 0.0082 0.9991
vn 0.0292 0.0108 0.9995
vn 0.0284 0.0099 0.9995
vn 0.8542 -0.5199 0.0019
vn 0.0011 1.0000 -0.0083
vn -0.9983 -0.0578 0.0000
vn 0.0049 -0.1023 -0.9947
vn 0.2317 -0.0232 0.9725
vn 0.1533 -0.9880 -0.0159
vn 0.0038 1.0000 0.0039
vn 0.0016 0.9999 0.0122
vn -0.2010 -0.0331 0.9790
vn 0.2023 -0.0009 -0.9793
vn 0.2005 -0.0337 0.9791
vn -0.2023 0.0006 -0.9793
vn 0.8144 -0.0030 -0.5802
vn -0.8144 0.0030 0.5802
vn -0.0572 0.0004 0.9984
vn 0.0572 -0.0004 -0.9984
vn 0.0572 -0.0000 0.9984
vn -0.0572 0.0000 -0.9984
vn 0.8144 -0.0028 0.5802
vn -0.8144 0.0028 -0.5802
vn 0.0442 -0.0577 0.9974
vn -0.7147 -0.6995 0.0001
vn 0.0048 -0.1011 0.9949
vn -0.2157 -0.4301 0.8766
vn 0.0273 -0.0271 0.9993
vn 0.0036 1.0000 -0.0002
vn 0.0035 1.0000 -0.0000
vn -0.0038 0.0063 1.0000
vn -0.0010 0.0056 1.0000
vn -0.3447 0.0039 -0.9387
vn 0.0287 0.0097 -0.9995
vn 0.0294 0.0105 -0.9995
vn 0.0417 0.0079 -0.9991
vn 0.0424 0.0032 -0.9991
vn 0.0518 0.0041 -0.9987
vn 0.0712 0.0149 -0.9973
vn 0.1067 0.0021 -0.9943
vn 0.0176 0.0116 -0.9998
vn 0.0039 1.0000 0.0003
vn -0.0007 0.0073 1.0000
vn -0.0025 -0.7126 -0.7016
vn -0.0020 -0.5652 0.8250
vn -0.3235 -0.1170 0.9390
vn 0.0039 0.9649 0.2626
vn 0.3220 -0.1202 0.9391
vn -0.0027 -0.7725 0.6350
vn 0.9972 0.0317 -0.0671
vn 0.0026 0.7453 0.6667
vn -0.9970 0.0388 -0.0671
vn -0.9994 0.0210 -0.0293
vn 0.0035 0.9894 0.1453
vn 0.9995 0.0140 -0.0293
vn -0.0035 -0.9996 -0.0265
vn -0.0034 -1.0000 0.0062
vn -0.0002 0.0047 1.0000
vn -0.0004 0.0044 -1.0000
vn 0.0025 0.0052 1.0000
vn 0.0018 0.0048 -1.0000
vn -0.0034 -1.0000 -0.0055
vn -0.3460 -0.0099 0.9382
vn 0.5001 -0.0001 0.8660
vn 0.5010 -0.0004 -0.8655
vn 0.4986 0.0118 0.8668
vn -0.3440 0.0042 0.9390
vn -0.3466 -0.0099 -0.9379
vn 0.4994 0.0118 -0.8663
vn 0.2127 -0.4316 0.8766
vn -0.9998 0.0208 -0.0000
vn -0.9999 0.0138 -0.0000
vn 1.0000 0.0067 -0.0000
vn 0.0476 -0.9989 0.0002
vn 1.0000 0.0091 -0.0000
vn 0.8946 -0.4469 0.0001
vn -0.8116 0.5842 -0.0001
vn -0.8157 -0.5784 0.0001
vn 0.8157 0.5784 -0.0001
vn 0.8116 -0.5842 0.0001
vn 0.0606 0.9982 -0.0002
vn 0.0536 -0.9986 0.0002
vn -0.0606 -0.9982 0.0002
vn -0.0536 0.9986 -0.0002
vn -0.0556 -0.9985 0.0008
vn 0.0480 0.9988 -0.0018
vn 0.0486 -0.9988 0.0008
vn -0.0409 0.9992 -0.0018
vn -0.8579 -0.5139 0.0019
vn 0.9983 0.0580 0.0000
vn 0.4750 0.8800 -0.0001
vn -0.9931 -0.1169 -0.0118
vn -0.9982 -0.0481 -0.0363
vn -0.9999 -0.0145 0.0053
vn -1.0000 0.0087 -0.0000
vn -0.0063 1.0000 0.0003
vn 0.0263 -0.1444 0.9892
vn 0.0039 0.0045 1.0000
vn 0.0262 -0.1418 -0.9895
vn 0.0039 0.0072 -1.0000
vn -0.0015 -0.4298 -0.9029
vn 0.0000 -0.0002 -1.0000
vn 0.2305 -0.0222 -0.9728
vn 0.0279 -0.0261 -0.9993
vn 0.0437 -0.0549 -0.9975
usemtl Low_Poly_Image_Texture.021
s off
f 57/1/1 17/2/1 4/3/1
f 12/4/2 8/5/2 4/3/2
f 55/6/3 12/4/3 4/3/3
f 19/7/4 2/8/4 81/9/4
f 14/10/5 74/11/5 13/12/5 54/13/5
f 54/13/6 13/12/6 12/4/6 55/6/6
f 18/14/7 1/15/7 5/16/7 76/17/7
f 76/17/8 5/16/8 10/18/8
f 10/18/9 5/16/9 6/19/9 56/20/9
f 56/20/10 6/19/10 7/21/10
f 56/20/11 7/21/11 16/22/11
f 56/20/12 16/22/12 57/1/12
f 57/1/13 16/22/13 17/2/13
f 33/23/14 34/24/14 22/25/14 21/26/14
f 19/7/15 1/27/15 29/28/15
f 82/29/16 85/30/16 26/31/16 27/32/16
f 26/31/17 86/33/17 89/34/17
f 94/35/18 25/36/18 87/37/18
f 1/27/19 30/38/19 29/28/19
f 18/39/20 31/40/20 30/38/20
f 1/27/21 18/39/21 30/38/21
f 18/39/20 70/41/20 31/40/20
f 35/42/22 31/40/22 38/43/22 42/44/22
f 33/23/23 29/28/23 36/45/23 40/46/23
f 30/38/24 34/24/24 41/47/24 37/48/24
f 28/49/25 32/50/25 43/51/25 39/52/25
f 48/53/26 44/54/26 52/55/26
f 50/56/27 46/57/27 53/58/27
f 37/48/28 41/47/28 49/59/28 45/60/28
f 39/52/29 43/51/29 51/61/29 47/62/29
f 42/44/30 38/43/30 46/57/30 50/56/30
f 40/46/31 36/45/31 44/54/31 48/53/31
f 45/60/32 49/59/32 52/55/32
f 47/62/33 51/61/33 53/58/33
f 83/63/34 82/29/34 27/32/34 25/36/34
f 27/32/35 26/31/35 89/34/35 88/64/35
f 27/32/36 88/64/36 87/37/36
f 23/65/37 61/66/37 35/42/37
f 87/37/38 25/36/38 27/32/38
f 71/67/39 19/7/39 28/49/39
f 19/7/40 29/28/40 28/49/40
f 9/68/41 56/20/41 57/1/41 8/5/41
f 72/69/42 10/18/42 56/20/42 9/68/42
f 77/70/43 19/71/43 81/72/43 79/73/43
f 16/22/44 55/6/44 17/2/44
f 16/22/45 54/13/45 55/6/45
f 7/21/46 54/13/46 16/22/46
f 6/19/47 54/13/47 7/21/47
f 5/16/48 14/10/48 54/13/48 6/19/48
f 5/16/49 77/70/49 14/10/49
f 1/15/50 19/71/50 77/70/50 5/16/50
f 17/2/51 55/6/51 4/3/51
f 3/74/52 18/39/52 80/75/52
f 8/5/53 57/1/53 4/3/53
f 67/76/54 66/77/54 64/78/54 65/79/54
f 60/80/55 61/66/55 23/65/55 22/25/55
f 31/40/56 35/42/56 61/66/56 59/81/56
f 30/38/57 31/40/57 59/81/57 58/82/57
f 34/24/58 30/38/58 58/82/58 60/80/58
f 62/83/59 63/84/59 65/79/59 64/78/59
f 66/77/60 68/85/60 62/83/60 64/78/60
f 68/85/61 69/86/61 63/84/61 62/83/61
f 69/86/62 67/76/62 65/79/62 63/84/62
f 59/81/63 61/66/63 67/76/63 69/86/63
f 58/82/64 59/81/64 69/86/64 68/85/64
f 60/80/65 58/82/65 68/85/65 66/77/65
f 61/66/66 60/80/66 66/77/66 67/76/66
f 18/39/67 3/74/67 70/41/67
f 3/87/68 11/88/68 73/89/68 70/90/68
f 15/91/69 2/92/69 71/93/69 75/94/69
f 11/88/70 10/18/70 72/69/70 73/89/70
f 14/10/71 15/91/71 75/94/71 74/11/71
f 2/8/72 19/7/72 71/67/72
f 76/17/73 10/18/73 78/95/73
f 11/88/74 3/87/74 80/96/74 78/95/74
f 2/92/75 15/91/75 79/73/75 81/72/75
f 10/18/76 11/88/76 78/95/76
f 18/14/77 76/17/77 78/95/77 80/96/77
f 14/10/78 77/70/78 79/73/78
f 15/91/79 14/10/79 79/73/79
f 22/25/80 34/24/80 60/80/80
f 92/97/81 91/98/81 85/30/81 82/29/81
f 23/99/82 20/100/82 91/101/82 92/102/82
f 21/103/83 22/104/83 90/105/83 93/106/83
f 86/33/84 87/37/84 88/64/84 89/34/84
f 93/107/85 90/108/85 83/63/85 84/109/85
f 95/110/86 94/35/86 87/37/86 86/33/86
f 46/57/87 47/62/87 53/58/87
f 51/61/88 50/56/88 53/58/88
f 44/54/89 45/60/89 52/55/89
f 49/59/90 48/53/90 52/55/90
f 38/43/91 39/52/91 47/62/91 46/57/91
f 43/51/92 42/44/92 50/56/92 51/61/92
f 41/47/93 40/46/93 48/53/93 49/59/93
f 36/45/94 37/48/94 45/60/94 44/54/94
f 32/50/95 35/42/95 42/44/95 43/51/95
f 29/28/96 30/38/96 37/48/96 36/45/96
f 34/24/97 33/23/97 40/46/97 41/47/97
f 31/40/98 28/49/98 39/52/98 38/43/98
f 35/42/99 32/50/99 20/111/99 23/65/99
f 84/109/100 83/63/100 25/36/100 24/112/100
f 25/36/101 94/35/101 95/110/101 24/112/101
f 13/12/102 9/68/102 8/5/102 12/4/102
f 74/11/103 72/69/103 9/68/103 13/12/103
f 75/94/104 73/89/104 72/69/104 74/11/104
f 71/93/105 70/90/105 73/89/105 75/94/105
f 70/41/106 71/67/106 28/49/106 31/40/106
f 83/63/107 90/108/107 92/97/107 82/29/107
f 23/99/108 92/102/108 90/105/108 22/104/108
f 85/30/109 91/98/109 93/107/109 84/109/109
f 91/101/110 20/100/110 21/103/110 93/106/110
f 20/111/111 32/50/111 33/23/111 21/26/111
f 29/28/112 33/23/112 32/50/112 28/49/112
f 95/110/113 86/33/113 24/112/113
f 86/33/114 26/31/114 24/112/114
f 26/31/115 85/30/115 84/109/115 24/112/115
