# Blender v2.80 (sub 74) OBJ File: 'untitled.blend'
# www.blender.org
mtllib Double_Axe.mtl
o Double_Axe_Cube.038
v 0.002548 0.967209 -0.037283
v 0.036399 0.967095 -0.003432
v -0.031303 0.967333 -0.003432
v 0.002548 0.967219 0.030420
v 0.003025 1.102621 -0.037305
v 0.036876 1.102508 -0.003454
v -0.030826 1.102746 -0.003454
v 0.003025 1.102632 0.030398
v -0.037165 0.967381 -0.043445
v 0.042261 0.967102 -0.043445
v 0.042261 0.967114 0.036581
v -0.037165 0.967394 0.036581
v -0.036688 1.102739 0.036559
v -0.036688 1.102726 -0.043466
v 0.042738 1.102447 -0.043466
v 0.042738 1.102460 0.036559
v -0.034329 0.107913 -0.003294
v -0.000478 0.107789 -0.037145
v 0.033373 0.107675 -0.003294
v -0.000478 0.107799 0.030558
v 0.003090 1.121201 0.030395
v -0.030761 1.121315 -0.003457
v 0.003090 1.121190 -0.037308
v 0.036941 1.121077 -0.003456
v -0.051334 -0.003804 -0.003276
v -0.000872 -0.003990 -0.053738
v 0.049591 -0.004159 -0.003276
v -0.000872 -0.003974 0.047187
v 0.002294 0.895023 0.022496
v 0.028210 0.894927 -0.003420
v 0.002294 0.895014 -0.029337
v -0.023623 0.895110 -0.003420
v 0.002106 0.841722 0.022505
v 0.002106 0.841714 -0.029328
v 0.028022 0.841626 -0.003412
v -0.023810 0.841809 -0.003412
v 0.001391 0.638740 0.030472
v 0.001391 0.638730 -0.037230
v 0.035242 0.638616 -0.003379
v -0.032460 0.638854 -0.003379
v 0.081403 0.979169 0.012042
v 0.110039 0.979153 0.009498
v 0.110428 1.089935 0.009476
v 0.081794 1.090121 0.012024
v 0.110428 1.089931 -0.016379
v 0.081794 1.090116 -0.018927
v 0.081403 0.979164 -0.018909
v 0.110039 0.979148 -0.016365
v -0.075830 1.090671 -0.018927
v -0.104466 1.090688 -0.016379
v -0.104466 1.090692 0.009476
v -0.075830 1.090676 0.012024
v -0.076221 0.979719 -0.018909
v -0.104857 0.979905 -0.016365
v -0.104857 0.979909 0.009498
v -0.076221 0.979724 0.012042
v 0.171886 0.856984 -0.011714
v 0.171886 0.856987 0.004886
v -0.167562 0.858182 0.004886
v -0.167562 0.858179 -0.011714
v -0.172694 1.163715 -0.011756
v -0.172694 1.163717 0.004830
v 0.179169 1.162478 0.004830
v 0.179169 1.162476 -0.011756
v 0.237963 0.864195 -0.003415
v 0.148354 0.777858 -0.003401
v -0.144588 0.778889 -0.003401
v -0.233587 0.865856 -0.003415
v -0.240870 1.156488 -0.003462
v -0.162594 1.242889 -0.003476
v 0.169628 1.241719 -0.003476
v 0.247293 1.154769 -0.003462
v -0.045142 1.056970 -0.043406
v -0.045295 1.013193 -0.043399
v -0.045295 1.013206 0.036520
v -0.045142 1.056983 0.036513
v 0.050714 1.012855 -0.043398
v 0.050868 1.056632 -0.043406
v 0.050868 1.056645 0.036513
v 0.050714 1.012868 0.036520
v 0.087870 1.053757 -0.018712
v 0.087735 1.015477 -0.018706
v 0.110308 1.053004 -0.016492
v 0.110178 1.016075 -0.016484
v 0.087735 1.015481 0.011827
v 0.087870 1.053762 0.011821
v 0.110178 1.016079 0.009605
v 0.110308 1.053008 0.009601
v -0.082163 1.054361 0.011820
v -0.082298 1.016080 0.011827
v -0.104605 1.053765 0.009601
v -0.104735 1.016836 0.009605
v -0.082298 1.016075 -0.018706
v -0.082163 1.054356 -0.018712
v -0.104735 1.016832 -0.016484
v -0.104605 1.053761 -0.016492
v 0.196818 0.991513 0.004836
v 0.197118 1.076964 0.004826
v -0.191245 1.078331 0.004826
v -0.191546 0.992880 0.004836
v 0.197118 1.076961 -0.011725
v 0.196818 0.991510 -0.011707
v -0.191546 0.992877 -0.011708
v -0.191245 1.078329 -0.011725
v 0.270396 0.994130 -0.003436
v 0.270834 1.073872 -0.003449
v -0.264980 1.075759 -0.003449
v -0.265104 0.996016 -0.003436
v -0.154934 0.926209 -0.012717
v -0.154236 1.124419 0.005856
v -0.154236 1.124416 -0.012770
v -0.154934 0.926212 0.005866
v -0.157552 0.999458 0.005921
v -0.157298 1.071514 0.005899
v -0.157298 1.071511 -0.012796
v -0.157552 0.999455 -0.012795
v 0.160435 1.123311 0.005856
v 0.160435 1.123308 -0.012770
v 0.159737 0.925104 0.005866
v 0.159737 0.925101 -0.012716
v 0.162871 0.998327 -0.012795
v 0.163124 1.070383 -0.012796
v 0.163124 1.070386 0.005899
v 0.162871 0.998330 0.005921
v 0.211796 1.158186 0.002615
v 0.203071 0.861075 0.002683
v 0.234698 1.075779 0.002529
v 0.234598 0.992385 0.002527
v -0.205350 1.159655 0.002615
v -0.198718 0.862490 0.002683
v -0.229319 0.994018 0.002527
v -0.228832 1.077411 0.002529
v -0.198718 0.862488 -0.009513
v -0.205350 1.159653 -0.009540
v -0.228832 1.077410 -0.009428
v -0.229319 0.994016 -0.009399
v 0.203071 0.861073 -0.009513
v 0.211796 1.158184 -0.009540
v 0.234598 0.992383 -0.009399
v 0.234698 1.075777 -0.009427
vt 0.212248 0.820682
vt 0.212248 0.820682
vt 0.212248 0.820682
vt 0.212248 0.820682
vt 0.848753 0.513549
vt 0.848753 0.513549
vt 0.848753 0.513549
vt 0.848753 0.513549
vt 0.212248 0.820682
vt 0.212248 0.820682
vt 0.842160 0.800493
vt 0.842160 0.800493
vt 0.842160 0.800493
vt 0.842160 0.800493
vt 0.842160 0.800493
vt 0.842160 0.800493
vt 0.842160 0.800493
vt 0.842160 0.800493
vt 0.842160 0.800493
vt 0.842160 0.800493
vt 0.842160 0.800493
vt 0.842160 0.800493
vt 0.842160 0.800493
vt 0.842160 0.800493
vt 0.842160 0.800493
vt 0.842160 0.800493
vt 0.842160 0.800493
vt 0.842160 0.800493
vt 0.842160 0.800493
vt 0.842160 0.800493
vt 0.212248 0.820682
vt 0.212248 0.820682
vt 0.212248 0.820682
vt 0.212248 0.820682
vt 0.212248 0.820682
vt 0.212248 0.820682
vt 0.212248 0.820682
vt 0.212248 0.820682
vt 0.212248 0.820682
vt 0.212248 0.820682
vt 0.212248 0.820682
vt 0.212248 0.820682
vt 0.212248 0.820682
vt 0.212248 0.820682
vt 0.212248 0.820682
vt 0.212248 0.820682
vt 0.212248 0.820682
vt 0.212248 0.820682
vt 0.212248 0.820682
vt 0.212248 0.820682
vt 0.212248 0.820682
vt 0.212248 0.820682
vt 0.212248 0.820682
vt 0.212248 0.820682
vt 0.212248 0.820682
vt 0.212248 0.820682
vt 0.842160 0.800493
vt 0.842160 0.800493
vt 0.842160 0.800493
vt 0.842160 0.800493
vt 0.842160 0.800493
vt 0.842160 0.800493
vt 0.842160 0.800493
vt 0.842160 0.800493
vt 0.842160 0.800493
vt 0.842160 0.800493
vt 0.842160 0.800493
vt 0.842160 0.800493
vt 0.842160 0.800493
vt 0.842160 0.800493
vt 0.842160 0.800493
vt 0.842160 0.800493
vt 0.842160 0.800493
vt 0.842160 0.800493
vt 0.842160 0.800493
vt 0.842160 0.800493
vt 0.842160 0.800493
vt 0.842160 0.800493
vt 0.842160 0.800493
vt 0.842160 0.800493
vt 0.842160 0.800493
vt 0.842160 0.800493
vt 0.842160 0.800493
vt 0.842160 0.800493
vt 0.842160 0.800493
vt 0.842160 0.800493
vt 0.842160 0.800493
vt 0.842160 0.800493
vt 0.842160 0.800493
vt 0.842160 0.800493
vt 0.842160 0.800493
vt 0.842160 0.800493
vt 0.842160 0.800493
vt 0.842160 0.800493
vt 0.842160 0.800493
vt 0.842160 0.800493
vt 0.842160 0.800493
vt 0.842160 0.800493
vt 0.842160 0.800493
vt 0.842160 0.800493
vt 0.842160 0.800493
vt 0.842160 0.800493
vt 0.842160 0.800493
vt 0.842160 0.800493
vt 0.848753 0.513549
vt 0.848753 0.513549
vt 0.848753 0.513549
vt 0.848753 0.513549
vt 0.848753 0.513549
vt 0.848753 0.513549
vt 0.848753 0.513549
vt 0.848753 0.513549
vt 0.848753 0.513549
vt 0.848753 0.513549
vt 0.842160 0.800493
vt 0.842160 0.800493
vt 0.842160 0.800493
vt 0.848753 0.513549
vt 0.848753 0.513549
vt 0.848753 0.513549
vt 0.848753 0.513549
vt 0.842160 0.800493
vt 0.842160 0.800493
vt 0.848753 0.513549
vt 0.842160 0.800493
vt 0.842160 0.800493
vt 0.848753 0.513549
vt 0.842160 0.800493
vt 0.842160 0.800493
vt 0.848753 0.513549
vt 0.842160 0.800493
vt 0.842160 0.800493
vt 0.848753 0.513549
vt 0.848753 0.513549
vt 0.848753 0.513549
vt 0.848753 0.513549
vt 0.848753 0.513549
vt 0.848753 0.513549
vt 0.842160 0.800493
vt 0.842160 0.800493
vt 0.842160 0.800493
vt 0.842160 0.800493
vt 0.842160 0.800493
vt 0.842160 0.800493
vt 0.842160 0.800493
vt 0.842160 0.800493
vt 0.842160 0.800493
vt 0.842160 0.800493
vt 0.842160 0.800493
vt 0.842160 0.800493
vt 0.842160 0.800493
vt 0.842160 0.800493
vt 0.842160 0.800493
vt 0.842160 0.800493
vt 0.842160 0.800493
vt 0.842160 0.800493
vt 0.842160 0.800493
vt 0.842160 0.800493
vt 0.842160 0.800493
vt 0.842160 0.800493
vt 0.842160 0.800493
vt 0.842160 0.800493
vt 0.842160 0.800493
vt 0.842160 0.800493
vt 0.842160 0.800493
vt 0.842160 0.800493
vt 0.842160 0.800493
vt 0.848753 0.513549
vn -0.7071 0.0026 0.7071
vn 0.1708 -0.0415 -0.9844
vn 0.7071 -0.0024 0.7071
vn -0.0000 -0.0013 -1.0000
vn 0.0000 0.0013 1.0000
vn -0.0041 -1.0000 -0.0017
vn -0.0016 -1.0000 -0.0004
vn -0.0030 -1.0000 0.0020
vn -0.0054 -1.0000 0.0007
vn 0.0016 1.0000 0.0004
vn 0.0030 1.0000 -0.0020
vn 0.0041 1.0000 0.0017
vn 0.0054 1.0000 -0.0007
vn -0.7029 0.1071 0.7032
vn 0.0035 1.0000 -0.0002
vn 0.7071 -0.0026 -0.7071
vn -0.7071 0.0024 -0.7071
vn -0.0035 -1.0000 0.0002
vn 0.7036 0.1019 -0.7033
vn 0.7036 0.1021 0.7032
vn -0.7029 0.1069 -0.7033
vn 0.7047 -0.0801 -0.7050
vn -0.7053 -0.0749 0.7050
vn -0.7053 -0.0751 -0.7050
vn 0.7047 -0.0798 0.7050
vn 0.7069 0.0250 -0.7068
vn -0.7067 0.0302 0.7068
vn -0.7067 0.0300 -0.7068
vn 0.7069 0.0253 0.7068
vn -0.9585 0.2850 -0.0000
vn 0.9832 -0.1825 0.0000
vn 0.0367 -0.0050 0.9993
vn -0.9021 0.4315 -0.0001
vn -0.0367 -0.0050 -0.9993
vn -0.0350 0.0058 0.9994
vn 0.0350 0.0052 -0.9994
vn 0.5541 0.0930 -0.8272
vn 0.0931 0.0062 -0.9956
vn 0.2944 -0.9557 0.0002
vn -0.0006 -1.0000 0.0002
vn 0.3012 0.9536 -0.0002
vn 0.0065 1.0000 -0.0002
vn 0.5534 -0.0969 0.8273
vn 0.0930 -0.0067 0.9956
vn -0.3011 -0.9536 0.0002
vn -0.0065 -1.0000 0.0002
vn -0.5534 0.0972 0.8272
vn -0.0930 0.0071 0.9956
vn -0.2944 0.9557 -0.0002
vn 0.0006 1.0000 -0.0002
vn -0.5541 -0.0933 -0.8272
vn -0.0930 -0.0064 -0.9956
vn -0.1711 -0.0403 -0.9844
vn -0.1689 0.0489 0.9844
vn 0.1708 -0.0411 0.9844
vn -0.9928 -0.1195 0.0000
vn 0.9920 -0.1265 0.0000
vn 0.1692 0.0474 -0.9844
vn 0.9605 0.2783 -0.0000
vn 0.1638 -0.0008 -0.9865
vn 0.0822 0.1137 0.9901
vn 0.1817 0.1621 -0.9699
vn -0.0814 0.1142 0.9901
vn -0.0876 -0.1286 0.9878
vn -0.1870 -0.1915 -0.9635
vn 0.0867 -0.1296 -0.9878
vn -0.0814 0.1139 -0.9902
vn 0.1856 -0.1925 0.9636
vn -0.9845 -0.1756 0.0000
vn 0.5610 0.8278 -0.0001
vn 0.1692 0.0477 0.9844
vn 0.1638 -0.0005 0.9865
vn -0.1711 -0.0399 0.9844
vn -0.1638 0.0007 0.9865
vn -0.1689 0.0486 -0.9844
vn -0.1638 0.0004 -0.9865
vn -0.0930 0.0068 -0.9956
vn -0.0985 0.0002 -0.9951
vn -0.5534 0.0969 -0.8273
vn -0.5550 0.0018 -0.8319
vn -0.0930 -0.0061 0.9956
vn -0.0985 0.0005 0.9951
vn -0.5541 -0.0930 0.8272
vn -0.5550 0.0021 0.8319
vn 0.0931 0.0065 0.9956
vn 0.0985 -0.0002 0.9951
vn 0.5541 0.0933 0.8272
vn 0.5550 -0.0018 0.8319
vn 0.0930 -0.0071 -0.9956
vn 0.0985 -0.0005 -0.9951
vn 0.5534 -0.0972 -0.8272
vn 0.5550 -0.0021 -0.8319
vn 0.0367 -0.0053 -0.9993
vn 0.0318 -0.0002 -0.9995
vn -0.0367 -0.0047 0.9993
vn -0.0318 0.0003 0.9995
vn -0.0350 0.0054 -0.9994
vn -0.0318 -0.0000 -0.9995
vn 0.0350 0.0055 0.9994
vn 0.0318 0.0001 0.9995
vn -0.0000 -0.0010 1.0000
vn 0.0000 0.0002 1.0000
vn 0.0000 0.0010 -1.0000
vn 0.0000 -0.0002 -1.0000
vn -0.0698 0.0002 -0.9976
vn -0.0691 0.0040 -0.9976
vn -0.0698 0.0005 0.9976
vn -0.0688 -0.0030 0.9976
vn 0.9051 0.4251 -0.0001
vn -0.0691 0.0043 0.9976
vn -0.0688 -0.0034 -0.9976
vn 0.7313 -0.6820 0.0001
vn 0.0698 -0.0000 0.9976
vn 0.0691 0.0038 0.9976
vn 0.0698 -0.0003 -0.9976
vn 0.0688 -0.0038 -0.9976
vn -0.7361 -0.6769 0.0001
vn 0.0691 0.0035 -0.9976
vn -0.5551 0.8318 -0.0001
vn 0.0688 -0.0035 0.9976
vn 0.0610 -0.0001 0.9981
vn 0.0653 0.0154 0.9977
vn 0.0662 -0.0133 0.9977
vn -0.0610 0.0003 0.9981
vn -0.0663 -0.0128 0.9977
vn -0.0652 0.0158 0.9977
vn -0.0610 0.0000 -0.9981
vn -0.0652 0.0155 -0.9978
vn -0.0663 -0.0131 -0.9977
vn 0.0610 -0.0004 -0.9981
vn 0.0653 0.0150 -0.9978
vn 0.0662 -0.0136 -0.9977
vn -0.1870 -0.1912 0.9636
vn -0.1805 0.1637 0.9698
vn 0.1817 0.1624 0.9698
vn 0.0867 -0.1292 0.9878
vn -0.0876 -0.1289 -0.9878
vn 0.1856 -0.1928 -0.9635
vn 0.0822 0.1134 -0.9902
vn -0.1805 0.1634 -0.9699
usemtl Low_Poly_Image_Texture.013
s off
f 7/1/1 8/2/1 21/3/1 22/4/1
f 137/5/2 139/6/2 105/7/2 65/8/2
f 8/2/3 6/9/3 24/10/3 21/3/3
f 73/11/4 14/12/4 15/13/4 78/14/4
f 75/15/5 12/16/5 11/17/5 80/18/5
f 1/19/6 3/20/6 9/21/6 10/22/6
f 2/23/7 1/19/7 10/22/7 11/17/7
f 4/24/8 2/23/8 11/17/8 12/16/8
f 3/20/9 4/24/9 12/16/9 9/21/9
f 8/25/10 7/26/10 14/12/10 13/27/10
f 7/26/11 5/28/11 15/13/11 14/12/11
f 6/29/12 8/25/12 13/27/12 16/30/12
f 5/28/13 6/29/13 16/30/13 15/13/13
f 20/31/14 17/32/14 25/33/14 28/34/14
f 22/4/15 21/3/15 24/10/15 23/35/15
f 6/9/16 5/36/16 23/35/16 24/10/16
f 5/36/17 7/1/17 22/4/17 23/35/17
f 26/37/18 27/38/18 28/34/18 25/33/18
f 18/39/19 19/40/19 27/38/19 26/37/19
f 19/40/20 20/31/20 28/34/20 27/38/20
f 17/32/21 18/39/21 26/37/21 25/33/21
f 1/41/22 2/42/22 30/43/22 31/44/22
f 4/45/23 3/46/23 32/47/23 29/48/23
f 3/46/24 1/41/24 31/44/24 32/47/24
f 2/42/25 4/45/25 29/48/25 30/43/25
f 31/44/16 30/43/16 35/49/16 34/50/16
f 29/48/1 32/47/1 36/51/1 33/52/1
f 32/47/17 31/44/17 34/50/17 36/51/17
f 30/43/3 29/48/3 33/52/3 35/49/3
f 34/50/26 35/49/26 39/53/26 38/54/26
f 33/52/27 36/51/27 40/55/27 37/56/27
f 36/51/28 34/50/28 38/54/28 40/55/28
f 35/49/29 33/52/29 37/56/29 39/53/29
f 58/57/30 57/58/30 66/59/30
f 109/60/31 112/61/31 59/62/31 60/63/31
f 124/64/32 119/65/32 58/57/32 97/66/32
f 118/67/33 117/68/33 63/69/33 64/70/33
f 116/71/34 109/60/34 60/63/34 103/72/34
f 114/73/35 110/74/35 62/75/35 99/76/35
f 122/77/36 118/67/36 64/70/36 101/78/36
f 78/14/37 15/13/37 46/79/37 81/80/37
f 81/80/38 46/79/38 45/81/38 83/82/38
f 11/17/39 10/22/39 47/83/39 41/84/39
f 41/84/40 47/83/40 48/85/40 42/86/40
f 15/13/41 16/30/41 44/87/41 46/79/41
f 46/79/42 44/87/42 43/88/42 45/81/42
f 80/18/43 11/17/43 41/84/43 85/89/43
f 85/89/44 41/84/44 42/86/44 87/90/44
f 9/21/45 12/16/45 56/91/45 53/92/45
f 53/92/46 56/91/46 55/93/46 54/94/46
f 76/95/47 13/27/47 52/96/47 89/97/47
f 89/97/48 52/96/48 51/98/48 91/99/48
f 13/27/49 14/12/49 49/100/49 52/96/49
f 52/96/50 49/100/50 50/101/50 51/98/50
f 74/102/51 9/21/51 53/92/51 93/103/51
f 93/103/52 53/92/52 54/94/52 95/104/52
f 136/105/53 133/106/53 68/107/53 108/108/53
f 132/109/54 129/110/54 69/111/54 107/112/54
f 128/113/55 126/114/55 65/8/55 105/7/55
f 64/70/56 63/69/56 71/115/56
f 62/75/57 61/116/57 70/117/57
f 140/118/58 138/119/58 72/120/58 106/121/58
f 60/63/59 59/62/59 67/122/59
f 38/54/16 39/53/16 19/40/16 18/39/16
f 37/56/1 40/55/1 17/32/1 20/31/1
f 40/55/17 38/54/17 18/39/17 17/32/17
f 39/53/3 37/56/3 20/31/3 19/40/3
f 139/6/60 140/118/60 106/121/60 105/7/60
f 63/69/61 125/123/61 71/115/61
f 72/120/62 138/119/62 71/124/62
f 62/75/63 70/117/63 129/125/63
f 67/122/64 59/62/64 130/126/64
f 68/107/65 133/106/65 67/127/65
f 66/59/66 57/58/66 137/128/66
f 61/116/67 134/129/67 70/117/67
f 65/8/68 126/114/68 66/130/68
f 119/65/69 120/131/69 57/58/69 58/57/69
f 110/74/70 51/98/70 50/101/70 111/132/70
f 125/133/71 127/134/71 106/121/71 72/120/71
f 127/134/72 128/113/72 105/7/72 106/121/72
f 130/135/73 131/136/73 108/108/73 68/107/73
f 131/136/74 132/109/74 107/112/74 108/108/74
f 134/137/75 135/138/75 107/112/75 69/111/75
f 135/138/76 136/105/76 108/108/76 107/112/76
f 49/100/77 94/139/77 96/140/77 50/101/77
f 94/139/78 93/103/78 95/104/78 96/140/78
f 14/12/79 73/11/79 94/139/79 49/100/79
f 73/11/80 74/102/80 93/103/80 94/139/80
f 56/91/81 90/141/81 92/142/81 55/93/81
f 90/141/82 89/97/82 91/99/82 92/142/82
f 12/16/83 75/15/83 90/141/83 56/91/83
f 75/15/84 76/95/84 89/97/84 90/141/84
f 44/87/85 86/143/85 88/144/85 43/88/85
f 86/143/86 85/89/86 87/90/86 88/144/86
f 16/30/87 79/145/87 86/143/87 44/87/87
f 79/145/88 80/18/88 85/89/88 86/143/88
f 47/83/89 82/146/89 84/147/89 48/85/89
f 82/146/90 81/80/90 83/82/90 84/147/90
f 10/22/91 77/148/91 82/146/91 47/83/91
f 77/148/92 78/14/92 81/80/92 82/146/92
f 120/131/93 121/149/93 102/150/93 57/58/93
f 121/149/94 122/77/94 101/78/94 102/150/94
f 112/61/95 113/151/95 100/152/95 59/62/95
f 113/151/96 114/73/96 99/76/96 100/152/96
f 111/132/97 115/153/97 104/154/97 61/116/97
f 115/153/98 116/71/98 103/72/98 104/154/98
f 117/68/99 123/155/99 98/156/99 63/69/99
f 123/155/100 124/64/100 97/66/100 98/156/100
f 13/27/101 76/95/101 79/145/101 16/30/101
f 76/95/102 75/15/102 80/18/102 79/145/102
f 9/21/103 74/102/103 77/148/103 10/22/103
f 74/102/104 73/11/104 78/14/104 77/148/104
f 96/140/105 95/104/105 116/71/105 115/153/105
f 50/101/106 96/140/106 115/153/106 111/132/106
f 92/142/107 91/99/107 114/73/107 113/151/107
f 55/93/108 92/142/108 113/151/108 112/61/108
f 62/75/109 110/74/109 111/132/109 61/116/109
f 91/99/110 51/98/110 110/74/110 114/73/110
f 95/104/111 54/94/111 109/60/111 116/71/111
f 54/94/112 55/93/112 112/61/112 109/60/112
f 88/144/113 87/90/113 124/64/113 123/155/113
f 43/88/114 88/144/114 123/155/114 117/68/114
f 84/147/115 83/82/115 122/77/115 121/149/115
f 48/85/116 84/147/116 121/149/116 120/131/116
f 42/86/117 48/85/117 120/131/117 119/65/117
f 83/82/118 45/81/118 118/67/118 122/77/118
f 45/81/119 43/88/119 117/68/119 118/67/119
f 87/90/120 42/86/120 119/65/120 124/64/120
f 98/156/121 97/66/121 128/157/121 127/158/121
f 63/69/122 98/156/122 127/158/122 125/123/122
f 97/66/123 58/57/123 126/159/123 128/157/123
f 100/152/124 99/76/124 132/160/124 131/161/124
f 59/62/125 100/152/125 131/161/125 130/126/125
f 99/76/126 62/75/126 129/125/126 132/160/126
f 104/154/127 103/72/127 136/162/127 135/163/127
f 61/116/128 104/154/128 135/163/128 134/129/128
f 103/72/129 60/63/129 133/164/129 136/162/129
f 102/150/130 101/78/130 140/165/130 139/166/130
f 101/78/131 64/70/131 138/167/131 140/165/131
f 57/58/132 102/150/132 139/166/132 137/128/132
f 130/135/133 68/107/133 67/127/133
f 129/110/134 70/168/134 69/111/134
f 71/124/135 125/133/135 72/120/135
f 66/59/136 126/159/136 58/57/136
f 67/122/137 133/164/137 60/63/137
f 137/5/138 65/8/138 66/130/138
f 71/115/139 138/167/139 64/70/139
f 70/168/140 134/137/140 69/111/140
