# Blender v2.80 (sub 74) OBJ File: 'untitled.blend'
# www.blender.org
mtllib Spear.mtl
o Spear_Cylinder.015
v -0.001296 0.038654 0.042502
v 0.005277 1.905153 0.025651
v -0.041718 0.038796 0.013134
v -0.021003 1.904858 0.008399
v -0.026278 0.038742 -0.034386
v -0.010641 1.905502 -0.021062
v 0.023686 0.038566 -0.034386
v 0.021197 1.905390 -0.021062
v 0.039126 0.038512 0.013134
v 0.031554 1.904673 0.008399
v 0.021244 1.882567 -0.022087
v 0.006208 2.169601 0.000000
v -0.010849 1.882680 -0.022087
v -0.020767 1.882715 0.008436
v 0.005197 1.882624 0.027300
v 0.039032 1.927265 -0.024028
v 0.058585 1.928187 0.008397
v -0.047869 1.928562 0.008397
v -0.028322 1.927502 -0.024028
v 0.005356 1.927746 0.030599
v 0.031162 1.882532 0.008436
v -0.020867 1.854302 0.008436
v -0.010949 1.854267 -0.022087
v 0.021144 1.854154 -0.022087
v 0.031061 1.854119 0.008436
v 0.005097 1.854210 0.027300
v -0.020936 1.834544 0.008436
v -0.011019 1.834509 -0.022087
v 0.021074 1.834396 -0.022087
v 0.030992 1.834361 0.008436
v 0.005028 1.834452 0.027300
v -0.028236 1.880642 0.010860
v -0.028321 1.856427 0.010860
v 0.005190 1.880524 0.035145
v -0.015468 1.880597 -0.028434
v 0.025848 1.880452 -0.028434
v 0.038615 1.880407 0.010860
v 0.005105 1.856309 0.035145
v -0.015553 1.856382 -0.028434
v 0.025763 1.856237 -0.028434
v 0.038530 1.856192 0.010860
v -0.021026 1.809060 0.008436
v -0.011109 1.809025 -0.022087
v 0.020985 1.808912 -0.022087
v 0.030902 1.808877 0.008436
v 0.004938 1.808968 0.027300
v 0.004943 1.810267 0.032346
v 0.005023 1.833153 0.032346
v -0.013989 1.833220 -0.026169
v 0.024035 1.833086 -0.026169
v 0.035786 1.833045 0.009995
v -0.025739 1.833261 0.009995
v -0.025820 1.810376 0.009995
v -0.014070 1.810334 -0.026169
v 0.023955 1.810200 -0.026169
v 0.035705 1.810159 0.009995
v -0.025681 0.487119 0.008436
v -0.015764 0.487084 -0.022087
v 0.016330 0.486971 -0.022087
v 0.026247 0.486937 0.008436
v 0.000283 0.487028 0.027300
v -0.001388 0.012565 0.042502
v -0.041810 0.012707 0.013134
v -0.026370 0.012653 -0.034386
v 0.023595 0.012477 -0.034386
v 0.039034 0.012422 0.013134
v -0.039276 0.107060 0.012419
v -0.024677 0.107009 -0.032513
v 0.022566 0.106843 -0.032513
v 0.037165 0.106791 0.012419
v -0.001055 0.106926 0.040188
v 0.001488 0.829088 0.027300
v -0.024477 0.829179 0.008436
v -0.014559 0.829144 -0.022087
v 0.017534 0.829031 -0.022087
v 0.027452 0.828997 0.008436
v -0.026511 0.829187 0.009097
v -0.027715 0.487127 0.009097
v -0.015816 0.829149 -0.023817
v -0.017021 0.487089 -0.023817
v 0.018791 0.829027 -0.023817
v 0.017587 0.486967 -0.023817
v 0.029486 0.828989 0.009097
v 0.028281 0.486929 0.009097
v 0.000283 0.487028 0.029439
v 0.001488 0.829088 0.029439
v -0.001440 -0.002242 0.036909
v -0.036542 -0.002118 0.011405
v -0.023134 -0.002165 -0.029860
v 0.020255 -0.002318 -0.029860
v 0.033662 -0.002365 0.011405
vt 0.848753 0.513549
vt 0.848753 0.513549
vt 0.848753 0.513549
vt 0.848753 0.513549
vt 0.848753 0.513549
vt 0.848753 0.513549
vt 0.848753 0.513549
vt 0.848753 0.513549
vt 0.848753 0.513549
vt 0.848753 0.513549
vt 0.848753 0.513549
vt 0.848753 0.513549
vt 0.848753 0.513549
vt 0.848753 0.513549
vt 0.848753 0.513549
vt 0.848753 0.513549
vt 0.848753 0.513549
vt 0.504913 0.864008
vt 0.504913 0.864008
vt 0.504913 0.864008
vt 0.504913 0.864008
vt 0.848753 0.513549
vt 0.848753 0.513549
vt 0.848753 0.513549
vt 0.504913 0.864008
vt 0.504913 0.864008
vt 0.504913 0.864008
vt 0.504913 0.864008
vt 0.504913 0.864008
vt 0.504913 0.864008
vt 0.504913 0.864008
vt 0.504913 0.864008
vt 0.504913 0.864008
vt 0.504913 0.864008
vt 0.212248 0.820682
vt 0.212248 0.820682
vt 0.212248 0.820682
vt 0.212248 0.820682
vt 0.212248 0.820682
vt 0.212248 0.820682
vt 0.212248 0.820682
vt 0.212248 0.820682
vt 0.212248 0.820682
vt 0.212248 0.820682
vt 0.504913 0.864008
vt 0.504913 0.864008
vt 0.504913 0.864008
vt 0.504913 0.864008
vt 0.504913 0.864008
vt 0.504913 0.864008
vt 0.504913 0.864008
vt 0.504913 0.864008
vt 0.504913 0.864008
vt 0.504913 0.864008
vt 0.504913 0.864008
vt 0.504913 0.864008
vt 0.504913 0.864008
vt 0.504913 0.864008
vt 0.504913 0.864008
vt 0.504913 0.864008
vt 0.504913 0.864008
vt 0.504913 0.864008
vt 0.504913 0.864008
vt 0.504913 0.864008
vt 0.504913 0.864008
vt 0.504913 0.864008
vt 0.504913 0.864008
vt 0.504913 0.864008
vt 0.212248 0.820682
vt 0.212248 0.820682
vt 0.212248 0.820682
vt 0.212248 0.820682
vt 0.212248 0.820682
vt 0.212248 0.820682
vt 0.212248 0.820682
vt 0.212248 0.820682
vt 0.212248 0.820682
vt 0.212248 0.820682
vt 0.504913 0.864008
vt 0.504913 0.864008
vt 0.212248 0.820682
vt 0.212248 0.820682
vt 0.212248 0.820682
vt 0.212248 0.820682
vt 0.212248 0.820682
vt 0.212248 0.820682
vt 0.212248 0.820682
vt 0.212248 0.820682
vt 0.212248 0.820682
vt 0.212248 0.820682
vt 0.848753 0.513549
vt 0.848753 0.513549
vt 0.848753 0.513549
vt 0.848753 0.513549
vt 0.848753 0.513549
vt 0.848753 0.513549
vt 0.212248 0.820682
vt 0.212248 0.820682
vt 0.212248 0.820682
vt 0.212248 0.820682
vt 0.212248 0.820682
vt 0.212248 0.820682
vt 0.212248 0.820682
vt 0.212248 0.820682
vt 0.212248 0.820682
vt 0.504913 0.864008
vt 0.504913 0.864008
vt 0.504913 0.864008
vt 0.504913 0.864008
vt 0.504913 0.864008
vt 0.504913 0.864008
vt 0.504913 0.864008
vt 0.504913 0.864008
vt 0.504913 0.864008
vt 0.504913 0.864008
vt 0.504913 0.864008
vt 0.504913 0.864008
vt 0.504913 0.864008
vt 0.504913 0.864008
vt 0.504913 0.864008
vt 0.504913 0.864008
vt 0.212248 0.820682
vt 0.212248 0.820682
vt 0.212248 0.820682
vt 0.212248 0.820682
vt 0.212248 0.820682
vt 0.212248 0.820682
vt 0.212248 0.820682
vt 0.212248 0.820682
vt 0.212248 0.820682
vt 0.212248 0.820682
vt 0.504913 0.864008
vt 0.504913 0.864008
vt 0.504913 0.864008
vt 0.504913 0.864008
vt 0.212248 0.820682
vt 0.212248 0.820682
vt 0.212248 0.820682
vt 0.212248 0.820682
vt 0.212248 0.820682
vt 0.212248 0.820682
vn -0.5685 0.0290 0.8222
vn -0.9473 0.0064 -0.3202
vn 0.0002 0.0448 -0.9990
vn 0.8425 0.1650 -0.5128
vn 0.9473 -0.0002 -0.3202
vn 0.5687 0.0250 0.8222
vn 0.9511 -0.0033 -0.3090
vn 0.2953 -0.9505 -0.0970
vn -0.8413 0.1709 -0.5128
vn 0.3816 0.1147 0.9172
vn -0.3808 0.1174 0.9172
vn 0.0003 0.0987 -0.9951
vn -0.0005 -0.1340 -0.9910
vn -0.4208 -0.3336 0.8436
vn 0.4185 -0.3365 0.8436
vn -0.6684 -0.6722 -0.3185
vn 0.6637 -0.6768 -0.3185
vn -0.2953 0.9505 -0.0970
vn 0.1879 0.9488 0.2540
vn 0.1812 -0.9501 0.2540
vn -0.1812 0.9501 0.2541
vn -0.5878 0.0021 0.8090
vn -0.9511 0.0033 -0.3090
vn 0.5878 -0.0021 0.8090
vn 0.0000 0.0000 -1.0000
vn -0.0034 -0.9529 -0.3033
vn -0.2851 0.9539 -0.0937
vn -0.1816 -0.9523 0.2454
vn 0.2851 -0.9539 -0.0937
vn 0.1817 0.9523 0.2454
vn -0.1879 -0.9488 0.2541
vn 0.0033 0.9494 -0.3140
vn -0.0033 -0.9494 -0.3140
vn -0.3020 -0.9484 -0.0970
vn 0.3020 0.9484 -0.0970
vn 0.0034 0.9529 -0.3033
vn -0.2918 -0.9519 -0.0937
vn -0.1749 0.9535 0.2455
vn 0.2918 0.9519 -0.0937
vn 0.1749 -0.9535 0.2454
vn 0.0001 0.0274 -0.9996
vn 0.9508 0.0241 -0.3089
vn 0.5877 0.0253 0.8087
vn -0.9506 0.0308 -0.3089
vn -0.5875 0.0295 0.8087
vn 0.9085 -0.2955 -0.2955
vn -0.0035 -1.0000 0.0000
vn 0.0035 1.0000 0.0000
vn -0.9106 -0.2891 -0.2955
vn 0.5611 -0.2943 0.7737
vn -0.0010 -0.2923 -0.9563
vn -0.5631 -0.2903 0.7737
usemtl Low_Poly_Image_Texture.032
s off
f 15/1/1 2/2/1 4/3/1 14/4/1
f 14/4/2 4/3/2 6/5/2 13/6/2
f 13/6/3 6/5/3 8/7/3 11/8/3
f 17/9/4 16/10/4 12/11/4
f 11/8/5 8/7/5 10/12/5 21/13/5
f 21/13/6 10/12/6 2/2/6 15/1/6
f 7/14/7 9/15/7 66/16/7 65/17/7
f 25/18/8 24/19/8 40/20/8 41/21/8
f 19/22/9 18/23/9 12/11/9
f 20/24/10 17/9/10 12/11/10
f 18/23/11 20/24/11 12/11/11
f 16/10/12 19/22/12 12/11/12
f 8/7/13 6/5/13 19/22/13 16/10/13
f 4/3/14 2/2/14 20/24/14 18/23/14
f 2/2/15 10/12/15 17/9/15 20/24/15
f 6/5/16 4/3/16 18/23/16 19/22/16
f 10/12/17 8/7/17 16/10/17 17/9/17
f 14/25/18 13/26/18 35/27/18 32/28/18
f 21/29/19 15/30/19 34/31/19 37/32/19
f 26/33/20 25/18/20 41/21/20 38/34/20
f 15/30/21 14/25/21 32/28/21 34/31/21
f 31/35/22 26/36/22 22/37/22 27/38/22
f 27/38/23 22/37/23 23/39/23 28/40/23
f 30/41/24 25/42/24 26/36/24 31/35/24
f 29/43/7 24/44/7 25/42/7 30/41/7
f 28/40/25 23/39/25 24/44/25 29/43/25
f 44/45/26 43/46/26 54/47/26 55/48/26
f 27/49/27 28/50/27 49/51/27 52/52/27
f 42/53/28 46/54/28 47/55/28 53/56/28
f 45/57/29 44/45/29 55/48/29 56/58/29
f 30/59/30 31/60/30 48/61/30 51/62/30
f 39/63/25 35/27/25 36/64/25 40/20/25
f 40/20/7 36/64/7 37/32/7 41/21/7
f 41/21/24 37/32/24 34/31/24 38/34/24
f 33/65/23 32/28/23 35/27/23 39/63/23
f 38/34/22 34/31/22 32/28/22 33/65/22
f 22/66/31 26/33/31 38/34/31 33/65/31
f 13/26/32 11/67/32 36/64/32 35/27/32
f 24/19/33 23/68/33 39/63/33 40/20/33
f 23/68/34 22/66/34 33/65/34 39/63/34
f 11/67/35 21/29/35 37/32/35 36/64/35
f 72/69/22 46/70/22 42/71/22 73/72/22
f 73/72/23 42/71/23 43/73/23 74/74/23
f 76/75/24 45/76/24 46/70/24 72/69/24
f 75/77/7 44/78/7 45/76/7 76/75/7
f 74/74/25 43/73/25 44/78/25 75/77/25
f 54/47/25 49/51/25 50/79/25 55/48/25
f 55/48/7 50/79/7 51/62/7 56/58/7
f 56/58/24 51/62/24 48/61/24 47/55/24
f 53/56/23 52/52/23 49/51/23 54/47/23
f 47/55/22 48/61/22 52/52/22 53/56/22
f 28/50/36 29/80/36 50/79/36 49/51/36
f 43/46/37 42/53/37 53/56/37 54/47/37
f 31/60/38 27/49/38 52/52/38 48/61/38
f 29/80/39 30/59/39 51/62/39 50/79/39
f 46/54/40 45/57/40 56/58/40 47/55/40
f 68/81/41 58/82/41 59/83/41 69/84/41
f 69/84/42 59/83/42 60/85/42 70/86/42
f 70/86/43 60/85/43 61/87/43 71/88/43
f 67/89/44 57/90/44 58/82/44 68/81/44
f 71/88/45 61/87/45 57/90/45 67/89/45
f 3/91/23 5/92/23 64/93/23 63/94/23
f 9/15/24 1/95/24 62/96/24 66/16/24
f 1/95/22 3/91/22 63/94/22 62/96/22
f 5/92/25 7/14/25 65/17/25 64/93/25
f 65/97/46 66/98/46 91/99/46 90/100/46
f 1/101/45 71/88/45 67/89/45 3/102/45
f 3/102/44 67/89/44 68/81/44 5/103/44
f 9/104/43 70/86/43 71/88/43 1/101/43
f 7/105/42 69/84/42 70/86/42 9/104/42
f 5/103/41 68/81/41 69/84/41 7/105/41
f 60/106/47 59/107/47 82/108/47 84/109/47
f 74/110/48 75/111/48 81/112/48 79/113/48
f 57/114/47 61/115/47 85/116/47 78/117/47
f 73/118/48 74/110/48 79/113/48 77/119/48
f 59/107/47 58/120/47 80/121/47 82/108/47
f 80/122/25 79/123/25 81/124/25 82/125/25
f 82/125/7 81/124/7 83/126/7 84/127/7
f 84/127/24 83/126/24 86/128/24 85/129/24
f 78/130/23 77/131/23 79/123/23 80/122/23
f 85/129/22 86/128/22 77/131/22 78/130/22
f 72/132/48 73/118/48 77/119/48 86/133/48
f 75/111/48 76/134/48 83/135/48 81/112/48
f 61/115/47 60/106/47 84/109/47 85/116/47
f 76/134/48 72/132/48 86/133/48 83/135/48
f 58/120/47 57/114/47 78/117/47 80/121/47
f 89/136/47 90/100/47 91/99/47 87/137/47 88/138/47
f 63/139/49 64/140/49 89/136/49 88/138/49
f 66/98/50 62/141/50 87/137/50 91/99/50
f 64/140/51 65/97/51 90/100/51 89/136/51
f 62/141/52 63/139/52 88/138/52 87/137/52
