# Blender 3.4.1
# www.blender.org
mtllib Trunk 002.mtl
o Trunk_002
v 0.210611 0.001013 0.644217
v 0.167000 1.371543 0.517034
v -0.139604 -0.001002 0.663198
v -0.110054 1.371069 0.526062
v -0.452390 -0.001002 0.504528
v -0.363826 1.038999 0.401299
v -0.643935 -0.001002 0.210722
v -0.511496 1.096854 0.164278
v -0.662915 0.002806 -0.139493
v -0.527766 1.101732 -0.108649
v -0.504245 0.001165 -0.452279
v -0.403900 1.226778 -0.360099
v -0.210440 -0.001002 -0.643825
v -0.166497 1.224993 -0.509737
v 0.139776 -0.001002 -0.662805
v 0.113936 0.977959 -0.528166
v 0.452561 -0.003406 -0.504135
v 0.360110 1.039678 -0.400245
v 0.644107 -0.001002 -0.210329
v 0.511792 1.026140 -0.168841
v 0.663087 -0.001002 0.139886
v 0.527176 0.926298 0.111952
v 0.504417 0.005449 0.452672
v 0.404553 0.999170 0.357470
v -0.140392 1.381840 0.663816
v 0.210874 1.381366 0.638791
v -0.447785 1.025092 0.503909
v -0.643765 1.099990 0.213817
v -0.661547 1.095111 -0.141575
v -0.500745 1.233400 -0.451291
v -0.211034 1.235185 -0.645302
v 0.136852 0.964072 -0.660926
v 0.451844 1.044162 -0.504178
v 0.643811 1.030639 -0.208468
v 0.662480 0.917053 0.139057
v 0.500434 0.993302 0.454705
v -0.036364 0.702457 0.173195
v 0.055019 0.702457 0.168242
v -0.117980 0.702457 0.131793
v -0.167960 0.702457 0.055130
v -0.172913 0.702457 -0.036253
v -0.131510 0.702457 -0.117869
v -0.054847 0.702457 -0.167850
v 0.036535 0.702457 -0.172802
v 0.118151 0.702457 -0.131400
v 0.168131 0.702457 -0.054737
v 0.173084 0.702457 0.036646
v 0.131682 0.702457 0.118262
v -0.110841 0.702457 0.526680
v 0.167262 0.702457 0.511608
v -0.359221 0.702457 0.400681
v -0.511326 0.702457 0.167373
v -0.526397 0.702457 -0.110730
v -0.400399 0.702457 -0.359110
v -0.167091 0.702457 -0.511215
v 0.111012 0.702457 -0.526287
v 0.359392 0.702457 -0.400288
v 0.511497 0.702457 -0.166980
v 0.526569 0.702457 0.111123
v 0.400570 0.702457 0.359503
v -0.078005 0.702457 0.370834
v 0.117776 0.702457 0.360224
v -0.252862 0.702457 0.282133
v -0.359941 0.702457 0.117887
v -0.370552 0.702457 -0.077894
v -0.281851 0.702457 -0.252751
v -0.117604 0.702457 -0.359830
v 0.078176 0.702457 -0.370441
v 0.253033 0.702457 -0.281740
v 0.360112 0.702457 -0.117494
v 0.370723 0.702457 0.078287
v 0.282022 0.702457 0.253144
v 0.209423 0.236845 0.643655
v 0.208236 0.473688 0.643093
v 0.207048 0.710532 0.642531
v -0.136196 0.710532 0.665552
v -0.137332 0.473688 0.664767
v -0.138468 0.236845 0.663983
v -0.452800 0.710532 0.502381
v -0.452663 0.473688 0.503097
v -0.452527 0.236845 0.503812
v -0.643942 0.710532 0.212835
v -0.643940 0.473688 0.212131
v -0.643938 0.236845 0.211426
v -0.662382 0.710532 -0.140139
v -0.662560 0.473688 -0.139924
v -0.662738 0.236845 -0.139709
v -0.501127 0.710532 -0.452453
v -0.502166 0.473688 -0.452395
v -0.503206 0.236845 -0.452337
v -0.214023 0.710532 -0.644671
v -0.212829 0.473688 -0.644389
v -0.211634 0.236845 -0.644107
v 0.140443 0.710532 -0.661800
v 0.140221 0.473688 -0.662135
v 0.139998 0.236845 -0.662470
v 0.452293 0.710532 -0.504034
v 0.452382 0.473688 -0.504067
v 0.452472 0.236845 -0.504101
v 0.643859 0.710532 -0.209594
v 0.643941 0.473688 -0.209839
v 0.644024 0.236845 -0.210084
v 0.662822 0.710532 0.139621
v 0.662910 0.473688 0.139709
v 0.662998 0.236845 0.139798
v 0.505033 0.710532 0.452129
v 0.504828 0.473688 0.452310
v 0.504622 0.236845 0.452491
v -0.769919 0.453543 0.155332
v -0.769874 0.257101 0.154749
v -0.763792 0.453543 -0.137012
v -0.763952 0.257101 -0.136844
v -0.903446 0.444906 0.094428
v -0.903377 0.285987 0.093960
v -0.882160 0.444906 -0.141167
v -0.882299 0.285987 -0.141041
v -0.973868 0.450871 0.076057
v -0.970182 0.313201 0.075852
v -0.958853 0.450871 -0.128317
v -0.962616 0.313201 -0.128405
vn 0.0690 0.0041 0.9976
vn -0.4600 0.0006 0.8879
vn -0.8313 0.0041 0.5558
vn -0.9987 0.0013 0.0511
vn -0.8881 0.0011 -0.4596
vn -0.5564 0.0022 -0.8309
vn -0.0465 0.0003 -0.9989
vn 0.4480 0.0042 -0.8940
vn 0.8385 0.0015 -0.5449
vn 0.9986 0.0008 -0.0538
vn 0.5397 0.0011 0.8419
vn 0.8915 0.0071 0.4530
vn 0.5382 0.0015 0.8428
vn -0.0004 -1.0000 0.0014
vn -0.0043 0.9969 -0.0789
vn -0.6703 0.6742 -0.3100
vn 0.0854 0.9779 0.1906
vn -0.0131 0.9999 0.0007
vn -0.1830 0.9224 0.3400
vn 0.0343 0.9980 0.0526
vn 0.6330 0.7717 -0.0616
vn -0.1820 0.9751 -0.1269
vn -0.0051 0.9985 0.0546
vn 0.0318 0.9469 0.3199
vn 0.1589 0.9712 -0.1775
vn 0.6442 0.6375 -0.4226
vn 0.8435 0.0037 -0.5372
vn -0.9985 0.0017 0.0547
vn 0.0600 0.0002 0.9982
vn 0.9984 0.0019 -0.0568
vn -0.8928 0.0068 -0.4504
vn -0.0434 0.0036 -0.9991
vn -0.4573 0.0054 0.8893
vn 0.8940 0.0042 0.4480
vn -0.5492 0.0051 -0.8357
vn 0.4459 0.0017 -0.8951
vn -0.8370 0.0028 0.5472
vn 0.5448 0.0025 0.8385
vn 0.5423 0.0024 0.8402
vn 0.5397 0.0024 0.8418
vn 0.8920 -0.0000 0.4521
vn 0.8922 -0.0000 0.4516
vn 0.8925 -0.0000 0.4510
vn 0.9985 0.0004 -0.0541
vn 0.9985 0.0004 -0.0542
vn 0.8378 0.0006 -0.5460
vn 0.8380 0.0006 -0.5457
vn 0.8381 0.0006 -0.5455
vn 0.4522 0.0006 -0.8919
vn 0.4519 0.0006 -0.8921
vn 0.4516 0.0006 -0.8922
vn -0.0531 -0.0000 -0.9986
vn -0.0512 -0.0000 -0.9987
vn -0.0492 -0.0000 -0.9988
vn -0.5478 -0.0008 -0.8366
vn -0.5512 -0.0008 -0.8344
vn -0.5546 -0.0008 -0.8321
vn -0.8913 0.0020 -0.4535
vn -0.8902 0.0020 -0.4556
vn -0.8891 0.0020 -0.4577
vn -0.9986 0.0003 0.0538
vn -0.1754 0.9845 0.0034
vn -0.9986 0.0003 0.0525
vn -0.8372 -0.0002 0.5469
vn -0.8361 -0.0002 0.5485
vn -0.8351 -0.0002 0.5501
vn -0.4534 0.0008 0.8913
vn -0.4553 0.0008 0.8903
vn -0.4572 0.0008 0.8894
vn 0.0562 -0.0005 0.9984
vn 0.0605 -0.0005 0.9982
vn 0.0648 -0.0005 0.9979
vn -0.0675 0.9977 -0.0035
vn -0.4107 -0.0028 0.9118
vn -0.1764 -0.9843 0.0035
vn -0.0285 -0.0009 -0.9996
vn -0.2581 -0.0055 0.9661
vn 0.0352 -0.0009 -0.9994
vn -0.2208 -0.9753 -0.0113
vn -0.4149 -0.0028 0.9099
vn -0.9985 0.0003 -0.0552
vn 0.0806 0.9967 0.0066
vn -0.1598 0.0020 -0.9871
vn -0.3461 -0.9379 -0.0226
vn -0.0000 1.0000 -0.0000
vt 0.208763 0.325003
vt 0.784613 0.586081
vt 0.249208 0.802416
vt 0.901916 0.084351
vt 0.276864 0.346198
vt 0.507958 0.185156
vt 0.176717 0.502516
vt 0.123674 0.324987
vt 0.165431 0.714305
vt 0.249281 0.717327
vt 0.899317 0.017151
vt 0.287383 0.594442
vt 0.440708 0.185276
vt 0.260132 0.339866
vt 0.049985 0.282443
vt 0.440813 0.707213
vt 0.165431 0.629217
vt 0.289118 0.488643
vt 0.859177 0.578055
vt 0.691151 0.021863
vt 0.191580 0.420471
vt 0.007441 0.208754
vt 0.712048 0.501098
vt 0.440813 0.792302
vt 0.856690 0.508912
vt 0.898517 0.438691
vt 0.623486 0.007431
vt 0.108960 0.613394
vt 0.007431 0.123661
vt 0.542213 0.803152
vt 0.712972 0.586186
vt 0.899112 0.372353
vt 0.851122 0.445994
vt 0.175295 0.614246
vt 0.540582 0.104386
vt 0.049984 0.049977
vt 0.765402 0.787902
vt 0.542003 0.888241
vt 0.522940 0.312400
vt 0.852559 0.371546
vt 0.854715 0.680750
vt 0.608623 0.134636
vt 0.123674 0.007431
vt 0.706014 0.007717
vt 0.765603 0.702813
vt 0.591021 0.311925
vt 0.852787 0.612694
vt 0.850901 0.105627
vt 0.609186 0.362765
vt 0.208762 0.007434
vt 0.192163 0.617376
vt 0.706014 0.092805
vt 0.852448 0.014864
vt 0.853953 0.884145
vt 0.540948 0.422632
vt 0.624341 0.429607
vt 0.282456 0.049972
vt 0.339857 0.614264
vt 0.191580 0.702464
vt 0.852787 0.815205
vt 0.900151 0.883023
vt 0.691616 0.444712
vt 0.692935 0.602200
vt 0.324994 0.123666
vt 0.397559 0.799342
vt 0.340440 0.699353
vt 0.900425 0.815818
vt 0.852787 0.783820
vt 0.509037 0.613824
vt 0.625810 0.605484
vt 0.324994 0.208754
vt 0.599706 0.788230
vt 0.397559 0.714254
vt 0.852893 0.711425
vt 0.107728 0.908298
vt 0.440813 0.638046
vt 0.074886 0.836488
vt 0.282465 0.282468
vt 0.785690 0.500993
vt 0.598155 0.703141
vt 0.108289 0.839414
vt 0.274995 0.460117
vt 0.008308 0.818807
vt 0.107728 0.411843
vt 0.007431 0.502726
vt 0.340954 0.007431
vt 0.932232 0.007431
vt 0.320740 0.602513
vt 0.092866 0.502726
vt 0.424376 0.185156
vt 0.932232 0.092866
vt 0.307709 0.339866
vt 0.425016 0.093979
vt 0.339857 0.522884
vt 0.320740 0.481861
vt 0.890021 0.587782
vt 0.424832 0.504913
vt 0.440813 0.504478
vt 0.890021 0.500928
vt 0.931172 0.449100
vt 0.527140 0.505661
vt 0.441369 0.396176
vt 0.931172 0.362765
vt 0.883655 0.453832
vt 0.526085 0.362765
vt 0.525719 0.134334
vt 0.883655 0.362765
vt 0.886214 0.687950
vt 0.441130 0.134714
vt 0.425951 0.490050
vt 0.886214 0.603360
vt 0.884454 0.114499
vt 0.341091 0.424764
vt 0.069061 0.517589
vt 0.884454 0.007431
vt 0.885288 0.894031
vt 0.088371 0.602973
vt 0.191580 0.602513
vt 0.885288 0.806491
vt 0.932556 0.892085
vt 0.194861 0.516982
vt 0.605884 0.270001
vt 0.932556 0.806491
vt 0.885321 0.791628
vt 0.633144 0.185473
vt 0.560505 0.688279
vt 0.885321 0.702813
vt 0.139958 0.917626
vt 0.542003 0.602200
vt 0.341134 0.279301
vt 0.139958 0.829582
vt 0.307709 0.465535
vt 0.613762 0.576236
vt 0.107728 0.945172
vt 0.685679 0.153264
vt 0.594534 0.587338
vt 0.107728 0.967374
vt 0.623486 0.131062
vt 0.624863 0.557009
vt 0.685679 0.131062
vt 0.760600 0.320693
vt 0.624863 0.534807
vt 0.760600 0.298491
vt 0.822793 0.320693
vt 0.613762 0.515579
vt 0.822793 0.298491
vt 0.264729 0.952283
vt 0.594534 0.504478
vt 0.264729 0.930080
vt 0.605884 0.319748
vt 0.572332 0.504478
vt 0.605884 0.297546
vt 0.945238 0.737697
vt 0.553104 0.515579
vt 0.945238 0.715495
vt 0.899317 0.142613
vt 0.542003 0.534806
vt 0.899317 0.120411
vt 0.747873 0.153264
vt 0.542003 0.557009
vt 0.747873 0.131062
vt 0.698406 0.320693
vt 0.553104 0.576236
vt 0.698406 0.298491
vt 0.191580 0.951269
vt 0.572332 0.587337
vt 0.191580 0.929067
vt 0.623486 0.153264
vt 0.440510 0.347483
vt 0.260132 0.502073
vt 0.478136 0.906692
vt 0.707901 0.902410
vt 0.508077 0.347483
vt 0.176717 0.340188
vt 0.478136 0.974259
vt 0.007431 0.973224
vt 0.691151 0.103517
vt 0.192564 0.502119
vt 0.707901 0.969977
vt 0.625471 0.899081
vt 0.623585 0.103116
vt 0.107728 0.517717
vt 0.625471 0.966649
vt 0.952694 0.252723
vt 0.175295 0.517378
vt 0.541055 0.007520
vt 0.952694 0.185156
vt 0.579325 0.970672
vt 0.523453 0.185196
vt 0.608623 0.007431
vt 0.579325 0.903104
vt 0.847966 0.908894
vt 0.591021 0.185156
vt 0.609186 0.489535
vt 0.847966 0.976462
vt 0.937473 0.974515
vt 0.541618 0.489471
vt 0.624048 0.362765
vt 0.937473 0.906948
vt 0.817788 0.969980
vt 0.691616 0.362901
vt 0.693038 0.684011
vt 0.817788 0.902413
vt 0.938399 0.670927
vt 0.508590 0.692351
vt 0.625471 0.684011
vt 0.938399 0.603360
vt 0.952694 0.335154
vt 0.441022 0.692351
vt 0.074999 0.890793
vt 0.952694 0.267586
vt 0.377179 0.981179
vt 0.007431 0.890793
vt 0.109150 0.339866
vt 0.377179 0.913611
vt 0.007431 0.905656
vt 0.440813 0.916692
vt 0.745223 0.912410
vt 0.155059 0.932489
vt 0.733010 0.165947
vt 0.440813 0.964259
vt 0.044753 0.963223
vt 0.155059 0.980056
vt 0.670817 0.118380
vt 0.745223 0.959977
vt 0.662793 0.909081
vt 0.733010 0.118380
vt 0.807931 0.333375
vt 0.662793 0.956648
vt 0.915372 0.242723
vt 0.807931 0.285808
vt 0.870124 0.333375
vt 0.915372 0.195156
vt 0.542003 0.960671
vt 0.870124 0.285808
vt 0.312060 0.964965
vt 0.542003 0.913104
vt 0.885288 0.918894
vt 0.312060 0.917398
vt 0.653215 0.332430
vt 0.885288 0.966461
vt 0.900151 0.964515
vt 0.653215 0.284864
vt 0.992569 0.750379
vt 0.900151 0.916948
vt 0.780465 0.959980
vt 0.992569 0.702813
vt 0.946648 0.155295
vt 0.780466 0.912413
vt 0.901077 0.660927
vt 0.946648 0.107728
vt 0.795204 0.165947
vt 0.901077 0.613360
vt 0.915372 0.325153
vt 0.795204 0.118380
vt 0.745737 0.333375
vt 0.915372 0.277587
vt 0.339857 0.971179
vt 0.745737 0.285808
vt 0.238911 0.963951
vt 0.339857 0.923612
vt 0.044753 0.915656
vt 0.238911 0.916384
vt 0.670817 0.165947
vt 0.841827 0.586249
vt 0.625471 0.784261
vt 0.191993 0.802416
vt 0.397316 0.898748
vt 0.682930 0.784429
vt 0.755866 0.185325
vt 0.339857 0.898469
vt 0.264729 0.818535
vt 0.092095 0.339977
vt 0.425647 0.347902
vt 0.698406 0.185156
vt 0.322188 0.818814
vt 0.008636 0.339866
vt 0.339857 0.170293
vt 0.697185 0.500928
vt 0.322188 0.902273
vt 0.007432 0.703805
vt 0.639726 0.501260
vt 0.339857 0.814468
vt 0.264729 0.902535
vt 0.107728 0.714637
vt 0.064891 0.703473
vt 0.191580 0.717874
vt 0.397316 0.814205
vt 0.426267 0.170293
vt 0.340662 0.599204
vt 0.900509 0.185319
vt 0.697185 0.587338
vt 0.765360 0.802928
vt 0.843050 0.185156
vt 0.007431 0.617836
vt 0.639726 0.587229
vt 0.498516 0.707377
vt 0.707901 0.802765
vt 0.107728 0.629108
vt 0.064891 0.617944
vt 0.424832 0.599397
vt 0.441054 0.598961
vt 0.765360 0.602200
vt 0.900509 0.269489
vt 0.930375 0.702813
vt 0.707901 0.602371
vt 0.765360 0.887404
vt 0.843050 0.269632
vt 0.425562 0.971071
vt 0.769750 0.500928
vt 0.498516 0.792159
vt 0.707901 0.887547
vt 0.425562 0.913611
vt 0.935060 0.586861
vt 0.526803 0.598961
vt 0.440813 0.489475
vt 0.264729 0.803606
vt 0.765360 0.687950
vt 0.007432 0.803878
vt 0.322188 0.803672
vt 0.930375 0.788342
vt 0.707901 0.687900
vt 0.834635 0.108488
vt 0.598991 0.803092
vt 0.064891 0.803944
vt 0.769750 0.586236
vt 0.935060 0.501553
vt 0.834635 0.165947
vt 0.526085 0.489615
vt 0.525719 0.007484
vt 0.191580 0.901304
vt 0.264729 0.718334
vt 0.498273 0.807383
vt 0.249040 0.901522
vt 0.007431 0.718668
vt 0.322188 0.718462
vt 0.708225 0.787902
vt 0.440814 0.807164
vt 0.599180 0.888241
vt 0.064891 0.718795
vt 0.441898 0.007431
vt 0.425951 0.362765
vt 0.322188 0.617376
vt 0.191580 0.817482
vt 0.763938 0.362765
vt 0.264729 0.617662
vt 0.498273 0.891625
vt 0.249040 0.817279
vt 0.763717 0.007431
vt 0.706479 0.363051
vt 0.707901 0.703238
vt 0.440813 0.891829
vt 0.339857 0.363260
vt 0.007547 0.518187
vt 0.837925 0.802748
vt 0.322188 0.703471
vt 0.837925 0.702897
vt 0.780465 0.802663
vt 0.763938 0.448524
vt 0.264729 0.703421
vt 0.249866 0.617461
vt 0.780466 0.702813
vt 0.763717 0.092855
vt 0.706479 0.448475
vt 0.007431 0.602973
vt 0.272520 0.602425
vt 0.107728 0.814719
vt 0.837925 0.887534
vt 0.770728 0.270332
vt 0.165187 0.814714
vt 0.837925 0.787784
vt 0.780465 0.887550
vt 0.398143 0.614259
vt 0.828187 0.270326
vt 0.249866 0.702448
vt 0.780466 0.787800
vt 0.272520 0.517205
vt 0.683543 0.270001
vt 0.625471 0.884160
vt 0.107728 0.729500
vt 0.778801 0.447714
vt 0.682930 0.884218
vt 0.770728 0.185156
vt 0.165187 0.729539
vt 0.339857 0.799284
vt 0.836260 0.447772
vt 0.398143 0.699391
vt 0.828187 0.185195
vt 0.683246 0.185156
vt 0.610608 0.688194
vt 0.837682 0.602200
vt 0.625471 0.799314
vt 0.778579 0.092477
vt 0.780223 0.602210
vt 0.778801 0.362788
vt 0.682930 0.799292
vt 0.542003 0.788230
vt 0.836038 0.092467
vt 0.339857 0.714277
vt 0.836260 0.362765
vt 0.610608 0.603262
vt 0.339857 0.347902
vt 0.698406 0.270946
vt 0.837682 0.687132
vt 0.682930 0.698874
vt 0.755866 0.270880
vt 0.778579 0.007493
vt 0.780223 0.687193
vt 0.841827 0.500927
vt 0.625471 0.698939
vt 0.542017 0.703194
vt 0.836038 0.007431
vt 0.900184 0.718187
vt 0.092380 0.905656
vt 0.392042 0.966142
vt 0.981638 0.410423
vt 0.392052 0.918485
vt 0.904884 0.571497
vt 0.492998 0.906692
vt 0.981638 0.362765
vt 0.905331 0.788939
vt 0.092380 0.976595
vt 0.810070 0.113394
vt 0.975829 0.007431
vt 0.910016 0.500928
vt 0.810067 0.161051
vt 0.975829 0.055089
vt 0.494055 0.977440
vt 0.059616 0.919749
vt 0.967580 0.539482
vt 0.946035 0.408291
vt 0.965726 0.806491
vt 0.967580 0.500928
vt 0.526629 0.920278
vt 0.946043 0.369737
vt 0.175061 0.886823
vt 0.063572 0.977002
vt 0.947097 0.009549
vt 0.965726 0.863879
vt 0.851899 0.167903
vt 0.947094 0.048104
vt 0.523627 0.977440
vt 0.850901 0.129362
vt 0.175061 0.829582
vt 0.949923 0.540924
vt 0.946036 0.475001
vt 0.948250 0.809392
vt 0.950786 0.507524
vt 0.979447 0.474885
vt 0.157256 0.883904
vt 0.946035 0.425285
vt 0.947419 0.859100
vt 0.870796 0.168844
vt 0.979447 0.425298
vt 0.870796 0.135432
vt 0.154821 0.834376
s 0
usemtl Material.016
f 75/273/1 26/89/1 25/85/1 76/277/1
f 76/278/2 25/86/2 27/93/2 79/289/2
f 79/290/3 27/94/3 28/97/3 82/301/3
f 82/302/4 28/98/4 29/101/4 85/315/4
f 85/316/5 29/102/5 30/105/5 88/329/5
f 88/330/6 30/106/6 31/109/6 91/341/6
f 91/342/7 31/110/7 32/113/7 94/353/7
f 94/354/8 32/114/8 33/117/8 97/365/8
f 97/366/9 33/118/9 34/121/9 100/377/9
f 100/378/10 34/122/10 35/125/10 103/389/10
f 14/46/11 12/39/11 54/189/11 55/193/11
f 103/390/12 35/126/12 36/129/12 106/401/12
f 106/402/13 36/130/13 26/90/13 75/274/13
f 1/1/14 3/8/14 5/15/14 7/22/14 9/29/14 11/36/14 13/43/14 15/50/14 17/57/14 19/64/14 21/71/14 23/78/14
f 2/4/15 4/11/15 25/87/15 26/91/15
f 4/12/16 6/18/16 27/95/16 25/88/16
f 6/19/17 8/25/17 28/99/17 27/96/17
f 8/26/18 10/32/18 29/103/18 28/100/18
f 10/33/19 12/40/19 30/107/19 29/104/19
f 12/41/20 14/47/20 31/111/20 30/108/20
f 14/48/21 16/53/21 32/115/21 31/112/21
f 16/54/22 18/60/22 33/119/22 32/116/22
f 18/61/23 20/67/23 34/123/23 33/120/23
f 20/68/24 22/74/24 35/127/24 34/124/24
f 22/75/25 24/81/25 36/131/25 35/128/25
f 24/82/26 2/5/26 26/92/26 36/132/26
f 8/27/27 6/20/27 51/177/27 52/181/27
f 22/76/28 20/69/28 58/205/28 59/209/28
f 16/55/29 14/49/29 55/194/29 56/197/29
f 10/34/30 8/28/30 52/182/30 53/185/30
f 24/83/31 22/77/31 59/210/31 60/213/31
f 4/13/32 2/6/32 50/173/32 49/169/32
f 18/62/33 16/56/33 56/198/33 57/201/33
f 12/42/34 10/35/34 53/186/34 54/190/34
f 2/7/35 24/84/35 60/214/35 50/174/35
f 6/21/36 4/14/36 49/170/36 51/178/36
f 20/70/37 18/63/37 57/202/37 58/206/37
f 23/79/38 108/409/38 73/265/38 1/2/38
f 108/410/39 107/405/39 74/269/39 73/266/39
f 107/406/40 106/403/40 75/275/40 74/270/40
f 21/72/41 105/397/41 108/411/41 23/80/41
f 105/398/42 104/393/42 107/407/42 108/412/42
f 104/394/43 103/391/43 106/404/43 107/408/43
f 19/65/44 102/385/44 105/399/44 21/73/44
f 102/386/45 101/381/45 104/395/45 105/400/45
f 101/382/45 100/379/45 103/392/45 104/396/45
f 17/58/46 99/373/46 102/387/46 19/66/46
f 99/374/47 98/369/47 101/383/47 102/388/47
f 98/370/48 97/367/48 100/380/48 101/384/48
f 15/51/49 96/361/49 99/375/49 17/59/49
f 96/362/50 95/357/50 98/371/50 99/376/50
f 95/358/51 94/355/51 97/368/51 98/372/51
f 13/44/52 93/349/52 96/363/52 15/52/52
f 93/350/53 92/345/53 95/359/53 96/364/53
f 92/346/54 91/343/54 94/356/54 95/360/54
f 11/37/55 90/337/55 93/351/55 13/45/55
f 90/338/56 89/333/56 92/347/56 93/352/56
f 89/334/57 88/331/57 91/344/57 92/348/57
f 9/30/58 87/324/58 90/339/58 11/38/58
f 87/325/59 86/319/59 89/335/59 90/340/59
f 86/320/60 85/317/60 88/332/60 89/336/60
f 7/23/61 84/310/61 87/326/61 9/31/61
f 83/305/62 86/321/62 111/421/62 109/413/62
f 83/306/63 82/303/63 85/318/63 86/322/63
f 5/16/64 81/297/64 84/311/64 7/24/64
f 81/298/65 80/293/65 83/307/65 84/312/65
f 80/294/66 79/291/66 82/304/66 83/308/66
f 3/9/67 78/285/67 81/299/67 5/17/67
f 78/286/68 77/281/68 80/295/68 81/300/68
f 77/282/69 76/279/69 79/292/69 80/296/69
f 1/3/70 73/267/70 78/287/70 3/10/70
f 73/268/71 74/271/71 77/283/71 78/288/71
f 74/272/72 75/276/72 76/280/72 77/284/72
f 109/414/73 111/422/73 115/437/73 113/429/73
f 84/313/74 83/309/74 109/415/74 110/417/74
f 87/327/75 84/314/75 110/418/75 112/425/75
f 86/323/76 87/328/76 112/426/76 111/423/76
f 114/433/77 113/430/77 117/445/77 118/448/77
f 111/424/78 112/427/78 116/441/78 115/438/78
f 112/428/79 110/419/79 114/434/79 116/442/79
f 110/420/80 109/416/80 113/431/80 114/435/80
f 118/449/81 117/446/81 119/451/81 120/454/81
f 113/432/82 115/439/82 119/452/82 117/447/82
f 115/440/83 116/443/83 120/455/83 119/453/83
f 116/444/84 114/436/84 118/450/84 120/456/84
f 37/133/85 38/136/85 48/166/85 47/163/85 46/160/85 45/157/85 44/154/85 43/151/85 42/148/85 41/145/85 40/142/85 39/139/85
f 62/221/85 61/217/85 49/171/85 50/175/85
f 61/218/85 63/225/85 51/179/85 49/172/85
f 63/226/85 64/229/85 52/183/85 51/180/85
f 64/230/85 65/233/85 53/187/85 52/184/85
f 65/234/85 66/237/85 54/191/85 53/188/85
f 66/238/85 67/241/85 55/195/85 54/192/85
f 67/242/85 68/245/85 56/199/85 55/196/85
f 68/246/85 69/249/85 57/203/85 56/200/85
f 69/250/85 70/253/85 58/207/85 57/204/85
f 70/254/85 71/257/85 59/211/85 58/208/85
f 71/258/85 72/261/85 60/215/85 59/212/85
f 72/262/85 62/222/85 50/176/85 60/216/85
f 38/137/85 37/134/85 61/219/85 62/223/85
f 37/135/85 39/140/85 63/227/85 61/220/85
f 39/141/85 40/143/85 64/231/85 63/228/85
f 40/144/85 41/146/85 65/235/85 64/232/85
f 41/147/85 42/149/85 66/239/85 65/236/85
f 42/150/85 43/152/85 67/243/85 66/240/85
f 43/153/85 44/155/85 68/247/85 67/244/85
f 44/156/85 45/158/85 69/251/85 68/248/85
f 45/159/85 46/161/85 70/255/85 69/252/85
f 46/162/85 47/164/85 71/259/85 70/256/85
f 47/165/85 48/167/85 72/263/85 71/260/85
f 48/168/85 38/138/85 62/224/85 72/264/85
