# Blender 3.4.1
# www.blender.org
mtllib Trunk 001.mtl
o Trunk_001
v 0.211326 0.001013 0.644271
v 0.172728 1.089945 0.513910
v -0.138890 -0.001002 0.663252
v -0.114671 0.934817 0.523594
v -0.451675 -0.001002 0.504582
v -0.357960 0.903632 0.403597
v -0.643221 -0.001002 0.210775
v -0.510602 0.973940 0.164610
v -0.662201 0.002806 -0.139439
v -0.526394 1.033606 -0.109815
v -0.503531 0.001165 -0.452226
v -0.403842 1.013750 -0.358824
v -0.209726 -0.001002 -0.643772
v -0.161599 0.874141 -0.510032
v 0.140490 -0.001002 -0.662752
v 0.110836 0.868459 -0.527572
v 0.453276 -0.003406 -0.504082
v 0.360464 0.790003 -0.400368
v 0.644821 -0.001002 -0.210276
v 0.512542 0.834014 -0.167907
v 0.663801 -0.001002 0.139939
v 0.527637 0.960624 0.111530
v 0.505131 0.005449 0.452726
v 0.400462 1.079880 0.360282
v -0.134345 0.978229 0.666391
v 0.206575 1.106807 0.642023
v -0.452222 0.921396 0.501720
v -0.643230 0.956735 0.213594
v -0.661490 1.028105 -0.140300
v -0.499373 1.036126 -0.452457
v -0.214503 0.899385 -0.644901
v 0.141380 0.869976 -0.661412
v 0.452918 0.754721 -0.503947
v 0.644491 0.804043 -0.209296
v 0.663448 0.940670 0.139587
v 0.505954 1.072315 0.452002
v -0.035649 0.702457 0.173249
v 0.055733 0.702457 0.168296
v -0.117265 0.702457 0.131847
v -0.167246 0.702457 0.055184
v -0.172198 0.702457 -0.036199
v -0.130796 0.702457 -0.117815
v -0.054133 0.702457 -0.167796
v 0.037250 0.702457 -0.172748
v 0.118866 0.702457 -0.131346
v 0.168846 0.702457 -0.054683
v 0.173798 0.702457 0.036700
v 0.132396 0.702457 0.118315
v -0.110126 0.702457 0.526734
v 0.167977 0.702457 0.511662
v -0.358507 0.702457 0.400735
v -0.510611 0.702457 0.167427
v -0.525683 0.702457 -0.110677
v -0.399684 0.702457 -0.359056
v -0.166376 0.702457 -0.511162
v 0.111727 0.702457 -0.526233
v 0.360107 0.702457 -0.400234
v 0.512211 0.702457 -0.166926
v 0.527283 0.702457 0.111177
v 0.401285 0.702457 0.359557
v -0.077291 0.702457 0.370888
v 0.118490 0.702457 0.360278
v -0.252147 0.702457 0.282187
v -0.359227 0.702457 0.117941
v -0.369837 0.702457 -0.077841
v -0.281136 0.702457 -0.252697
v -0.116890 0.702457 -0.359776
v 0.078891 0.702457 -0.370387
v 0.253748 0.702457 -0.281687
v 0.360827 0.702457 -0.117440
v 0.371438 0.702457 0.078341
v 0.282736 0.702457 0.253198
v 0.210138 0.236845 0.643709
v 0.208950 0.473688 0.643147
v 0.207763 0.710532 0.642585
v -0.135482 0.710532 0.665606
v -0.136618 0.473688 0.664821
v -0.137754 0.236845 0.664037
v -0.452085 0.710532 0.502435
v -0.451949 0.473688 0.503151
v -0.451812 0.236845 0.503866
v -0.643228 0.710532 0.212889
v -0.643225 0.473688 0.212185
v -0.643223 0.236845 0.211480
v -0.661668 0.710532 -0.140085
v -0.661845 0.473688 -0.139870
v -0.662023 0.236845 -0.139655
v -0.500412 0.710532 -0.452399
v -0.501452 0.473688 -0.452341
v -0.502491 0.236845 -0.452283
v -0.213309 0.710532 -0.644617
v -0.212114 0.473688 -0.644336
v -0.210920 0.236845 -0.644053
v 0.141158 0.710532 -0.661746
v 0.140935 0.473688 -0.662082
v 0.140713 0.236845 -0.662416
v 0.453008 0.710532 -0.503980
v 0.453097 0.473688 -0.504013
v 0.453186 0.236845 -0.504047
v 0.644573 0.710532 -0.209540
v 0.644656 0.473688 -0.209785
v 0.644738 0.236845 -0.210030
v 0.663536 0.710532 0.139674
v 0.663625 0.473688 0.139763
v 0.663713 0.236845 0.139852
v 0.505748 0.710532 0.452183
v 0.505542 0.473688 0.452364
v 0.505337 0.236845 0.452545
v -0.769204 0.453543 0.155386
v -0.769160 0.257101 0.154802
v -0.763078 0.453543 -0.136958
v -0.763238 0.257101 -0.136791
v -0.902732 0.444906 0.094482
v -0.902662 0.285987 0.094013
v -0.881446 0.444906 -0.141114
v -0.881584 0.285987 -0.140987
v -0.973154 0.450871 0.076111
v -0.969467 0.313201 0.075905
v -0.958139 0.450871 -0.128263
v -0.961902 0.313201 -0.128352
vn 0.0692 -0.0003 0.9976
vn -0.4591 0.0008 0.8884
vn -0.8340 -0.0002 0.5517
vn -0.9987 0.0003 0.0519
vn -0.8880 0.0015 -0.4598
vn -0.5582 -0.0007 -0.8297
vn -0.0473 -0.0000 -0.9989
vn 0.4515 0.0013 -0.8923
vn 0.8382 0.0021 -0.5453
vn 0.9985 0.0006 -0.0543
vn 0.5371 -0.0031 0.8435
vn 0.8928 -0.0000 0.4504
vn 0.5372 0.0015 0.8434
vn -0.0004 -1.0000 0.0014
vn -0.4130 0.8933 -0.1772
vn -0.0219 0.9665 -0.2558
vn 0.0918 0.9862 0.1378
vn -0.0684 0.9759 0.2072
vn 0.0662 0.9977 0.0126
vn 0.4192 0.9040 -0.0839
vn 0.0606 0.9937 0.0939
vn 0.3137 0.9491 0.0275
vn 0.1193 0.9614 -0.2480
vn 0.1501 0.9089 -0.3889
vn 0.2483 0.9250 -0.2876
vn 0.0402 0.9969 -0.0676
vn 0.8402 -0.0009 -0.5423
vn -0.9986 0.0018 0.0536
vn 0.0591 -0.0001 0.9983
vn 0.9984 0.0010 -0.0557
vn -0.8911 0.0001 -0.4538
vn -0.0433 -0.0014 -0.9991
vn -0.4527 0.0042 0.8917
vn 0.8946 0.0060 0.4468
vn -0.5526 0.0061 -0.8335
vn 0.4473 0.0036 -0.8944
vn -0.8375 0.0054 0.5464
vn 0.5448 0.0025 0.8385
vn 0.5423 0.0024 0.8402
vn 0.5397 0.0024 0.8418
vn 0.8920 -0.0000 0.4521
vn 0.8922 -0.0000 0.4516
vn 0.8925 -0.0000 0.4510
vn 0.9985 0.0004 -0.0541
vn 0.9985 0.0004 -0.0542
vn 0.8378 0.0006 -0.5460
vn 0.8380 0.0006 -0.5457
vn 0.8381 0.0006 -0.5455
vn 0.4522 0.0006 -0.8919
vn 0.4519 0.0006 -0.8921
vn 0.4516 0.0006 -0.8922
vn -0.0531 -0.0000 -0.9986
vn -0.0512 -0.0000 -0.9987
vn -0.0492 -0.0000 -0.9988
vn -0.5478 -0.0008 -0.8366
vn -0.5512 -0.0008 -0.8344
vn -0.5546 -0.0008 -0.8321
vn -0.8913 0.0020 -0.4535
vn -0.8902 0.0020 -0.4556
vn -0.8891 0.0020 -0.4577
vn -0.9986 0.0003 0.0538
vn -0.1754 0.9845 0.0034
vn -0.9986 0.0003 0.0525
vn -0.8372 -0.0002 0.5469
vn -0.8361 -0.0002 0.5485
vn -0.8351 -0.0002 0.5501
vn -0.4534 0.0008 0.8913
vn -0.4553 0.0008 0.8903
vn -0.4572 0.0008 0.8894
vn 0.0562 -0.0005 0.9984
vn 0.0605 -0.0005 0.9982
vn 0.0648 -0.0005 0.9979
vn -0.0675 0.9977 -0.0035
vn -0.4107 -0.0028 0.9118
vn -0.1764 -0.9843 0.0035
vn -0.0285 -0.0009 -0.9996
vn -0.2581 -0.0055 0.9661
vn 0.0352 -0.0009 -0.9994
vn -0.2208 -0.9753 -0.0113
vn -0.4149 -0.0028 0.9099
vn -0.9985 0.0003 -0.0552
vn 0.0806 0.9967 0.0066
vn -0.1598 0.0020 -0.9871
vn -0.3461 -0.9379 -0.0226
vn -0.0000 1.0000 -0.0000
vt 0.132126 0.007396
vt 0.709008 0.665467
vt 0.694655 0.443617
vt 0.790620 0.551637
vt 0.710886 0.797419
vt 0.541565 0.352304
vt 0.468047 0.125359
vt 0.223439 0.007411
vt 0.619525 0.098824
vt 0.694733 0.352304
vt 0.785462 0.466728
vt 0.838726 0.432506
vt 0.466696 0.392687
vt 0.785199 0.575504
vt 0.302519 0.053065
vt 0.631983 0.125359
vt 0.619525 0.007512
vt 0.840733 0.361444
vt 0.008480 0.870543
vt 0.381288 0.770431
vt 0.793315 0.646131
vt 0.348177 0.132142
vt 0.069320 0.666094
vt 0.631983 0.216671
vt 0.007396 0.794487
vt 0.280883 0.864238
vt 0.362983 0.844260
vt 0.205336 0.538590
vt 0.348190 0.223459
vt 0.709233 0.680503
vt 0.068598 0.574780
vt 0.281217 0.791007
vt 0.555838 0.869949
vt 0.276939 0.553947
vt 0.435492 0.456017
vt 0.302527 0.302535
vt 0.168663 0.668874
vt 0.709008 0.771816
vt 0.541046 0.467980
vt 0.557042 0.797519
vt 0.789694 0.440003
vt 0.363254 0.461424
vt 0.223449 0.348195
vt 0.466696 0.564125
vt 0.168879 0.577561
vt 0.466696 0.504319
vt 0.785980 0.357332
vt 0.204429 0.862060
vt 0.300802 0.469994
vt 0.132137 0.348195
vt 0.555267 0.125359
vt 0.466696 0.655438
vt 0.206077 0.790989
vt 0.839982 0.550951
vt 0.302281 0.541069
vt 0.785160 0.787985
vt 0.053051 0.302547
vt 0.615955 0.334681
vt 0.554641 0.216671
vt 0.839360 0.475206
vt 0.632662 0.867629
vt 0.805586 0.860927
vt 0.954282 0.007529
vt 0.007399 0.223464
vt 0.694215 0.559292
vt 0.615337 0.243369
vt 0.632554 0.794405
vt 0.787986 0.093942
vt 0.499658 0.776529
vt 0.943176 0.079905
vt 0.007396 0.132151
vt 0.692670 0.334634
vt 0.694215 0.467980
vt 0.787227 0.013979
vt 0.838643 0.094097
vt 0.466696 0.849386
vt 0.542809 0.038488
vt 0.053035 0.053045
vt 0.710163 0.574155
vt 0.691006 0.243321
vt 0.837897 0.015016
vt 0.709008 0.868962
vt 0.470093 0.007396
vt 0.539566 0.127986
vt 0.363465 0.195311
vt 0.468919 0.336526
vt 0.824568 0.464111
vt 0.875269 0.446675
vt 0.452546 0.228529
vt 0.455301 0.007396
vt 0.824568 0.559184
vt 0.743940 0.786608
vt 0.483715 0.243322
vt 0.016597 0.559579
vt 0.875269 0.352304
vt 0.043615 0.877005
vt 0.007396 0.469579
vt 0.125538 0.455245
vt 0.043615 0.786536
vt 0.316095 0.875863
vt 0.106957 0.362987
vt 0.009485 0.454563
vt 0.316095 0.781752
vt 0.590816 0.878818
vt 0.007396 0.362987
vt 0.204429 0.452708
vt 0.590816 0.787218
vt 0.823934 0.448627
vt 0.240029 0.363205
vt 0.785160 0.773193
vt 0.823934 0.352304
vt 0.240571 0.874691
vt 0.792816 0.680439
vt 0.303989 0.453975
vt 0.240571 0.781622
vt 0.874764 0.559184
vt 0.333797 0.363029
vt 0.430668 0.950552
vt 0.874764 0.463478
vt 0.668398 0.878301
vt 0.417827 0.859052
vt 0.820723 0.216348
vt 0.668398 0.785904
vt 0.823105 0.105069
vt 0.785152 0.125383
vt 0.363015 0.277531
vt 0.823105 0.007396
vt 0.873539 0.104719
vt 0.454126 0.243322
vt 0.362983 0.016376
vt 0.873539 0.007396
vt 0.743940 0.879362
vt 0.451904 0.384851
vt 0.204429 0.903093
vt 0.106957 0.913602
vt 0.451904 0.408677
vt 0.204429 0.926920
vt 0.040013 0.907365
vt 0.439990 0.364217
vt 0.106957 0.889776
vt 0.890347 0.978562
vt 0.419356 0.352304
vt 0.890347 0.954736
vt 0.555838 0.931047
vt 0.395530 0.352304
vt 0.555838 0.907220
vt 0.632554 0.930529
vt 0.374896 0.364217
vt 0.632554 0.906703
vt 0.828379 0.955168
vt 0.362983 0.384851
vt 0.828379 0.978994
vt 0.709008 0.931591
vt 0.362983 0.408677
vt 0.709008 0.907764
vt 0.777586 0.913155
vt 0.374896 0.429311
vt 0.777586 0.889329
vt 0.915331 0.611521
vt 0.395530 0.441225
vt 0.915331 0.587694
vt 0.890347 0.912724
vt 0.419356 0.441225
vt 0.890347 0.888897
vt 0.280883 0.928092
vt 0.439990 0.429311
vt 0.280883 0.904266
vt 0.040013 0.931191
vt 0.467833 0.453188
vt 0.845694 0.574084
vt 0.859861 0.197869
vt 0.900424 0.315832
vt 0.540343 0.453188
vt 0.467339 0.226247
vt 0.859861 0.125359
vt 0.944016 0.680439
vt 0.433664 0.771133
vt 0.845694 0.646594
vt 0.900424 0.243322
vt 0.403035 0.931562
vt 0.433664 0.843643
vt 0.204429 0.467912
vt 0.403035 0.859052
vt 0.889172 0.752949
vt 0.276939 0.467732
vt 0.435492 0.542232
vt 0.889172 0.680439
vt 0.930113 0.424814
vt 0.540087 0.549026
vt 0.362983 0.542475
vt 0.930113 0.352304
vt 0.466696 0.864178
vt 0.467577 0.549026
vt 0.345501 0.468767
vt 0.466696 0.936688
vt 0.928383 0.079906
vt 0.345501 0.541278
vt 0.828379 0.788350
vt 0.928383 0.007396
vt 0.860487 0.574084
vt 0.828379 0.860860
vt 0.977075 0.007396
vt 0.860487 0.646595
vt 0.930399 0.860495
vt 0.533909 0.776779
vt 0.977428 0.079905
vt 0.930399 0.787985
vt 0.147009 0.861374
vt 0.533909 0.849289
vt 0.542809 0.105701
vt 0.147009 0.788864
vt 0.929608 0.535988
vt 0.470299 0.105658
vt 0.539849 0.226247
vt 0.929608 0.463478
vt 0.944016 0.752949
vt 0.899913 0.187137
vt 0.860372 0.305100
vt 0.255222 0.889484
vt 0.157750 0.927212
vt 0.899913 0.136091
vt 0.903964 0.691171
vt 0.255222 0.940530
vt 0.090806 0.893755
vt 0.860372 0.254053
vt 0.362983 0.920830
vt 0.157750 0.876166
vt 0.941140 0.992172
vt 0.362983 0.869784
vt 0.849120 0.742217
vt 0.941140 0.941126
vt 0.606631 0.944657
vt 0.849120 0.691171
vt 0.890061 0.414082
vt 0.606631 0.893610
vt 0.683347 0.944139
vt 0.890061 0.363036
vt 0.506748 0.874910
vt 0.683347 0.893093
vt 0.777586 0.941558
vt 0.506748 0.925956
vt 0.888331 0.069174
vt 0.777586 0.992604
vt 0.759801 0.945201
vt 0.888331 0.018128
vt 0.900539 0.584816
vt 0.759801 0.894154
vt 0.828379 0.926765
vt 0.900539 0.635863
vt 0.890347 0.849763
vt 0.828379 0.875719
vt 0.966124 0.625131
vt 0.890347 0.798717
vt 0.106957 0.850642
vt 0.966124 0.574084
vt 0.941140 0.926334
vt 0.106957 0.799595
vt 0.889556 0.525256
vt 0.941140 0.875287
vt 0.331676 0.941702
vt 0.889556 0.474210
vt 0.903964 0.742217
vt 0.331676 0.890656
vt 0.090806 0.944801
vt 0.770407 0.665647
vt 0.617501 0.575345
vt 0.633255 0.443617
vt 0.772435 0.098124
vt 0.555838 0.575165
vt 0.424645 0.557449
vt 0.710772 0.097824
vt 0.845579 0.333467
vt 0.452546 0.125359
vt 0.455118 0.110566
vt 0.362983 0.557267
vt 0.783917 0.333167
vt 0.362983 0.125617
vt 0.538613 0.336169
vt 0.106957 0.562768
vt 0.783917 0.243603
vt 0.556357 0.444561
vt 0.168619 0.562412
vt 0.710772 0.007679
vt 0.845579 0.243322
vt 0.557602 0.099181
vt 0.618019 0.444205
vt 0.632812 0.352891
vt 0.772435 0.007396
vt 0.538613 0.243438
vt 0.071495 0.559754
vt 0.617500 0.681946
vt 0.106957 0.470038
vt 0.771187 0.352479
vt 0.555838 0.681771
vt 0.556357 0.352304
vt 0.168619 0.470154
vt 0.693906 0.125534
vt 0.709525 0.352304
vt 0.557602 0.007396
vt 0.618019 0.352420
vt 0.071495 0.469427
vt 0.189637 0.455062
vt 0.342545 0.568739
vt 0.617500 0.772273
vt 0.090806 0.786536
vt 0.280883 0.568922
vt 0.771187 0.443134
vt 0.555838 0.772426
vt 0.980372 0.525140
vt 0.007396 0.666094
vt 0.693906 0.216518
vt 0.709525 0.443287
vt 0.980372 0.463478
vt 0.875555 0.880204
vt 0.189637 0.363041
vt 0.092164 0.454634
vt 0.634318 0.098906
vt 0.342545 0.660761
vt 0.362983 0.755568
vt 0.695980 0.098976
vt 0.090806 0.878322
vt 0.280883 0.660708
vt 0.188167 0.788864
vt 0.770165 0.680439
vt 0.424645 0.755639
vt 0.007667 0.574546
vt 0.875555 0.788656
vt 0.188167 0.850526
vt 0.092164 0.363125
vt 0.289197 0.452940
vt 0.168619 0.683901
vt 0.634317 0.007396
vt 0.069059 0.681121
vt 0.106957 0.683667
vt 0.362983 0.664125
vt 0.695980 0.007533
vt 0.107304 0.668874
vt 0.007396 0.680887
vt 0.770368 0.771816
vt 0.424645 0.664262
vt 0.289197 0.362987
vt 0.834327 0.772885
vt 0.617500 0.467980
vt 0.168619 0.773854
vt 0.266091 0.568739
vt 0.555838 0.468287
vt 0.069059 0.771526
vt 0.106957 0.774071
vt 0.528619 0.563819
vt 0.204429 0.569046
vt 0.106957 0.578018
vt 0.007396 0.771744
vt 0.834327 0.680493
vt 0.345501 0.453975
vt 0.694216 0.680106
vt 0.617500 0.560373
vt 0.770670 0.468071
vt 0.632554 0.680015
vt 0.266091 0.660771
vt 0.555838 0.560319
vt 0.617190 0.125450
vt 0.709008 0.467980
vt 0.528619 0.655491
vt 0.204429 0.660718
vt 0.345301 0.362987
vt 0.442173 0.950547
vt 0.466696 0.761736
vt 0.694216 0.771095
vt 0.342545 0.675553
vt 0.528358 0.761731
vt 0.770670 0.559167
vt 0.632554 0.771112
vt 0.553406 0.334681
vt 0.280883 0.675559
vt 0.617190 0.216654
vt 0.709008 0.559184
vt 0.442173 0.859094
vt 0.845069 0.216411
vt 0.632554 0.665161
vt 0.466696 0.670283
vt 0.707463 0.334484
vt 0.694216 0.665223
vt 0.342545 0.766960
vt 0.528358 0.670325
vt 0.632292 0.559230
vt 0.769125 0.334547
vt 0.553414 0.243322
vt 0.280883 0.766918
vt 0.845069 0.125359
vt 0.362983 0.337447
vt 0.708698 0.216569
vt 0.632554 0.574109
vt 0.204429 0.766830
vt 0.770360 0.216559
vt 0.707463 0.243346
vt 0.694216 0.574084
vt 0.630747 0.334634
vt 0.266091 0.766820
vt 0.632292 0.468004
vt 0.769125 0.243322
vt 0.454126 0.337511
vt 0.363053 0.110566
vt 0.362983 0.649332
vt 0.708698 0.125425
vt 0.555839 0.666978
vt 0.424645 0.649262
vt 0.204429 0.675630
vt 0.770360 0.125359
vt 0.770407 0.574084
vt 0.617501 0.666908
vt 0.630762 0.243378
vt 0.266091 0.675564
vt 0.058407 0.803036
vt 0.950376 0.243322
vt 0.944401 0.519852
vt 0.983112 0.403447
vt 0.944411 0.468708
vt 0.843171 0.863717
vt 0.914705 0.125359
vt 0.983112 0.352304
vt 0.063931 0.878963
vt 0.950376 0.319449
vt 0.161805 0.794129
vt 0.874008 0.894997
vt 0.848679 0.787985
vt 0.161801 0.845272
vt 0.874008 0.946140
vt 0.915840 0.201282
vt 0.915216 0.258446
vt 0.540489 0.905552
vt 0.944906 0.401160
vt 0.978455 0.680439
vt 0.540489 0.864178
vt 0.950796 0.139939
vt 0.944914 0.359785
vt 0.977654 0.936715
vt 0.919462 0.319886
vt 0.843173 0.897269
vt 0.978455 0.742026
vt 0.108028 0.983365
vt 0.843171 0.938644
vt 0.947574 0.201282
vt 0.106957 0.942005
vt 0.977654 0.875287
vt 0.521540 0.907100
vt 0.981047 0.787985
vt 0.959701 0.683553
vt 0.522466 0.871257
vt 0.945192 0.788108
vt 0.958546 0.933582
vt 0.981047 0.841337
vt 0.958809 0.736897
vt 0.128307 0.984374
vt 0.945192 0.841323
vt 0.128307 0.948518
vt 0.955933 0.880432
s 0
usemtl Material.015
f 75/273/1 26/89/1 25/85/1 76/277/1
f 76/278/2 25/86/2 27/93/2 79/289/2
f 79/290/3 27/94/3 28/97/3 82/301/3
f 82/302/4 28/98/4 29/101/4 85/315/4
f 85/316/5 29/102/5 30/105/5 88/329/5
f 88/330/6 30/106/6 31/109/6 91/341/6
f 91/342/7 31/110/7 32/113/7 94/353/7
f 94/354/8 32/114/8 33/117/8 97/365/8
f 97/366/9 33/118/9 34/121/9 100/377/9
f 100/378/10 34/122/10 35/125/10 103/389/10
f 14/46/11 12/39/11 54/189/11 55/193/11
f 103/390/12 35/126/12 36/129/12 106/401/12
f 106/402/13 36/130/13 26/90/13 75/274/13
f 1/1/14 3/8/14 5/15/14 7/22/14 9/29/14 11/36/14 13/43/14 15/50/14 17/57/14 19/64/14 21/71/14 23/78/14
f 2/4/15 4/11/15 25/87/15 26/91/15
f 4/12/16 6/18/16 27/95/16 25/88/16
f 6/19/17 8/25/17 28/99/17 27/96/17
f 8/26/18 10/32/18 29/103/18 28/100/18
f 10/33/19 12/40/19 30/107/19 29/104/19
f 12/41/20 14/47/20 31/111/20 30/108/20
f 14/48/21 16/53/21 32/115/21 31/112/21
f 16/54/22 18/60/22 33/119/22 32/116/22
f 18/61/23 20/67/23 34/123/23 33/120/23
f 20/68/24 22/74/24 35/127/24 34/124/24
f 22/75/25 24/81/25 36/131/25 35/128/25
f 24/82/26 2/5/26 26/92/26 36/132/26
f 8/27/27 6/20/27 51/177/27 52/181/27
f 22/76/28 20/69/28 58/205/28 59/209/28
f 16/55/29 14/49/29 55/194/29 56/197/29
f 10/34/30 8/28/30 52/182/30 53/185/30
f 24/83/31 22/77/31 59/210/31 60/213/31
f 4/13/32 2/6/32 50/173/32 49/169/32
f 18/62/33 16/56/33 56/198/33 57/201/33
f 12/42/34 10/35/34 53/186/34 54/190/34
f 2/7/35 24/84/35 60/214/35 50/174/35
f 6/21/36 4/14/36 49/170/36 51/178/36
f 20/70/37 18/63/37 57/202/37 58/206/37
f 23/79/38 108/409/38 73/265/38 1/2/38
f 108/410/39 107/405/39 74/269/39 73/266/39
f 107/406/40 106/403/40 75/275/40 74/270/40
f 21/72/41 105/397/41 108/411/41 23/80/41
f 105/398/42 104/393/42 107/407/42 108/412/42
f 104/394/43 103/391/43 106/404/43 107/408/43
f 19/65/44 102/385/44 105/399/44 21/73/44
f 102/386/45 101/381/45 104/395/45 105/400/45
f 101/382/45 100/379/45 103/392/45 104/396/45
f 17/58/46 99/373/46 102/387/46 19/66/46
f 99/374/47 98/369/47 101/383/47 102/388/47
f 98/370/48 97/367/48 100/380/48 101/384/48
f 15/51/49 96/361/49 99/375/49 17/59/49
f 96/362/50 95/357/50 98/371/50 99/376/50
f 95/358/51 94/355/51 97/368/51 98/372/51
f 13/44/52 93/349/52 96/363/52 15/52/52
f 93/350/53 92/345/53 95/359/53 96/364/53
f 92/346/54 91/343/54 94/356/54 95/360/54
f 11/37/55 90/337/55 93/351/55 13/45/55
f 90/338/56 89/333/56 92/347/56 93/352/56
f 89/334/57 88/331/57 91/344/57 92/348/57
f 9/30/58 87/324/58 90/339/58 11/38/58
f 87/325/59 86/319/59 89/335/59 90/340/59
f 86/320/60 85/317/60 88/332/60 89/336/60
f 7/23/61 84/310/61 87/326/61 9/31/61
f 83/305/62 86/321/62 111/421/62 109/413/62
f 83/306/63 82/303/63 85/318/63 86/322/63
f 5/16/64 81/297/64 84/311/64 7/24/64
f 81/298/65 80/293/65 83/307/65 84/312/65
f 80/294/66 79/291/66 82/304/66 83/308/66
f 3/9/67 78/285/67 81/299/67 5/17/67
f 78/286/68 77/281/68 80/295/68 81/300/68
f 77/282/69 76/279/69 79/292/69 80/296/69
f 1/3/70 73/267/70 78/287/70 3/10/70
f 73/268/71 74/271/71 77/283/71 78/288/71
f 74/272/72 75/276/72 76/280/72 77/284/72
f 109/414/73 111/422/73 115/437/73 113/429/73
f 84/313/74 83/309/74 109/415/74 110/417/74
f 87/327/75 84/314/75 110/418/75 112/425/75
f 86/323/76 87/328/76 112/426/76 111/423/76
f 114/433/77 113/430/77 117/445/77 118/448/77
f 111/424/78 112/427/78 116/441/78 115/438/78
f 112/428/79 110/419/79 114/434/79 116/442/79
f 110/420/80 109/416/80 113/431/80 114/435/80
f 118/449/81 117/446/81 119/451/81 120/454/81
f 113/432/82 115/439/82 119/452/82 117/447/82
f 115/440/83 116/443/83 120/455/83 119/453/83
f 116/444/84 114/436/84 118/450/84 120/456/84
f 37/133/85 38/136/85 48/166/85 47/163/85 46/160/85 45/157/85 44/154/85 43/151/85 42/148/85 41/145/85 40/142/85 39/139/85
f 62/221/85 61/217/85 49/171/85 50/175/85
f 61/218/85 63/225/85 51/179/85 49/172/85
f 63/226/85 64/229/85 52/183/85 51/180/85
f 64/230/85 65/233/85 53/187/85 52/184/85
f 65/234/85 66/237/85 54/191/85 53/188/85
f 66/238/85 67/241/85 55/195/85 54/192/85
f 67/242/85 68/245/85 56/199/85 55/196/85
f 68/246/85 69/249/85 57/203/85 56/200/85
f 69/250/85 70/253/85 58/207/85 57/204/85
f 70/254/85 71/257/85 59/211/85 58/208/85
f 71/258/85 72/261/85 60/215/85 59/212/85
f 72/262/85 62/222/85 50/176/85 60/216/85
f 38/137/85 37/134/85 61/219/85 62/223/85
f 37/135/85 39/140/85 63/227/85 61/220/85
f 39/141/85 40/143/85 64/231/85 63/228/85
f 40/144/85 41/146/85 65/235/85 64/232/85
f 41/147/85 42/149/85 66/239/85 65/236/85
f 42/150/85 43/152/85 67/243/85 66/240/85
f 43/153/85 44/155/85 68/247/85 67/244/85
f 44/156/85 45/158/85 69/251/85 68/248/85
f 45/159/85 46/161/85 70/255/85 69/252/85
f 46/162/85 47/164/85 71/259/85 70/256/85
f 47/165/85 48/167/85 72/263/85 71/260/85
f 48/168/85 38/138/85 62/224/85 72/264/85
