# Blender 3.4.1
# www.blender.org
mtllib Rock 002.mtl
o Rock_002
v 0.782094 -0.495149 0.768145
v -0.728912 -0.495149 0.768145
v 0.782094 -0.495149 -0.742859
v -0.894466 0.150655 0.933702
v -0.894466 -0.636668 0.012643
v 0.026593 -0.636668 -0.908417
v 0.947652 0.150656 -0.908417
v 0.947652 -0.636668 0.012643
v -0.580455 0.150656 -1.026866
v 0.472241 0.150656 -1.087749
v 0.026593 -0.005998 -1.186725
v -1.082431 0.150656 0.435411
v -0.817126 0.608001 -0.648977
v -0.975169 0.479463 -0.324020
v -1.010883 0.399378 0.343337
v -0.447643 0.829886 -0.493648
v 0.889020 0.379355 -0.849788
v 0.785825 0.458416 -0.860803
v 0.546735 0.622738 -0.716119
v -0.469661 -0.543711 0.824956
v 0.603368 -0.528629 0.807310
v 0.026593 -0.483279 1.001391
v -0.454116 -0.778658 0.012643
v 0.026593 -0.847232 -0.255393
v 0.566888 -0.759443 0.012643
v -0.857036 -0.604670 -0.158177
v -0.606456 -0.518087 -0.769693
v -0.628902 0.150656 -1.008593
v -0.649310 0.200267 -0.983377
v -0.826350 0.521482 -0.717342
v -0.948955 -0.513198 0.012643
v -0.981540 0.456061 -0.333497
v -1.117637 0.006469 0.173399
v 0.469216 0.150655 1.114175
v 0.816853 -0.359563 0.802903
v 1.124699 0.150656 -0.439060
v 1.110951 -0.266615 0.012643
v 1.121686 0.158450 -0.439751
v -0.884135 0.190951 0.923372
v 0.417779 0.150655 1.133578
v -0.712863 0.150655 1.002206
v 0.026593 0.049272 1.236401
v -0.924037 0.436024 0.560312
v -0.331714 0.860565 0.008231
v 0.205590 0.779867 0.188686
v 0.521642 0.490547 0.648546
v 0.462731 0.170868 1.109240
vn 0.2655 -0.9268 -0.2655
vn 0.2767 -0.9289 0.2462
vn 0.2993 -0.3501 -0.8876
vn -0.2946 -0.3580 -0.8860
vn -0.3351 0.3137 -0.8884
vn -0.9029 -0.1711 -0.3942
vn -0.8912 0.3395 -0.3009
vn -0.5356 0.8413 0.0723
vn -0.3351 0.3137 0.8884
vn 0.1810 0.9782 -0.1016
vn 0.3351 0.3137 -0.8884
vn 0.8582 0.3638 0.3622
vn 0.0181 -0.9604 0.2781
vn -0.2733 -0.9291 0.2492
vn -0.9627 0.2698 -0.0191
vn -0.8898 -0.3469 0.2966
vn -0.0452 0.6223 -0.7815
vn -0.8819 -0.3892 -0.2661
vn -0.2680 -0.9254 -0.2680
vn 0.5999 0.7952 0.0881
vn 0.8903 -0.3462 -0.2959
vn 0.8884 0.3137 -0.3351
vn 0.8884 -0.3670 0.2757
vn -0.0654 0.8237 0.5632
vn -0.3015 -0.3470 0.8881
vn 0.3340 0.3233 0.8854
vn 0.2930 -0.3577 0.8867
vn -0.8819 0.3464 0.3198
vt 0.876435 0.824715
vt 0.235781 0.807401
vt 0.007014 0.807447
vt 0.930969 0.356285
vt 0.978359 0.060616
vt 0.837518 0.773644
vt 0.488432 0.651480
vt 0.422134 0.686436
vt 0.702910 0.382143
vt 0.439010 0.378730
vt 0.978359 0.200682
vt 0.972116 0.812396
vt 0.261933 0.715783
vt 0.954241 0.514906
vt 0.828339 0.004082
vt 0.258491 0.450362
vt 0.012803 0.594743
vt 0.465159 0.810101
vt 0.434707 0.846261
vt 0.606522 0.975122
vt 0.191829 0.791149
vt 0.287574 0.647552
vt 0.886804 0.208846
vt 0.837498 0.343359
vt 0.801637 0.936702
vt 0.644237 0.613704
vt 0.833220 0.979099
vt 0.690139 0.541952
vt 0.248433 0.967220
vt 0.475612 0.818265
vt 0.444794 0.407046
vt 0.280609 0.085294
vt 0.273075 0.750135
vt 0.886804 0.312449
vt 0.335328 0.293216
vt 0.294150 0.846261
vt 0.606522 0.834566
vt 0.273075 0.217000
vt 0.685862 0.995918
vt 0.870846 0.185432
vt 0.261933 0.607194
vt 0.230973 0.329368
vt 0.778758 0.004082
vt 0.382424 0.004082
vt 0.246241 0.406064
vt 0.812552 0.074604
vt 0.739422 0.834418
vt 0.812552 0.211847
vt 0.659910 0.946282
vt 0.207323 0.594743
vt 0.687979 0.026103
vt 0.825055 0.825718
vt 0.456994 0.060339
vt 0.837694 0.215812
vt 0.331336 0.639388
vt 0.752527 0.929736
vt 0.820717 0.236293
vt 0.428421 0.331960
vt 0.307634 0.627311
vt 0.825055 0.613704
vt 0.456994 0.272354
vt 0.273075 0.570962
vt 0.004082 0.544175
vt 0.877496 0.343359
vt 0.833220 0.718799
vt 0.914133 0.820560
vt 0.222808 0.551216
vt 0.004082 0.845260
vt 0.103512 0.586579
vt 0.858927 0.613806
vt 0.028658 0.967235
vt 0.014844 0.372064
vt 0.859902 0.514906
vt 0.004082 0.688679
vt 0.605060 0.810101
vt 0.115263 0.320052
vt 0.051928 0.791149
vt 0.651746 0.694931
vt 0.914133 0.989452
vt 0.222808 0.382324
vt 0.468807 0.405494
vt 0.255603 0.414229
vt 0.048028 0.603298
vt 0.472615 0.964422
vt 0.465159 0.541346
vt 0.172328 0.658238
vt 0.465159 0.819746
vt 0.439010 0.398214
vt 0.595027 0.605539
vt 0.444794 0.387602
vt 0.606175 0.600869
vt 0.289409 0.067955
vt 0.681974 0.548054
vt 0.251522 0.320052
vt 0.360356 0.008782
vt 0.493742 0.369571
vt 0.820717 0.030523
vt 0.230973 0.450362
vt 0.681974 0.462586
vt 0.251522 0.405520
vt 0.744363 0.836361
vt 0.606869 0.343359
vt 0.744363 0.977272
vt 0.823270 0.146619
vt 0.548624 0.334365
vt 0.264131 0.331038
vt 0.156215 0.871759
vt 0.465159 0.220747
vt 0.207508 0.799313
vt 0.035274 0.799313
vt 0.643896 0.004082
vt 0.851737 0.444646
vt 0.801637 0.834418
vt 0.532315 0.061345
vt 0.772612 0.541952
vt 0.165960 0.967220
vt 0.645505 0.004660
vt 0.430846 0.602412
vt 0.799963 0.834767
vt 0.447721 0.379437
vt 0.259157 0.040411
vt 0.253280 0.714555
vt 0.211861 0.305243
vt 0.261906 0.320052
vt 0.157795 0.882857
vt 0.447721 0.340125
vt 0.264911 0.079301
vt 0.977616 0.773204
vt 0.264911 0.238801
vt 0.977616 0.613704
vt 0.147347 0.967235
vt 0.788894 0.253882
vt 0.177161 0.004082
vt 0.199993 0.642418
vt 0.653669 0.125565
vt 0.719843 0.826254
vt 0.004082 0.073328
vt 0.659910 0.726079
vt 0.307289 0.374162
vt 0.006489 0.190038
vt 0.645505 0.266948
vt 0.430846 0.340125
vt 0.090670 0.286672
vt 0.552989 0.335194
vt 0.202835 0.311888
vt 0.259687 0.331038
s 0
usemtl Rocks.008
f 24/75/1 6/18/1 3/7/1 8/26/1 25/78/1
f 21/66/2 25/79/2 8/27/2 1/1/2
f 6/19/3 11/36/3 10/33/3 7/22/3 3/8/3
f 27/84/4 28/87/4 9/30/4 11/37/4 6/20/4
f 28/88/5 29/90/5 9/31/5
f 33/102/6 32/99/6 30/93/6 29/91/6 28/89/6 27/85/6 26/81/6 31/96/6
f 32/100/7 14/45/7 13/42/7 30/94/7
f 43/132/8 44/135/8 16/51/8 13/43/8 14/46/8 15/48/8
f 41/126/9 39/120/9 4/10/9
f 44/136/10 45/138/10 19/60/10 16/52/10
f 10/34/11 18/57/11 17/54/11 7/23/11
f 46/141/12 47/144/12 34/105/12 35/108/12 37/114/12 36/111/12 38/117/12
f 20/63/13 23/72/13 24/76/13 25/80/13 21/67/13 22/69/13
f 2/4/14 5/14/14 23/73/14 20/64/14
f 15/49/15 14/47/15 32/101/15 33/103/15 12/39/15
f 2/5/16 4/11/16 12/40/16 33/104/16 31/97/16 5/15/16
f 18/58/17 10/35/17 11/38/17 9/32/17 29/92/17 30/95/17 13/44/17 16/53/17 19/61/17
f 5/16/18 31/98/18 26/82/18
f 5/17/19 26/83/19 27/86/19 6/21/19 24/77/19 23/74/19
f 45/139/20 46/142/20 38/118/20 17/55/20 18/59/20 19/62/20
f 3/9/21 7/24/21 36/112/21 37/115/21 8/28/21
f 7/25/22 17/56/22 38/119/22 36/113/22
f 8/29/23 37/116/23 35/109/23 1/2/23
f 45/140/24 44/137/24 43/133/24 39/121/24 41/127/24 42/129/24 40/123/24 47/145/24 46/143/24
f 22/70/25 42/130/25 41/128/25 4/12/25 2/6/25 20/65/25
f 34/106/26 47/146/26 40/124/26
f 1/3/27 35/110/27 34/107/27 40/125/27 42/131/27 22/71/27 21/68/27
f 4/13/28 39/122/28 43/134/28 15/50/28 12/41/28
