# Blender 3.4.1
# www.blender.org
mtllib Rock 006.mtl
o Rock_006
v -1.329129 -1.546132 -1.296855
v -1.656742 -1.928107 0.198171
v 0.165899 -1.928107 -1.624469
v 0.165899 3.123650 0.198172
v -1.808089 -1.460310 0.198171
v 0.165899 3.046959 0.372546
v 0.165899 -0.799147 -1.989724
v 0.165899 2.672054 -0.828631
v 1.042344 2.304858 -0.832774
v -0.807306 -2.301695 0.198171
v 0.165899 -2.058394 -1.328233
v -1.345629 -1.458339 -1.313356
v -1.594898 -0.753804 -1.064245
v -0.971055 2.210751 -0.902057
v -0.634473 2.275952 -1.069505
v 0.138309 -0.777654 -1.986270
v -1.183882 -1.583242 1.725027
v 0.875186 2.811700 0.198172
v 0.735905 2.706203 0.643869
v 1.318481 2.350534 -0.435161
v 1.675357 1.484816 -0.457847
v -0.812033 2.693548 0.198172
v -1.697069 -0.716378 1.157000
v -0.697428 2.608089 0.561766
v -0.940808 2.562475 -0.000197
v 1.017235 -1.710593 -1.437911
v 1.974947 -1.137505 -0.636917
v 1.577344 0.343224 -1.251937
v 1.424063 0.427467 -1.409057
v 0.785660 -0.595428 -1.837657
v 1.594731 -1.701186 -0.899663
v 1.803995 -1.648870 -0.712660
v -1.339862 -1.558648 1.644214
v -1.619219 -0.751653 1.382907
v 2.177348 -1.142444 -0.004507
v 2.076725 -0.104094 0.122844
v 2.075562 -1.580978 0.114392
v 0.805458 2.208375 0.963709
v -0.874258 1.189984 1.435251
v -1.038751 0.742100 1.441420
v -1.040479 -1.193248 1.736278
v 1.264112 0.925524 1.102286
v -0.022202 -2.078029 1.491830
v -0.584559 -1.767929 1.784599
v 1.198257 -1.768370 1.163149
v -0.482654 -1.625538 1.793526
v 0.926053 -1.012350 1.493976
vn -0.3726 0.8636 0.3397
vn -0.4631 0.1453 -0.8743
vn -0.3343 -0.8812 -0.3343
vn -0.9253 -0.2538 -0.2819
vn -0.2795 -0.2897 -0.9154
vn 0.6780 -0.1192 -0.7253
vn 0.3671 0.8548 -0.3669
vn 0.3701 0.8656 0.3374
vn -0.8766 0.3268 0.3531
vn -0.9769 0.2082 -0.0484
vn -0.9256 -0.2521 0.2825
vn -0.3526 0.8674 -0.3511
vn 0.1274 0.3146 -0.9406
vn 0.7581 0.3273 -0.5641
vn 0.9448 0.1285 -0.3014
vn 0.3161 -0.8831 -0.3467
vn 0.2911 -0.2816 -0.9143
vn -0.0846 0.5302 0.8436
vn 0.9175 -0.2764 -0.2860
vn 0.3157 -0.2827 0.9058
vn -0.4388 0.1357 0.8883
vn 0.8680 0.3485 0.3537
vn 0.1310 0.1549 0.9792
vn 0.7674 -0.0043 0.6412
vn -0.0968 0.0069 0.9953
vn 0.2441 -0.9697 0.0113
vn -0.3371 -0.8821 0.3291
vt 0.392081 0.843676
vt 0.908255 0.311511
vt 0.657022 0.773042
vt 0.392081 0.689722
vt 0.931069 0.159256
vt 0.995809 0.843994
vt 0.143218 0.923087
vt 0.247151 0.895612
vt 0.631424 0.924854
vt 0.181416 0.550138
vt 0.641225 0.384327
vt 0.212732 0.652119
vt 0.880236 0.531827
vt 0.783228 0.344459
vt 0.954335 0.004191
vt 0.976679 0.174167
vt 0.332559 0.004191
vt 0.948493 0.851982
vt 0.194386 0.655133
vt 0.764882 0.341446
vt 0.493334 0.912119
vt 0.747230 0.924854
vt 0.164704 0.395296
vt 0.663511 0.270685
vt 0.988309 0.514347
vt 0.954335 0.113668
vt 0.079863 0.742304
vt 0.988309 0.421604
vt 0.004191 0.688684
vt 0.476170 0.891128
vt 0.301904 0.698111
vt 0.261659 0.637096
vt 0.053041 0.914698
vt 0.239296 0.865020
vt 0.212579 0.545000
vt 0.239296 0.460240
vt 0.460755 0.340116
vt 0.915919 0.315969
vt 0.665692 0.771191
vt 0.453381 0.263587
vt 0.992802 0.315969
vt 0.239296 0.112218
vt 0.596156 0.004191
vt 0.350546 0.386616
vt 0.836967 0.138492
vt 0.632842 0.010573
vt 0.872087 0.150873
vt 0.166843 0.718152
vt 0.632842 0.330748
vt 0.749122 0.921993
vt 0.166843 0.397977
vt 0.884334 0.159256
vt 0.175225 0.830713
vt 0.129145 0.764094
vt 0.880421 0.456203
vt 0.783228 0.268835
vt 0.569401 0.398633
vt 0.737245 0.277116
vt 0.559355 0.935429
vt 0.615148 0.408127
vt 0.946783 0.398633
vt 0.429828 0.901347
vt 0.497441 0.449032
vt 0.400463 0.814776
vt 0.871854 0.398633
vt 0.485201 0.539625
vt 0.212732 0.756386
vt 0.724027 0.398633
vt 0.851447 0.021091
vt 0.749122 0.754081
vt 0.444999 0.042964
vt 0.899955 0.960565
vt 0.175225 0.749515
vt 0.689821 0.415481
vt 0.485201 0.816155
vt 0.749122 0.406795
vt 0.444999 0.390250
vt 0.838311 0.043979
vt 0.757505 0.843869
vt 0.175225 0.462689
vt 0.728863 0.386642
vt 0.891573 0.845335
vt 0.764478 0.633434
vt 0.175225 0.627665
vt 0.891573 0.684111
vt 0.454064 0.689722
vt 0.757505 0.472360
vt 0.875814 0.667431
vt 0.013211 0.493639
vt 0.476170 0.695875
vt 0.765690 0.726347
vt 0.099869 0.403701
vt 0.728863 0.268835
vt 0.827460 0.876169
vt 0.212579 0.395296
vt 0.375736 0.398633
vt 0.854393 0.883303
vt 0.225876 0.643737
vt 0.403597 0.398823
vt 0.995809 0.992905
vt 0.867389 0.162803
vt 0.143218 0.774177
vt 0.727224 0.762809
vt 0.909308 0.982203
vt 0.836967 0.244482
vt 0.824008 0.659049
vt 0.180662 0.563086
vt 0.641225 0.163072
vt 0.871854 0.568321
vt 0.528289 0.703752
vt 0.682662 0.069244
vt 0.225876 0.558521
vt 0.644943 0.208364
vt 0.476819 0.442417
vt 0.611298 0.909293
vt 0.643174 0.459075
vt 0.048927 0.004191
vt 0.651556 0.574404
vt 0.611298 0.712134
vt 0.215924 0.108994
vt 0.667139 0.618291
vt 0.899873 0.387795
vt 0.230914 0.153087
vt 0.899873 0.196731
vt 0.230914 0.344151
vt 0.215794 0.830713
vt 0.643174 0.592726
vt 0.004191 0.130132
vt 0.828585 0.004191
vt 0.921442 0.792606
vt 0.404247 0.681339
vt 0.004191 0.773623
vt 0.975250 0.835612
vt 0.178651 0.769327
vt 0.069143 0.750687
vt 0.899955 0.667431
vt 0.769157 0.260453
vt 0.476819 0.577110
vt 0.984756 0.821384
vt 0.176631 0.386913
vt 0.195144 0.764768
vt 0.984756 0.668614
vt 0.037889 0.322966
vt 0.828585 0.199948
s 0
usemtl Rocks.004
f 22/67/1 24/73/1 6/19/1 4/12/1
f 13/40/2 14/43/2 15/46/2 16/49/2 12/37/2
f 2/4/3 1/1/3 3/8/3 11/34/3 10/31/3
f 2/5/4 5/16/4 13/41/4 12/38/4 1/2/4
f 1/3/5 12/39/5 16/50/5 7/22/5 3/9/5
f 32/97/6 31/94/6 26/79/6 30/91/6 29/88/6 28/85/6 27/82/6
f 8/25/7 4/13/7 18/55/7 20/61/7 9/28/7
f 4/14/8 6/20/8 19/58/8 18/56/8
f 39/118/9 24/74/9 22/68/9 25/76/9 23/70/9 34/103/9 40/121/9
f 14/44/10 13/42/10 5/17/10 23/71/10 25/77/10
f 33/100/11 34/104/11 23/72/11 5/18/11 2/6/11
f 14/45/12 25/78/12 22/69/12 4/15/12 8/26/12 15/47/12
f 16/51/13 15/48/13 8/27/13 9/29/13 29/89/13 30/92/13 7/23/13
f 9/30/14 20/62/14 21/64/14 28/86/14 29/90/14
f 36/109/15 35/106/15 27/83/15 28/87/15 21/65/15
f 11/35/16 3/10/16 26/80/16 31/95/16
f 3/11/17 7/24/17 30/93/17 26/81/17
f 38/115/18 19/59/18 6/21/18 24/75/18 39/119/18
f 32/98/19 27/84/19 35/107/19 37/112/19
f 45/136/20 47/142/20 46/139/20 44/133/20 43/130/20
f 41/124/21 40/122/21 34/105/21 33/101/21 17/52/21
f 20/63/22 18/57/22 19/60/22 38/116/22 42/127/22 36/110/22 21/66/22
f 39/120/23 40/123/23 41/125/23 46/140/23 47/143/23 42/128/23 38/117/23
f 35/108/24 36/111/24 42/129/24 47/144/24 45/137/24 37/113/24
f 41/126/25 17/53/25 44/134/25 46/141/25
f 37/114/26 45/138/26 43/131/26 10/32/26 11/36/26 31/96/26 32/99/26
f 33/102/27 2/7/27 10/33/27 43/132/27 44/135/27 17/54/27
