# Blender 3.4.1
# www.blender.org
mtllib Rock 004.mtl
o Rock_004
v 0.647602 -0.599533 0.639080
v 0.002693 -0.780636 0.780403
v -0.783539 -0.780635 -0.005829
v 0.002693 -0.780635 -0.792061
v 0.788925 -0.780635 -0.005829
v 0.002693 -1.160694 -0.005829
v 0.326747 -0.689634 -0.721048
v 0.661581 -0.617447 -0.586943
v 0.002693 -0.577489 -0.851858
v -0.132176 1.182845 0.272354
v -0.208538 1.175254 0.170067
v -0.200223 1.191117 0.277182
v -0.458018 -0.651259 0.679444
v -0.655633 -0.616727 0.577855
v -0.355845 0.894215 0.512020
v -0.848931 -0.046509 0.403013
v 0.211952 0.962280 0.374592
v 0.953525 -0.221451 -0.005829
v 0.664233 -0.502276 0.655711
v 0.234328 1.075601 -0.153852
v -0.141211 1.107067 -0.217729
v -0.768672 -0.761584 -0.073670
v -0.508335 -0.637129 -0.680076
v -0.802790 -0.715232 -0.005829
v -0.911818 -0.166486 0.136603
v 0.808730 -0.097969 -0.530746
v 0.956733 -0.068277 -0.116854
v 0.499566 0.898735 -0.046278
v 0.403558 0.985338 -0.179871
v 0.566006 0.307729 -0.630531
v -0.112959 -0.265499 -0.900070
v -0.352077 0.901404 -0.298299
v -0.254894 0.969754 -0.342836
v -0.746363 0.149171 -0.292695
v -0.504121 -0.516466 -0.711910
v 0.036984 0.182914 -0.842351
v 0.002693 -0.554967 0.846831
v -0.215394 0.734312 0.603265
v -0.101222 -0.497329 0.832436
v 0.449464 -0.209321 0.800343
v 0.207310 0.578156 0.647520
vn -0.3710 -0.8513 0.3710
vn 0.3705 -0.8517 0.3705
vn 0.2781 -0.2712 -0.9215
vn 0.3715 -0.8509 -0.3715
vn 0.4849 0.8507 0.2030
vn -0.4362 0.1254 0.8911
vn 0.9224 -0.2618 0.2840
vn 0.8432 0.4229 -0.3319
vn -0.0366 0.1795 0.9831
vn -0.6295 0.7392 -0.2393
vn 0.1085 0.9821 -0.1539
vn -0.8857 0.4642 -0.0000
vn -0.9255 -0.2439 0.2899
vn -0.3742 -0.8485 -0.3742
vn -0.9215 -0.2712 -0.2781
vn 0.9223 -0.2508 -0.2941
vn 0.3728 -0.0052 -0.9279
vn -0.9106 -0.0754 -0.4064
vn 0.1838 0.5745 -0.7976
vn -0.2830 -0.2536 -0.9250
vn -0.5585 0.2869 -0.7783
vn 0.7992 0.3417 0.4945
vn 0.1271 0.5735 0.8093
vn -0.2781 -0.2712 0.9215
vn 0.2839 -0.2496 0.9258
vt 0.268143 0.786720
vt 0.928496 0.008397
vt 0.878247 0.360946
vt 0.818661 0.201763
vt 0.228515 0.636882
vt 0.777921 0.320601
vt 0.938647 0.503682
vt 0.624466 0.041144
vt 0.228515 0.817740
vt 0.773259 0.818312
vt 0.214470 0.367065
vt 0.479928 0.914601
vt 0.004059 0.819240
vt 0.579054 0.657643
vt 0.690135 0.826429
vt 0.422744 0.797682
vt 0.198230 0.658741
vt 0.958745 0.160406
vt 0.431985 0.667964
vt 0.818661 0.004058
vt 0.422744 0.599978
vt 0.198230 0.856446
vt 0.773259 0.620607
vt 0.464704 0.838224
vt 0.024087 0.743980
vt 0.359231 0.591861
vt 0.058902 0.668329
vt 0.570937 0.681991
vt 0.432636 0.552530
vt 0.431985 0.914601
vt 0.276152 0.590517
vt 0.643118 0.835800
vt 0.867012 0.995942
vt 0.689925 0.321682
vt 0.950588 0.301733
vt 0.745838 0.953485
vt 0.710988 0.301821
vt 0.326141 0.007953
vt 0.704966 0.325659
vt 0.301865 0.004058
vt 0.945461 0.316421
vt 0.708216 0.193932
vt 0.524047 0.004058
vt 0.777921 0.209880
vt 0.660288 0.176769
vt 0.475687 0.019963
vt 0.368282 0.805799
vt 0.585099 0.351428
vt 0.249201 0.080298
vt 0.852801 0.316421
vt 0.440753 0.157538
vt 0.275465 0.320588
vt 0.368282 0.947740
vt 0.781376 0.953925
vt 0.134713 0.342644
vt 0.930707 0.208439
vt 0.826778 0.160406
vt 0.444653 0.799322
vt 0.209854 0.023619
vt 0.906262 0.004058
vt 0.035556 0.004058
vt 0.894177 0.344840
vt 0.867012 0.866386
vt 0.624466 0.209880
vt 0.610098 0.588739
vt 0.698252 0.876581
vt 0.710988 0.211386
vt 0.693309 0.612490
vt 0.756995 0.817158
vt 0.214470 0.350761
vt 0.941707 0.682096
vt 0.610536 0.776354
vt 0.802658 0.620607
vt 0.690135 0.949243
vt 0.232810 0.832565
vt 0.199333 0.364048
vt 0.949878 0.700506
vt 0.335980 0.350857
vt 0.300709 0.944246
vt 0.911724 0.825514
vt 0.770411 0.610433
vt 0.570937 0.804886
vt 0.432636 0.429635
vt 0.870130 0.612490
vt 0.474438 0.830106
vt 0.241084 0.052937
vt 0.796103 0.838562
vt 0.870130 0.369805
vt 0.241084 0.295623
vt 0.837904 0.833631
vt 0.836244 0.344840
vt 0.579054 0.557812
vt 0.739072 0.505629
vt 0.349132 0.358974
vt 0.599387 0.371044
vt 0.228515 0.531151
vt 0.579054 0.876904
vt 0.077717 0.350761
vt 0.745838 0.826428
vt 0.432636 0.077250
vt 0.034070 0.649721
vt 0.717509 0.831192
vt 0.730955 0.580650
vt 0.005358 0.650624
vt 0.432636 0.269532
vt 0.785407 0.825514
vt 0.191216 0.538917
vt 0.781376 0.639212
vt 0.662286 0.954090
vt 0.191216 0.352571
vt 0.233868 0.423446
vt 0.730955 0.359545
vt 0.004058 0.429522
vt 0.548712 0.659847
vt 0.725691 0.310191
vt 0.982691 0.473740
vt 0.616349 0.309335
vt 0.570937 0.359545
vt 0.826778 0.270911
vt 0.616349 0.024537
vt 0.570937 0.644342
vt 0.719105 0.283904
vt 0.440753 0.590495
vt 0.004058 0.086781
vt 0.982691 0.345425
vt 0.478893 0.404668
vt 0.057801 0.268710
vt 0.831771 0.168523
s 0
usemtl Rocks.006
f 14/45/1 3/8/1 6/20/1 2/4/1 13/42/1
f 2/5/2 6/21/2 5/16/2 1/1/2
f 4/12/3 9/30/3 7/24/3
f 6/22/4 4/13/4 7/25/4 8/27/4 5/17/4
f 29/90/5 20/63/5 10/33/5 17/54/5 28/87/5
f 38/117/6 15/48/6 16/51/6 14/46/6 13/43/6 39/120/6
f 5/18/7 18/57/7 19/60/7 1/2/7
f 28/88/8 27/84/8 26/81/8 30/93/8 29/91/8
f 40/123/9 41/126/9 38/118/9 39/121/9 37/114/9
f 32/99/10 11/36/10 21/66/10 33/102/10
f 12/39/11 10/34/11 20/64/11 21/67/11 11/37/11
f 32/100/12 34/105/12 25/78/12 16/52/12 15/49/12 12/40/12 11/38/12
f 14/47/13 16/53/13 25/79/13 24/75/13 3/9/13
f 3/10/14 22/69/14 23/72/14 4/14/14 6/23/14
f 3/11/15 24/76/15 22/70/15
f 8/28/16 26/82/16 27/85/16 18/58/16 5/19/16
f 31/96/17 36/111/17 30/94/17 26/83/17 8/29/17 7/26/17 9/31/17
f 23/73/18 22/71/18 24/77/18 25/80/18 34/106/18 35/108/18
f 29/92/19 30/95/19 36/112/19 33/103/19 21/68/19 20/65/19
f 23/74/20 35/109/20 31/97/20 9/32/20 4/15/20
f 34/107/21 32/101/21 33/104/21 36/113/21 31/98/21 35/110/21
f 17/55/22 41/127/22 40/124/22 19/61/22 18/59/22 27/86/22 28/89/22
f 15/50/23 38/119/23 41/128/23 17/56/23 10/35/23 12/41/23
f 2/6/24 37/115/24 39/122/24 13/44/24
f 1/3/25 19/62/25 40/125/25 37/116/25 2/7/25
