# Blender 3.4.1
# www.blender.org
mtllib Rock 009.mtl
o Rock_009
v 1.340485 1.595352 -0.014396
v 1.428596 -0.719111 -1.237991
v 0.019894 0.093329 -1.874916
v 0.205002 -0.161983 -1.848434
v 0.958344 1.496188 -0.701923
v 0.000336 1.247591 -1.443586
v -0.810028 0.093328 1.533065
v 0.205002 -0.429497 1.718731
v 0.850605 1.468231 0.866963
v 1.355267 -1.053731 -1.164663
v 1.374043 -1.075713 -1.075778
v 0.205002 -0.949217 -1.551478
v 1.449078 -0.625634 1.229682
v 0.989883 -0.104614 1.545213
v 1.333454 1.311800 0.915156
v 1.930233 -0.450421 -0.014397
v 1.486946 1.540104 -0.014396
v 1.362267 1.310870 0.888432
v 1.696884 -0.207897 0.906959
v -0.368820 0.093329 -1.728287
v -0.413628 1.140171 -1.351120
v -0.955589 -1.006625 1.146194
v 0.205002 -0.914863 1.535643
v 1.593033 -1.294704 -0.076441
v 1.511482 -1.308191 -0.133682
v 1.365589 -1.006626 1.146194
v 1.617271 -1.280085 -0.014397
v -1.184095 0.093328 1.391961
v -0.544930 1.106098 1.081762
v -0.934494 0.484589 1.368033
v -1.193487 0.078987 1.384090
v -0.616684 1.087479 -1.064873
v 1.423588 1.437429 -0.410864
v 1.722107 -0.229561 -0.851564
v 1.926945 -0.272722 -0.200813
v 1.503807 1.515940 -0.073386
v -0.905533 -1.030325 -1.183709
v -0.904476 -0.899673 -1.226545
v -1.066298 -1.297733 -0.089300
v -1.134882 -1.201429 0.319425
v -1.055590 0.381991 -0.621666
v -1.290602 -0.055712 0.991135
vn -0.0080 -0.9711 -0.2385
vn 0.3397 -0.9004 -0.2717
vn -0.3095 0.3199 -0.8955
vn 0.2909 -0.3170 -0.9027
vn 0.6743 0.1574 0.7215
vn -0.8186 0.1634 -0.5506
vn 0.9589 0.2136 0.1867
vn 0.3010 -0.2954 0.9067
vn 0.2863 0.9159 0.2812
vn 0.9039 -0.3117 0.2930
vn -0.2965 -0.3151 -0.9015
vn -0.2512 0.9679 -0.0000
vn 0.0376 0.3985 0.9164
vn -0.3397 0.2718 0.9004
vn -0.3068 -0.2933 0.9055
vn 0.9305 0.2398 -0.2770
vn 0.9040 -0.3134 -0.2907
vn 0.5325 0.3042 -0.7899
vn 0.3089 0.9042 -0.2949
vn -0.8422 0.5387 0.0235
vn -0.9182 -0.2773 0.2830
vn -0.0000 -0.9733 0.2293
vn -0.9869 -0.0430 -0.1555
vt 0.910461 0.213694
vt 0.003856 0.192088
vt 0.565995 0.952041
vt 0.978798 0.192144
vt 0.325910 0.832915
vt 0.198133 0.627475
vt 0.927619 0.966960
vt 0.677778 0.822337
vt 0.003856 0.518593
vt 0.978798 0.003856
vt 0.643253 0.843230
vt 0.025293 0.552784
vt 0.051144 0.102731
vt 0.186821 0.330925
vt 0.565995 0.850942
vt 0.927619 0.809810
vt 0.174014 0.003856
vt 0.032638 0.364101
vt 0.291862 0.404096
vt 0.684870 0.295340
vt 0.267732 0.700203
vt 0.922295 0.630349
vt 0.433598 0.363236
vt 0.346050 0.825203
vt 0.954024 0.335755
vt 0.072234 0.302183
vt 0.456597 0.640017
vt 0.541447 0.021642
vt 0.935850 0.204434
vt 0.282560 0.843705
vt 0.553159 0.019432
vt 0.244980 0.635187
vt 0.280807 0.855494
vt 0.488062 0.167504
vt 0.885816 0.057389
vt 0.536797 0.829865
vt 0.026950 0.870337
vt 0.936549 0.802098
vt 0.928731 0.363236
vt 0.119274 0.839706
vt 0.872376 0.728997
vt 0.521243 0.430628
vt 0.119274 0.637228
vt 0.889010 0.335755
vt 0.521243 0.633107
vt 0.829073 0.363236
vt 0.863922 0.522093
vt 0.380541 0.996144
vt 0.847380 0.622637
vt 0.890560 0.212146
vt 0.547766 0.960173
vt 0.114696 0.635187
vt 0.728719 0.605872
vt 0.885816 0.331891
vt 0.003856 0.799652
vt 0.712359 0.408219
vt 0.862485 0.397019
vt 0.875151 0.959629
vt 0.728732 0.709821
vt 0.677778 0.769359
vt 0.872376 0.817650
vt 0.712359 0.850880
vt 0.228925 0.013758
vt 0.411096 0.656626
vt 0.126986 0.762033
vt 0.318263 0.024800
vt 0.987320 0.642498
vt 0.411096 0.813170
vt 0.264632 0.171870
vt 0.244980 0.768599
vt 0.264632 0.987923
vt 0.472668 0.352577
vt 0.677157 0.003856
vt 0.235645 0.759811
vt 0.480349 0.342312
vt 0.987320 0.799042
vt 0.975929 0.382192
vt 0.313028 0.320746
vt 0.975929 0.537592
vt 0.267467 0.996144
vt 0.464486 0.355524
vt 0.729471 0.320034
vt 0.264632 0.649316
vt 0.550982 0.363236
vt 0.256920 0.323213
vt 0.294275 0.549449
vt 0.704647 0.398926
vt 0.264632 0.453518
vt 0.729471 0.260775
vt 0.610221 0.364790
vt 0.266439 0.647729
vt 0.548823 0.364295
vt 0.197093 0.635187
vt 0.755940 0.863075
vt 0.256920 0.049315
vt 0.704647 0.672824
vt 0.461642 0.658075
vt 0.256756 0.338836
vt 0.528955 0.910787
vt 0.418808 0.877071
vt 0.397531 0.883871
vt 0.256756 0.561981
vt 0.854773 0.383687
vt 0.505798 0.882673
vt 0.401607 0.970946
vt 0.854773 0.618631
vt 0.505798 0.647729
vt 0.541751 0.954297
vt 0.533836 0.309860
vt 0.528955 0.680536
vt 0.684869 0.243502
vt 0.864664 0.630349
vt 0.546364 0.682619
vt 0.699567 0.253062
vt 0.677157 0.332621
vt 0.480349 0.013547
vt 0.688525 0.098430
vt 0.197093 0.847705
vt 0.426965 0.003856
vt 0.714115 0.050587
vt 0.864664 0.812096
vt 0.597307 0.618990
vt 0.878104 0.219054
vt 0.528955 0.414937
vt 0.227933 0.680000
vt 0.878104 0.003856
s 0
usemtl Rocks.001
f 39/115/1 37/109/1 12/34/1 10/28/1 11/31/1 25/73/1
f 25/74/2 11/32/2 24/70/2
f 20/58/3 21/61/3 6/16/3 3/7/3
f 12/35/4 4/10/4 2/4/4 10/29/4
f 19/55/5 18/52/5 15/43/5 14/40/5 13/37/5
f 41/121/6 32/94/6 21/62/6 20/59/6 38/112/6
f 35/103/7 36/106/7 17/49/7 18/53/7 19/56/7 16/46/7
f 26/76/8 13/38/8 14/41/8 8/22/8 23/67/8
f 1/1/9 9/25/9 15/44/9 18/54/9 17/50/9
f 27/79/10 16/47/10 19/57/10 13/39/10 26/77/10
f 37/110/11 38/113/11 20/60/11 3/8/11 4/11/11 12/36/11
f 29/85/12 9/26/12 1/2/12 5/13/12 6/17/12 21/63/12 32/95/12
f 9/27/13 29/86/13 30/88/13 7/19/13 8/23/13 14/42/13 15/45/13
f 7/20/14 30/89/14 28/82/14
f 23/68/15 8/24/15 7/21/15 28/83/15 31/91/15 22/64/15
f 34/100/16 33/97/16 36/107/16 35/104/16
f 10/30/17 2/5/17 34/101/17 35/105/17 16/48/17 27/80/17 24/71/17 11/33/17
f 4/12/18 3/9/18 6/18/18 5/14/18 33/98/18 34/102/18 2/6/18
f 5/15/19 1/3/19 17/51/19 36/108/19 33/99/19
f 28/84/20 30/90/20 29/87/20 32/96/20 41/122/20 42/124/20 31/92/20
f 22/65/21 31/93/21 42/125/21 40/118/21
f 24/72/22 27/81/22 26/78/22 23/69/22 22/66/22 40/119/22 39/116/22 25/75/22
f 38/114/23 37/111/23 39/117/23 40/120/23 42/126/23 41/123/23
