# Blender 3.4.1
# www.blender.org
mtllib Rock 001.mtl
o Rock_001
v 0.800084 0.627806 -0.673951
v 0.326894 1.181677 -0.719227
v 0.579251 1.068223 -0.643032
v 0.467389 1.336615 0.240964
v 0.564084 0.425442 0.742266
v -1.011272 0.427759 -0.315155
v -0.758601 -0.806373 0.388920
v -0.757156 -0.804035 0.392689
v -0.708232 0.488950 0.485704
v 0.801091 0.627806 -0.672723
v 0.445870 1.418202 0.076055
v 0.474141 1.348220 0.209748
v 0.478909 1.336615 0.226930
v 0.435643 1.444714 -0.005021
v 0.609410 1.066722 -0.607590
v 0.651952 0.969965 -0.639843
v 0.795590 0.640456 -0.672267
v 0.518609 1.242543 0.299941
v 0.819791 -0.833173 0.230937
v 0.768693 -0.854064 0.310617
v 0.005673 0.558522 -1.035807
v 0.565633 0.411824 0.744584
v 0.181584 -0.643579 0.832744
v 0.225121 -0.027851 0.923872
v 0.555898 0.406110 0.751108
v 0.754292 -0.854064 0.337562
v 0.425496 -0.999297 0.567616
v 0.745908 -0.863449 0.342270
v 0.210065 -0.039842 0.927609
v -0.688461 -0.749702 0.507148
v -0.648490 0.195369 0.652228
v -0.713580 -0.699193 0.505125
v 0.180802 -0.640123 0.834068
v 0.213284 -0.070600 0.924507
v -0.920612 0.635862 -0.445419
v -0.948734 0.577165 -0.416425
v -1.019748 0.358752 -0.335655
v -0.416419 0.505088 -0.837900
v 0.829053 -0.829592 0.204838
v 0.399949 -1.034263 -0.781788
v 0.034249 0.191882 -1.128396
v -0.027080 0.129187 -1.111391
v 0.362859 -1.050618 -0.791390
v 0.408368 -0.981885 -0.810032
v 0.612965 0.607091 0.654263
v 0.533582 1.207288 0.321304
v 0.678895 0.404323 0.653612
v 1.043156 0.048320 -0.066436
v 1.042393 -0.043764 0.022085
v -0.267612 -1.056339 -0.789837
v 0.062489 -1.181072 -0.756005
v -0.489371 -1.168869 -0.598911
v -0.330486 -1.347229 -0.453858
v -1.003307 -0.356890 -0.271886
v -0.697627 -1.035809 -0.445305
v 0.821698 -0.827449 0.231727
v 0.788670 -0.787441 0.323993
v 0.837075 -0.807679 0.205489
v 1.033955 -0.109450 0.063383
v 1.034932 -0.077353 0.075151
v 0.909085 -0.019898 0.385353
v 0.419766 1.455878 -0.001018
v 0.071351 1.524487 -0.298510
v 0.319424 1.478870 0.139432
v 0.394910 1.461876 0.054947
v 0.342221 1.473848 0.121603
v -0.160560 -1.259187 0.332989
v -0.248206 1.517490 -0.121845
v -0.224841 1.464917 0.051540
v -0.058147 1.556297 0.032154
v -0.148174 1.572739 -0.134590
v 0.802029 0.584177 -0.685594
v 0.807336 0.613320 -0.669766
v 0.978925 0.208474 -0.401901
v 0.539204 -0.473818 -0.947836
v 0.429936 -0.113800 -1.045485
v 0.809491 0.094994 -0.759320
v 0.780110 0.259128 -0.788025
v -0.770450 -0.841244 0.340195
v -0.786540 -0.833871 0.315708
v -0.422656 -1.380689 -0.070700
v -0.709834 -1.108777 -0.160645
v -0.863689 -0.833659 0.111380
v -0.397494 -1.367974 0.027571
v 0.411034 -0.990539 0.580820
v 0.194184 -0.679325 0.815510
v -0.323718 -0.898942 0.617316
v 0.179929 -0.667167 0.824396
v 0.414773 -1.003926 0.570453
v 0.169404 -0.663545 0.826739
v -0.166766 -1.222325 0.370130
v -0.061496 -1.215111 0.380926
vn -0.4364 0.1882 -0.8799
vn 0.9011 -0.1732 0.3976
vn 0.7727 -0.4819 0.4130
vn 0.2047 0.9787 -0.0140
vn -0.9377 0.1997 -0.2845
vn 0.6769 0.4828 -0.5556
vn 0.2896 -0.0660 0.9549
vn 0.6216 0.1997 0.7574
vn 0.4619 0.1996 0.8642
vn 0.5981 0.6334 0.4910
vn -0.7275 -0.3379 0.5971
vn 0.7278 0.3380 -0.5967
vn 0.7575 0.1997 -0.6215
vn 0.0923 -0.3379 0.9366
vn 0.6118 -0.0287 -0.7905
vn 0.4128 -0.4828 -0.7723
vn -0.2045 -0.7208 -0.6623
vn 0.9930 -0.0661 0.0978
vn -0.0233 -0.7115 0.7023
vn -0.6255 -0.0835 -0.7757
vn 0.9037 0.2928 0.3124
vn 0.9007 -0.3379 0.2733
vn 0.8300 -0.3380 0.4437
vn 0.5491 0.7825 0.2935
vn 0.4813 0.7825 0.3950
vn 0.5958 0.7825 0.1807
vn 0.4714 0.8019 -0.3671
vn -0.4279 0.8473 0.3146
vn -0.0381 -0.6185 0.7849
vn 0.2733 -0.3379 0.9006
vn -0.1528 0.4639 0.8726
vn -0.8110 0.5205 0.2671
vn -0.4065 0.5716 -0.7127
vn 0.9171 0.3984 0.0146
vn 0.8904 0.0811 -0.4478
vn 0.3825 0.2541 -0.8883
vn -0.0000 -0.2618 -0.9651
vn 0.8920 -0.3171 -0.3222
vn -0.9159 -0.3776 -0.1361
vn -0.6343 -0.7419 -0.2174
vn -0.9355 0.0100 0.3532
vn -0.8300 -0.3379 0.4437
vn -0.7054 -0.6571 0.2656
vn 0.3999 -0.9164 0.0162
vn -0.3348 -0.1291 0.9334
vn -0.4520 -0.6697 0.5892
vn 0.6120 -0.1580 0.7749
vn 0.4128 -0.4828 0.7724
vt 0.614553 0.309366
vt 0.605868 0.315521
vt 0.289007 0.784193
vt 0.979619 0.808496
vt 0.706562 0.062475
vt 0.423098 0.829245
vt 0.248994 0.499452
vt 0.928997 0.785451
vt 0.368161 0.837934
vt 0.240851 0.531589
vt 0.246588 0.435172
vt 0.360516 0.022756
vt 0.553674 0.264750
vt 0.475426 0.608167
vt 0.259205 0.198004
vt 0.240851 0.370947
vt 0.494125 0.619464
vt 0.491868 0.587390
vt 0.619405 0.338468
vt 0.572042 0.306761
vt 0.958109 0.345220
vt 0.625665 0.284893
vt 0.620218 0.338864
vt 0.957359 0.344715
vt 0.500242 0.271009
vt 0.658849 0.596075
vt 0.658244 0.587390
vt 0.614853 0.309436
vt 0.605565 0.315574
vt 0.712183 0.537967
vt 0.588624 0.269869
vt 0.532378 0.320545
vt 0.801773 0.334893
vt 0.607159 0.293146
vt 0.240851 0.431938
vt 0.830833 0.341286
vt 0.244259 0.532465
vt 0.243077 0.435409
vt 0.834730 0.342635
vt 0.541718 0.306761
vt 0.887650 0.925734
vt 0.785136 0.334234
vt 0.240851 0.495564
vt 0.920236 0.787613
vt 0.697069 0.445516
vt 0.248994 0.475755
vt 0.697091 0.466933
vt 0.346360 0.828645
vt 0.614853 0.306761
vt 0.711485 0.535385
vt 0.290953 0.785949
vt 0.244259 0.508137
vt 0.342433 0.038072
vt 0.854056 0.357411
vt 0.583231 0.314442
vt 0.521876 0.299643
vt 0.474016 0.576657
vt 0.443893 0.615941
vt 0.511117 0.315044
vt 0.457679 0.585932
vt 0.182450 0.790583
vt 0.719574 0.210991
vt 0.423098 0.680160
vt 0.552973 0.262148
vt 0.474034 0.610474
vt 0.072488 0.851446
vt 0.454070 0.608777
vt 0.433626 0.616236
vt 0.018676 0.639844
vt 0.595195 0.315359
vt 0.280364 0.311251
vt 0.005607 0.760064
vt 0.475426 0.612582
vt 0.258948 0.202411
vt 0.070311 0.850164
vt 0.442311 0.610235
vt 0.508927 0.320545
vt 0.167871 0.609262
vt 0.370996 0.599482
vt 0.092498 0.575205
vt 0.465349 0.608167
vt 0.443893 0.608167
vt 0.450715 0.589389
vt 0.166169 0.607291
vt 0.592900 0.312331
vt 0.282049 0.314656
vt 0.700015 0.652912
vt 0.615844 0.258744
vt 0.873080 0.813978
vt 0.931468 0.334234
vt 0.462315 0.325549
vt 0.688385 0.528189
vt 0.878965 0.628601
vt 0.625665 0.253925
vt 0.644976 0.357467
vt 0.878965 0.804756
vt 0.454477 0.608167
vt 0.697070 0.770756
vt 0.018350 0.640500
vt 0.595195 0.306761
vt 0.698901 0.658832
vt 0.004343 0.751559
vt 0.014497 0.018656
vt 0.486628 0.669630
vt 0.508927 0.245240
vt 0.249384 0.334922
vt 0.010660 0.031922
vt 0.487202 0.655833
vt 0.249384 0.382106
vt 0.004343 0.078681
vt 0.486628 0.574355
vt 0.247644 0.853989
vt 0.140084 0.004343
vt 0.635327 0.245240
vt 0.580727 0.309644
vt 0.232166 0.351867
vt 0.477943 0.572933
vt 0.240851 0.547188
vt 0.232166 0.564125
vt 0.477943 0.360675
vt 0.230403 0.734883
vt 0.384645 0.617524
vt 0.849989 0.273857
vt 0.247644 0.736469
vt 0.250263 0.045227
vt 0.859234 0.259217
vt 0.246210 0.541150
vt 0.739541 0.041238
vt 0.471672 0.355590
vt 0.246210 0.557530
vt 0.733538 0.056478
vt 0.220767 0.566520
vt 0.579939 0.295248
vt 0.880531 0.184792
vt 0.266801 0.158477
vt 0.980727 0.273633
vt 0.336436 0.044097
vt 0.860189 0.363296
vt 0.579939 0.253925
vt 0.867919 0.145440
vt 0.100674 0.852018
vt 0.980727 0.017013
vt 0.860189 0.619916
vt 0.049312 0.351175
vt 0.559946 0.321887
vt 0.958327 0.006473
vt 0.070930 0.339113
vt 0.561028 0.887668
vt 0.250263 0.287815
vt 0.859234 0.016629
vt 0.619163 0.851052
vt 0.791636 0.004343
vt 0.411513 0.334234
vt 0.565156 0.948290
vt 0.203191 0.326237
vt 0.380015 0.846619
vt 0.619163 0.952377
vt 0.429059 0.869602
vt 0.311607 0.351130
vt 0.042591 0.212610
vt 0.982558 0.628601
vt 0.489396 0.435099
vt 0.147522 0.317216
vt 0.982558 0.776766
vt 0.336660 0.882684
vt 0.848430 0.842612
vt 0.584215 0.313791
vt 0.522986 0.300043
vt 0.828416 0.847114
vt 0.523693 0.320545
vt 0.173765 0.622801
vt 0.853531 0.847451
vt 0.584215 0.306761
vt 0.227903 0.350351
vt 0.869931 0.989781
vt 0.559946 0.306761
vt 0.085464 0.334922
vt 0.866866 0.995658
vt 0.554698 0.310810
vt 0.946256 0.004343
vt 0.801038 0.995658
vt 0.891634 0.041081
vt 0.173765 0.773845
vt 0.552343 0.854495
vt 0.545057 0.308659
vt 0.889929 0.928825
vt 0.552343 0.944277
vt 0.979619 0.924753
vt 0.605883 0.004343
vt 0.518665 0.852300
vt 0.246588 0.390791
vt 0.400897 0.004342
vt 0.540847 0.851324
vt 0.590714 0.256395
vt 0.546013 0.320545
vt 0.524220 0.851052
vt 0.607159 0.253925
vt 0.241231 0.392719
vt 0.249988 0.444094
vt 0.278782 0.504602
vt 0.891083 0.474684
vt 0.509149 0.258257
vt 0.629011 0.842367
vt 0.537671 0.023238
vt 0.544288 0.253925
vt 0.500242 0.043775
vt 0.658849 0.823309
vt 0.486628 0.922912
vt 0.544288 0.290958
vt 0.477792 0.014322
vt 0.500014 0.957259
vt 0.508927 0.280540
vt 0.551998 0.006169
vt 0.605868 0.306761
vt 0.936886 0.503280
vt 0.284688 0.776571
vt 0.603880 0.312959
vt 0.713627 0.540722
vt 0.942895 0.500778
vt 0.788227 0.606996
vt 0.942895 0.600565
vt 0.004343 0.408823
vt 0.241923 0.726198
vt 0.728259 0.161475
vt 0.115724 0.562244
vt 0.182450 0.679959
vt 0.286863 0.608167
vt 0.762935 0.228353
vt 0.241923 0.598793
vt 0.868874 0.570876
vt 0.012042 0.488203
vt 0.219144 0.575205
vt 0.882548 0.541072
vt 0.258948 0.715594
vt 0.568631 0.318097
vt 0.327975 0.993181
vt 0.966937 0.353107
vt 0.603877 0.334234
vt 0.572042 0.322856
vt 0.322151 0.993784
vt 0.429059 0.946254
vt 0.309667 0.846619
vt 0.262297 0.409817
vt 0.925563 0.775864
vt 0.350900 0.937879
vt 0.258948 0.906673
vt 0.887650 0.704630
vt 0.561658 0.337293
vt 0.280892 0.984327
vt 0.327975 0.854195
vt 0.258948 0.429346
vt 0.966937 0.492093
vt 0.789162 0.969886
vt 0.088598 0.576645
vt 0.465349 0.612325
vt 0.702748 0.972307
vt 0.433626 0.608167
vt 0.023160 0.633135
vt 0.700621 0.856733
vt 0.796323 0.833927
vt 0.868874 0.382935
vt 0.452578 0.613403
vt 0.698828 0.971420
vt 0.431783 0.611739
vt 0.792353 0.968834
vt 0.368719 0.598996
vt 0.463467 0.609540
vt 0.454782 0.613403
vt 0.697069 0.970090
vt 0.699051 0.775612
vt 0.240851 0.448656
vt 0.783982 0.842612
vt 0.886276 0.465673
vt 0.249988 0.467070
vt 0.792353 0.861387
vt 0.293683 0.522090
s 0
usemtl Rocks.009
f 42/124/1 38/112/1 21/61/1 41/121/1
f 61/181/2 57/169/2 56/166/2 58/172/2 59/175/2 60/178/2
f 28/82/3 20/58/3 26/76/3
f 71/211/4 70/208/4 64/190/4 66/196/4 65/193/4 62/184/4 63/187/4
f 37/109/5 6/16/5 36/106/5
f 16/46/6 3/7/6 15/43/6
f 34/100/7 24/70/7 29/85/7
f 47/139/8 45/133/8 5/13/8 22/64/8
f 22/65/9 5/14/9 25/73/9
f 18/52/10 13/37/10 4/10/10
f 30/88/11 32/94/11 8/22/11
f 1/1/12 17/49/12 10/28/12
f 72/214/13 1/2/13 10/29/13 73/217/13
f 88/262/14 23/67/14 33/97/14 90/268/14
f 78/232/15 77/229/15 75/223/15 76/226/15
f 43/127/16 44/130/16 40/118/16
f 51/151/17 53/157/17 52/154/17 50/148/17
f 59/176/18 49/145/18 60/179/18
f 92/274/19 91/271/19 67/199/19
f 38/113/20 42/125/20 50/149/20 52/155/20 55/163/20 54/160/20 37/110/20 36/107/20 35/103/20
f 49/146/21 48/142/21 46/136/21 45/134/21 47/140/21 61/182/21 60/180/21
f 39/115/22 58/173/22 56/167/22 19/55/22
f 19/56/23 56/168/23 57/170/23 26/77/23 20/59/23
f 11/31/24 65/194/24 66/197/24 12/34/24
f 12/35/25 66/198/25 64/191/25 4/11/25 13/38/25
f 11/32/26 14/40/26 62/185/26 65/195/26
f 3/8/27 2/4/27 63/188/27 62/186/27 14/41/27 15/44/27
f 68/202/28 69/205/28 70/209/28 71/212/28
f 86/256/29 88/263/29 90/269/29 87/259/29 91/272/29 92/275/29 89/265/29 85/253/29
f 86/257/30 23/68/30 88/264/30
f 64/192/31 70/210/31 69/206/31 9/25/31 31/91/31 29/86/31 24/71/31 25/74/31 5/15/31 45/135/31 46/137/31 18/53/31 4/12/31
f 6/17/32 9/26/32 69/207/32 68/203/32 35/104/32 36/108/32
f 38/114/33 35/105/33 68/204/33 71/213/33 63/189/33 2/5/33 21/62/33
f 17/50/34 16/47/34 15/45/34 14/42/34 11/33/34 12/36/34 13/39/34 18/54/34 46/138/34 48/143/34 74/220/34 73/218/34 10/30/34
f 74/221/35 77/230/35 78/233/35 72/215/35 73/219/35
f 21/63/36 2/6/36 3/9/36 16/48/36 17/51/36 1/3/36 72/216/36 78/234/36 76/227/36 41/122/36
f 41/123/37 76/228/37 75/224/37 44/131/37 43/128/37 51/152/37 50/150/37 42/126/37
f 39/116/38 40/119/38 44/132/38 75/225/38 77/231/38 74/222/38 48/144/38 49/147/38 59/177/38 58/174/38
f 54/161/39 55/164/39 82/244/39 83/247/39
f 53/158/40 81/241/40 82/245/40 55/165/40 52/156/40
f 37/111/41 54/162/41 83/248/41 80/238/41 7/19/41 8/23/41 32/95/41 31/92/41 9/27/41 6/18/41
f 7/20/42 80/239/42 79/235/42
f 83/249/43 82/246/43 81/242/43 84/250/43 79/236/43 80/240/43
f 40/120/44 39/117/44 19/57/44 20/60/44 28/83/44 27/79/44 89/266/44 92/276/44 67/200/44 84/251/44 81/243/44 53/159/44 51/153/44 43/129/44
f 29/87/45 31/93/45 32/96/45 30/89/45 87/260/45 90/270/45 33/98/45 34/101/45
f 79/237/46 84/252/46 67/201/46 91/273/46 87/261/46 30/90/46 8/24/46 7/21/46
f 61/183/47 47/141/47 22/66/47 25/75/47 24/72/47 34/102/47 33/99/47 23/69/47 86/258/47 85/254/47 27/80/47 28/84/47 26/78/47 57/171/47
f 27/81/48 85/255/48 89/267/48
