# Blender 3.4.1
# www.blender.org
mtllib Rock 007.mtl
o Rock_007
v -1.520333 -1.477214 -1.201035
v 0.029759 -1.901255 -1.540717
v -0.642508 3.390271 0.349057
v 0.029759 -1.284553 -1.727064
v 1.442342 -1.514830 -1.231169
v 1.901575 -1.909710 0.349056
v 1.913944 -1.894282 0.323567
v 1.727469 0.882424 0.378293
v 0.029759 -1.944977 -1.447867
v 0.867016 -2.396881 0.349056
v 0.029759 -2.478250 1.013522
v -1.035475 -2.224934 0.211883
v -0.849567 -2.302747 0.506891
v -1.335028 -0.458851 -1.492935
v 1.723883 -1.657017 -0.543759
v 1.556057 -1.521136 -1.099453
v 1.816675 -0.002353 -0.372682
v 1.947733 -0.052391 0.056856
v 1.957186 -1.640305 0.212555
v -1.524688 -1.452403 -1.205391
v -1.620500 0.587837 1.024392
v -1.523347 -1.480975 -1.187285
v -1.532728 -1.281210 1.377401
v -1.504579 -1.880602 -0.139301
v -1.620500 0.587838 -0.442349
v -1.546312 -0.991944 -1.304617
v 1.373278 0.162171 1.138655
v 1.634830 -1.830001 0.853565
v -0.741273 3.107261 0.916476
v -0.584800 3.156706 0.974627
v -1.240642 1.676320 1.143126
v -0.433809 3.488547 0.349057
v -0.419118 3.343906 0.712680
v 1.605818 1.185773 0.294663
v 0.626213 -0.714412 -1.674353
v 0.881005 -0.570814 -1.628370
v -1.201833 0.458966 -1.349527
v -0.667368 3.319037 0.206236
v -1.328023 1.425930 -0.657912
v -1.149992 1.148524 -1.143974
v 1.128968 1.860944 -0.663439
v 1.084188 2.080793 -0.561538
v -0.114994 3.344999 -0.274597
v 0.910022 1.114335 -1.127310
v -0.375888 2.809016 -0.640539
v -0.277168 3.226124 -0.388881
v 0.029759 -2.151780 1.706813
v -0.945288 -1.716191 1.807107
v -1.021849 -1.635014 1.816165
v 0.801409 -1.861900 1.643427
v 0.786329 0.094086 1.694078
v -0.557420 0.558555 1.828874
v -0.150114 1.218640 1.808190
vn 0.9555 -0.0232 -0.2942
vn 0.7318 0.6429 0.2261
vn 0.9196 -0.2779 -0.2775
vn 0.6881 -0.0135 0.7255
vn -0.3337 -0.8747 -0.3514
vn -0.3631 -0.8536 0.3735
vn -0.0729 -0.9747 -0.2112
vn -0.0697 0.1639 -0.9840
vn -0.9410 -0.2116 -0.2641
vn 0.8862 0.0504 0.4606
vn 0.3535 -0.8661 -0.3535
vn -0.9989 -0.0469 -0.0000
vn -0.2855 -0.2381 -0.9284
vn 0.3780 -0.8483 0.3708
vn -0.5968 0.1218 0.7931
vn -0.9442 0.3295 -0.0000
vn -0.3986 0.8465 0.3528
vn 0.2703 0.4497 -0.8513
vn 0.7492 0.1769 -0.6383
vn 0.2858 -0.2431 -0.9269
vn 0.0125 0.2848 -0.9585
vn -0.8796 0.1954 -0.4337
vn -0.6947 0.4849 -0.5312
vn -0.3730 0.8474 -0.3778
vn 0.9212 0.3016 -0.2459
vn -0.4111 0.2808 0.8673
vn 0.5951 0.4264 0.6812
vn 0.0912 -0.0251 0.9955
vn -0.6890 -0.6783 0.2553
vt 0.432932 0.693982
vt 0.418603 0.333965
vt 0.218222 0.895660
vt 0.549489 0.596778
vt 0.735211 0.230238
vt 0.218222 0.743890
vt 0.832911 0.972975
vt 0.506303 0.314023
vt 0.408449 0.519476
vt 0.389898 0.333003
vt 0.858231 0.499960
vt 0.159748 0.755040
vt 0.774437 0.961826
vt 0.616575 0.159145
vt 0.292152 0.333003
vt 0.832911 0.834669
vt 0.795328 0.569734
vt 0.638023 0.004249
vt 0.642244 0.831918
vt 0.401982 0.419085
vt 0.792494 0.568813
vt 0.635750 0.006178
vt 0.757424 0.314023
vt 0.339563 0.737761
vt 0.408470 0.020305
vt 0.554983 0.604507
vt 0.161472 0.735391
vt 0.739443 0.221753
vt 0.004249 0.632550
vt 0.739443 0.033882
vt 0.713398 0.753808
vt 0.611859 0.942029
vt 0.036697 0.538966
vt 0.713398 0.654758
vt 0.554983 0.788561
vt 0.161472 0.551338
vt 0.865651 0.978017
vt 0.702007 0.972511
vt 0.131833 0.536801
vt 0.841410 0.955609
vt 0.854298 0.351045
vt 0.118886 0.898293
vt 0.317992 0.843405
vt 0.486290 0.949584
vt 0.401982 0.504005
vt 0.618291 0.089283
vt 0.432932 0.935895
vt 0.611345 0.143930
vt 0.276361 0.336086
vt 0.507146 0.797060
vt 0.243834 0.490115
vt 0.422341 0.669102
vt 0.548534 0.802560
vt 0.738216 0.405610
vt 0.383074 0.654912
vt 0.559438 0.949584
vt 0.380781 0.433997
vt 0.777411 0.547732
vt 0.419545 0.336131
vt 0.176630 0.290856
vt 0.216034 0.896550
vt 0.029375 0.528302
vt 0.607844 0.503082
vt 0.443903 0.588279
vt 0.433413 0.695239
vt 0.419545 0.333003
vt 0.179538 0.292010
vt 0.205313 0.528302
vt 0.662951 0.335997
vt 0.925897 0.845040
vt 0.492736 0.780232
vt 0.233815 0.380311
vt 0.925897 0.995750
vt 0.004249 0.395126
vt 0.579428 0.588279
vt 0.243834 0.725199
vt 0.133076 0.289743
vt 0.173880 0.907559
vt 0.283128 0.886933
vt 0.034785 0.743890
vt 0.845799 0.365265
vt 0.307583 0.004249
vt 0.004249 0.928901
vt 0.845799 0.552779
vt 0.618425 0.784301
vt 0.453874 0.341719
vt 0.408449 0.578771
vt 0.816849 0.826170
vt 0.392371 0.579282
vt 0.832911 0.825284
vt 0.391000 0.324504
vt 0.624873 0.608806
vt 0.432932 0.481756
vt 0.738216 0.708417
vt 0.806100 0.004249
vt 0.388307 0.512504
vt 0.410104 0.339786
vt 0.841805 0.010120
vt 0.380781 0.547897
vt 0.424433 0.323236
vt 0.841805 0.286277
vt 0.342942 0.768749
vt 0.424433 0.047079
vt 0.932709 0.516966
vt 0.737130 0.895160
vt 0.235335 0.016127
vt 0.372282 0.405285
vt 0.730478 0.868625
vt 0.210692 0.004249
vt 0.932709 0.314023
vt 0.235335 0.219070
vt 0.331064 0.757684
vt 0.519499 0.320994
vt 0.921106 0.241012
vt 0.380781 0.344819
vt 0.599345 0.506260
vt 0.290563 0.654912
vt 0.921106 0.039272
vt 0.177340 0.251930
vt 0.331064 0.691027
vt 0.879656 0.004249
vt 0.851696 0.629444
vt 0.343691 0.646413
vt 0.422341 0.854576
vt 0.747942 0.204972
vt 0.841410 0.649757
vt 0.409658 0.873486
vt 0.751778 0.041845
vt 0.861631 0.811671
vt 0.410104 0.405849
vt 0.917899 0.578233
vt 0.372282 0.567750
vt 0.073994 0.092048
vt 0.917899 0.779875
vt 0.004249 0.281244
vt 0.850304 0.177334
vt 0.882902 0.809615
vt 0.857368 0.222714
vt 0.389265 0.410586
vt 0.607844 0.871336
vt 0.653308 0.617305
vt 0.497425 0.305524
vt 0.702007 0.840417
vt 0.594334 0.284758
vt 0.850478 0.823826
vt 0.729717 0.314023
vt 0.602846 0.278881
vt 0.860154 0.820170
vt 0.110387 0.928901
vt 0.607844 0.678692
vt 0.432932 0.264586
vt 0.109597 0.748106
vt 0.243834 0.043629
vt 0.471904 0.088040
vt 0.729717 0.521202
vt 0.779676 0.578233
vt 0.602846 0.071701
vt 0.832911 0.626254
vt 0.255461 0.178757
vt 0.578553 0.004249
s 0
usemtl Rocks.003
f 17/50/1 18/53/1 19/56/1 15/44/1 16/47/1
f 42/125/2 43/128/2 32/95/2 33/98/2 34/101/2
f 15/45/3 19/57/3 7/20/3
f 51/152/4 50/149/4 28/83/4 27/80/4
f 22/65/5 1/1/5 2/4/5 9/26/5 12/35/5 24/71/5
f 48/143/6 13/38/6 11/32/6 47/140/6
f 10/29/7 11/33/7 13/39/7 12/36/7 9/27/7
f 37/110/8 35/104/8 4/11/8 14/41/8
f 22/66/9 20/59/9 1/2/9
f 27/81/10 28/84/10 6/17/10 7/21/10 19/58/10 18/54/10 8/23/10
f 9/28/11 2/5/11 5/14/11 16/48/11 15/46/11 7/22/11 6/18/11 10/30/11
f 26/77/12 20/60/12 22/67/12 24/72/12 23/68/12 21/62/12 25/74/12
f 1/3/13 20/61/13 26/78/13 14/42/13 4/12/13 2/6/13
f 47/141/14 11/34/14 10/31/14 6/19/14 28/85/14 50/150/14
f 49/146/15 52/155/15 31/92/15 21/63/15 23/69/15
f 39/116/16 25/75/16 21/64/16 31/93/16 29/86/16 3/8/16 38/113/16
f 3/9/17 29/87/17 30/89/17 33/99/17 32/96/17
f 43/129/18 42/126/18 41/122/18 44/131/18 45/134/18 46/137/18
f 41/123/19 17/51/19 16/49/19 5/15/19 36/107/19 44/132/19
f 2/7/20 4/13/20 35/105/20 36/108/20 5/16/20
f 45/135/21 44/133/21 36/109/21 35/106/21 37/111/21 40/119/21
f 14/43/22 26/79/22 25/76/22 39/117/22 40/120/22 37/112/22
f 39/118/23 38/114/23 46/138/23 45/136/23 40/121/23
f 38/115/24 3/10/24 32/97/24 43/130/24 46/139/24
f 8/24/25 18/55/25 17/52/25 41/124/25 42/127/25 34/102/25
f 29/88/26 31/94/26 52/156/26 53/158/26 30/90/26
f 33/100/27 30/91/27 53/159/27 51/153/27 27/82/27 8/25/27 34/103/27
f 52/157/28 49/147/28 48/144/28 47/142/28 50/151/28 51/154/28 53/160/28
f 23/70/29 24/73/29 12/37/29 13/40/29 48/145/29 49/148/29
